<?xml version="1.0" encoding="utf-8"?>
<!-- Generator: Adobe Illustrator 19.2.1, SVG Export Plug-In . SVG Version: 6.00 Build 0)  -->
<svg version="1.1" id="Layer_1" xmlns="http://www.w3.org/2000/svg" xmlns:xlink="http://www.w3.org/1999/xlink" x="0px" y="0px"
	 viewBox="0 0 60 60" style="enable-background:new 0 0 60 60;" xml:space="preserve">
<style type="text/css">
	.st0{fill:#006AD4;}
</style>
<g>
	<g>
		<g>
			<path class="st0" d="M36.5,44.1c-0.5,0-0.9-0.1-1.3-0.3l-9.7-3.2c-0.4-0.1-0.7-0.6-0.5-1.1c0.1-0.4,0.6-0.7,1.1-0.5l9.8,3.2
				c0,0,0.1,0,0.1,0c0.4,0.2,0.9,0.2,1.3,0c0.5-0.2,0.8-0.5,1-1c0.4-1,0-2.1-0.9-2.5c-0.4-0.2-0.6-0.7-0.4-1.1
				c0.2-0.4,0.7-0.6,1.1-0.4c1.7,0.8,2.6,2.9,1.8,4.7c-0.4,0.9-1.1,1.6-1.9,2C37.4,44,37,44.1,36.5,44.1z"/>
		</g>
		<g>
			<g>
				<path class="st0" d="M37.5,49.2C37.5,49.2,37.5,49.2,37.5,49.2c-0.2,0-5.5-0.1-8.8-1.2c-1-0.3-2.3-0.8-3.5-1.3
					c-2.2-0.8-4.9-1.8-5.7-1.8c-0.9,0-4.9,1-7.1,1.7c-0.2,0.1-0.5,0-0.7-0.1c-0.2-0.1-0.3-0.3-0.4-0.6l-1.8-8.7
					c-0.1-0.4,0.2-0.9,0.6-1c11.3-3.1,17.1-2.4,17.4-2.4c0.1,0,0.1,0,0.2,0l10.2,3.3c0.4,0.1,0.7,0.6,0.6,1.1
					c-0.1,0.4-0.6,0.7-1.1,0.6l-10.1-3.2c-0.7-0.1-6.1-0.4-15.9,2.2l1.5,7c1.8-0.5,5.5-1.5,6.7-1.5c1,0,3.1,0.7,6.3,1.9
					c1.2,0.4,2.4,0.9,3.5,1.2c2.6,0.9,7,1.1,8,1.1l10.3-5.7c0,0,0.1,0,0.1,0c0.9-0.4,1.4-1.5,1-2.5c-0.2-0.5-0.5-0.8-1-1
					c-0.4-0.2-0.9-0.2-1.3,0c-0.4,0.2-0.9,0-1.1-0.5c-0.2-0.4,0-0.9,0.5-1.1c0.8-0.4,1.8-0.4,2.6,0c0.9,0.4,1.6,1.1,1.9,2
					c0.7,1.8-0.1,3.9-1.9,4.6l-10.4,5.8C37.8,49.2,37.7,49.2,37.5,49.2z"/>
			</g>
			<g>
				<path class="st0" d="M39.2,41.8c-0.3,0-0.6-0.2-0.8-0.5c-0.2-0.4-0.1-0.9,0.4-1.2l6.9-3.5c0.4-0.2,0.9-0.1,1.2,0.4
					c0.2,0.4,0.1,0.9-0.4,1.2l-6.9,3.5C39.4,41.8,39.3,41.8,39.2,41.8z"/>
			</g>
		</g>
	</g>
	<g>
		<path class="st0" d="M39,33c-4,0-7.3-3.3-7.3-7.3s3.3-7.3,7.3-7.3c4,0,7.3,3.3,7.3,7.3S43,33,39,33z M39,20.2
			c-3.1,0-5.6,2.5-5.6,5.6s2.5,5.6,5.6,5.6c3.1,0,5.6-2.5,5.6-5.6S42,20.2,39,20.2z"/>
	</g>
	<g>
		<path class="st0" d="M31.3,25.3c-4,0-7.3-3.3-7.3-7.3s3.3-7.3,7.3-7.3c4,0,7.3,3.3,7.3,7.3c0,0.6-0.1,1.1-0.2,1.6
			c-0.1,0.5-0.6,0.7-1,0.6c-0.5-0.1-0.7-0.6-0.6-1c0.1-0.4,0.1-0.8,0.1-1.3c0-3.1-2.5-5.6-5.6-5.6c-3.1,0-5.6,2.5-5.6,5.6
			s2.5,5.6,5.6,5.6c0.4,0,0.9,0,1.3-0.1c0.5-0.1,0.9,0.2,1,0.6c0.1,0.5-0.2,0.9-0.6,1C32.4,25.2,31.8,25.3,31.3,25.3z"/>
	</g>
</g>
</svg>
