<?xml version="1.0" encoding="utf-8"?>
<!-- Generator: Adobe Illustrator 19.2.1, SVG Export Plug-In . SVG Version: 6.00 Build 0)  -->
<svg version="1.1" id="Layer_1" xmlns="http://www.w3.org/2000/svg" xmlns:xlink="http://www.w3.org/1999/xlink" x="0px" y="0px"
	 viewBox="0 0 60 60" style="enable-background:new 0 0 60 60;" xml:space="preserve">
<style type="text/css">
	.st0{fill:#006AD4;}
</style>
<g>
	<g>
		<path class="st0" d="M44,29.5c-0.6,0-1-0.4-1-1v-5.8c0-0.6,0.4-1,1-1s1,0.4,1,1v5.8C45,29.1,44.6,29.5,44,29.5z"/>
	</g>
	<g>
		<path class="st0" d="M7,32"/>
	</g>
	<g>
		<path class="st0" d="M51.4,40.5H31c-0.6,0-1-0.4-1-1s0.4-1,1-1h19.6l1.3-7.8l-15.9-2.2c-0.5-0.1-0.9-0.6-0.9-1.1
			c0.1-0.5,0.6-0.9,1.1-0.9l16.9,2.3c0.3,0,0.5,0.2,0.7,0.4C54,29.5,54,29.7,54,30l-1.6,9.7C52.3,40.1,51.9,40.5,51.4,40.5z"/>
	</g>
	<g>
		<path class="st0" d="M44,52.5c-3.9,0-7-3.1-7-7s3.1-7,7-7c3.9,0,7,3.1,7,7S47.9,52.5,44,52.5z M44,40.5c-2.8,0-5,2.2-5,5
			s2.2,5,5,5c2.8,0,5-2.2,5-5S46.8,40.5,44,40.5z"/>
	</g>
	<g>
		<path class="st0" d="M31,43.5c-0.6,0-1-0.4-1-1c0-0.5,0-0.9-0.1-1.4c-0.7-7.2-6.7-12.6-13.9-12.6c-3,0-5.9,1-8.4,2.8
			c-0.4,0.3-1.1,0.2-1.4-0.2C5.9,30.6,6,30,6.4,29.7c2.8-2.1,6.1-3.2,9.6-3.2c8.2,0,15.1,6.2,15.9,14.4C32,41.4,32,42,32,42.5
			C32,43.1,31.6,43.5,31,43.5z"/>
	</g>
	<g>
		<path class="st0" d="M16,52.5c-5.5,0-10-4.5-10-10s4.5-10,10-10s10,4.5,10,10S21.5,52.5,16,52.5z M16,34.5c-4.4,0-8,3.6-8,8
			s3.6,8,8,8s8-3.6,8-8S20.4,34.5,16,34.5z"/>
	</g>
	<g>
		<path class="st0" d="M37,28.5C37,28.5,37,28.5,37,28.5H13c-0.6,0-1-0.4-1-1v-19c0-0.6,0.4-1,1-1h16c0.4,0,0.8,0.2,0.9,0.6
			l7.9,18.8c0.1,0.2,0.2,0.4,0.2,0.6C38,28.1,37.6,28.5,37,28.5z M14,26.5h21.5l-7.2-17H14V26.5z"/>
	</g>
	<g>
		<path class="st0" d="M44,23.7c-0.6,0-1-0.4-1-1c0-2.3,1.8-4.2,4-4.2c0.6,0,1,0.4,1,1s-0.4,1-1,1c-1.1,0-2,1-2,2.2
			C45,23.2,44.6,23.7,44,23.7z"/>
	</g>
</g>
</svg>
