<?xml version="1.0" encoding="utf-8"?>
<!-- Generator: Adobe Illustrator 19.2.1, SVG Export Plug-In . SVG Version: 6.00 Build 0)  -->
<svg version="1.1" id="Layer_1" xmlns="http://www.w3.org/2000/svg" xmlns:xlink="http://www.w3.org/1999/xlink" x="0px" y="0px"
	 viewBox="0 0 60 60" style="enable-background:new 0 0 60 60;" xml:space="preserve">
<style type="text/css">
	.st0{fill:#006AD4;}
</style>
<g>
	<g>
		<g>
			<g>
				<g>
					<g>
						<path class="st0" d="M30,18c-3.3,0-6-2.7-6-6c0-3.3,2.7-6,6-6s6,2.7,6,6C36,15.3,33.3,18,30,18z M30,8c-2.2,0-4,1.8-4,4
							c0,2.2,1.8,4,4,4s4-1.8,4-4C34,9.8,32.2,8,30,8z"/>
					</g>
					<g>
						<path class="st0" d="M33,54h-6c-0.5,0-0.9-0.4-1-0.9l-2-16c-0.1-0.5,0.3-1,0.9-1.1c0.5-0.1,1,0.3,1.1,0.9L27.9,52h4.2L34,36.9
							c0.1-0.5,0.6-0.9,1.1-0.9c0.5,0.1,0.9,0.6,0.9,1.1l-2,16C33.9,53.6,33.5,54,33,54z"/>
					</g>
					<g>
						<path class="st0" d="M25,38h-4c-0.6,0-1-0.4-1-1v-8.9c0-0.6,0.4-1,1-1s1,0.4,1,1V36h3c0.6,0,1,0.4,1,1S25.6,38,25,38z"/>
					</g>
					<g>
						<path class="st0" d="M39,38h-4c-0.6,0-1-0.4-1-1s0.4-1,1-1h3v-7.9c0-0.6,0.4-1,1-1s1,0.4,1,1V37C40,37.6,39.6,38,39,38z"/>
					</g>
				</g>
			</g>
		</g>
		<g>
			<path class="st0" d="M39,29c-0.6,0-1-0.4-1-1c0-4.4-3.6-8-8-8s-8,3.6-8,8c0,0.6-0.4,1-1,1s-1-0.4-1-1c0-5.5,4.5-10,10-10
				s10,4.5,10,10C40,28.6,39.6,29,39,29z"/>
		</g>
	</g>
	<g>
		<g>
			<g>
				<g>
					<g>
						<path class="st0" d="M45,21c-3.3,0-6-2.7-6-6s2.7-6,6-6c3.3,0,6,2.7,6,6S48.3,21,45,21z M45,11c-2.2,0-4,1.8-4,4s1.8,4,4,4
							c2.2,0,4-1.8,4-4S47.2,11,45,11z"/>
					</g>
					<g>
						<path class="st0" d="M48,51h-6c-0.5,0-0.9-0.4-1-0.9l-1-7c-0.1-0.5,0.3-1.1,0.8-1.1c0.5-0.1,1.1,0.3,1.1,0.8l0.9,6.1h4.3
							L49,37.8c0.1-0.5,0.6-0.9,1.2-0.8c0.5,0.1,0.9,0.6,0.8,1.2l-2,12C48.9,50.6,48.5,51,48,51z"/>
					</g>
					<g>
						<path class="st0" d="M53,39h-3c-0.6,0-1-0.4-1-1s0.4-1,1-1h2v-5.3c0-0.6,0.4-1,1-1s1,0.4,1,1V38C54,38.6,53.6,39,53,39z"/>
					</g>
				</g>
			</g>
		</g>
		<g>
			<path class="st0" d="M53,32.6c-0.6,0-1-0.4-1-1c0-4.2-1.8-8.6-7-8.6c-0.6,0-1-0.4-1-1s0.4-1,1-1c5.5,0,9,4.2,9,10.6
				C54,32.2,53.6,32.6,53,32.6z"/>
		</g>
	</g>
	<g>
		<g>
			<g>
				<g>
					<g>
						<path class="st0" d="M15,21c-3.3,0-6-2.7-6-6s2.7-6,6-6c3.3,0,6,2.7,6,6S18.3,21,15,21z M15,11c-2.2,0-4,1.8-4,4s1.8,4,4,4
							c2.2,0,4-1.8,4-4S17.2,11,15,11z"/>
					</g>
					<g>
						<path class="st0" d="M18,51h-6c-0.5,0-0.9-0.4-1-0.8l-2-12c-0.1-0.5,0.3-1.1,0.8-1.2c0.6-0.1,1.1,0.3,1.2,0.8L12.8,49h4.3
							l0.9-6.1c0.1-0.5,0.6-0.9,1.1-0.8c0.5,0.1,0.9,0.6,0.8,1.1l-1,7C18.9,50.6,18.5,51,18,51z"/>
					</g>
					<g>
						<path class="st0" d="M10,39H7c-0.6,0-1-0.4-1-1v-6.3c0-0.6,0.4-1,1-1s1,0.4,1,1V37h2c0.6,0,1,0.4,1,1S10.6,39,10,39z"/>
					</g>
				</g>
			</g>
		</g>
		<g>
			<path class="st0" d="M7,32.6c-0.6,0-1-0.4-1-1C6,25.2,9.5,21,15,21c0.6,0,1,0.4,1,1s-0.4,1-1,1c-5.2,0-7,4.4-7,8.6
				C8,32.2,7.6,32.6,7,32.6z"/>
		</g>
	</g>
</g>
</svg>
