<?xml version="1.0" encoding="utf-8"?>
<!-- Generator: Adobe Illustrator 19.2.1, SVG Export Plug-In . SVG Version: 6.00 Build 0)  -->
<svg version="1.1" id="Layer_1" xmlns="http://www.w3.org/2000/svg" xmlns:xlink="http://www.w3.org/1999/xlink" x="0px" y="0px"
	 viewBox="0 0 60 60" style="enable-background:new 0 0 60 60;" xml:space="preserve">
<style type="text/css">
	.st0{fill:none;stroke:#006AD4;stroke-width:2;stroke-miterlimit:10;}
</style>
<g>
	<line class="st0" x1="11.5" y1="52.3" x2="11.5" y2="22.3"/>
	<line class="st0" x1="52.5" y1="52.3" x2="7.5" y2="52.3"/>
	<line class="st0" x1="48.5" y1="22.3" x2="48.5" y2="52.3"/>
	<line class="st0" x1="7.5" y1="22.3" x2="52.5" y2="22.3"/>
	<line class="st0" x1="19" y1="18.3" x2="41" y2="18.3"/>
	<path class="st0" d="M34,52.3h-8v-12c0-2.2,1.8-4,4-4l0,0c2.2,0,4,1.8,4,4V52.3z"/>
	<line class="st0" x1="30" y1="7.3" x2="30" y2="18.3"/>
	<polygon class="st0" points="30,13.3 30,10.3 30,7.3 36,10.3 	"/>
	<line class="st0" x1="48.5" y1="34.8" x2="48.5" y2="39.8"/>
	<line class="st0" x1="19" y1="34.8" x2="19" y2="39.8"/>
	<line class="st0" x1="41" y1="34.8" x2="41" y2="39.8"/>
	<line class="st0" x1="19" y1="43" x2="19" y2="48"/>
	<line class="st0" x1="41" y1="43" x2="41" y2="48"/>
</g>
</svg>
