<?xml version="1.0" encoding="utf-8"?>
<!-- Generator: Adobe Illustrator 19.2.1, SVG Export Plug-In . SVG Version: 6.00 Build 0)  -->
<svg version="1.1" id="Layer_1" xmlns="http://www.w3.org/2000/svg" xmlns:xlink="http://www.w3.org/1999/xlink" x="0px" y="0px"
	 viewBox="0 0 25 25" style="enable-background:new 0 0 25 25;" xml:space="preserve">
<style type="text/css">
	.st0{fill:#D1D1D1;}
</style>
<g>
	<path class="st0" d="M21.5,21.5h-18c-1.7,0-3-1.3-3-3v-12c0-1.7,1.3-3,3-3h18c1.7,0,3,1.3,3,3v12C24.5,20.2,23.2,21.5,21.5,21.5z
		 M3.5,5.5c-0.6,0-1,0.4-1,1v12c0,0.6,0.4,1,1,1h18c0.6,0,1-0.4,1-1v-12c0-0.6-0.4-1-1-1H3.5z"/>
	<path class="st0" d="M12.5,14.5c-0.2,0-0.4-0.1-0.6-0.2L1.6,6C1.2,5.6,1.1,5,1.5,4.6c0.3-0.4,1-0.5,1.4-0.1l9.6,7.8l9.6-7.8
		c0.4-0.3,1.1-0.3,1.4,0.1C23.9,5,23.8,5.6,23.4,6l-10.3,8.3C12.9,14.4,12.7,14.5,12.5,14.5z"/>
</g>
</svg>
