<?xml version="1.0" encoding="utf-8"?>
<!-- Generator: Adobe Illustrator 19.2.1, SVG Export Plug-In . SVG Version: 6.00 Build 0)  -->
<svg version="1.1" id="Layer_1" xmlns="http://www.w3.org/2000/svg" xmlns:xlink="http://www.w3.org/1999/xlink" x="0px" y="0px"
	 viewBox="0 0 60 60" style="enable-background:new 0 0 60 60;" xml:space="preserve">
<style type="text/css">
	.st0{fill:none;stroke:#006AD4;stroke-width:2;stroke-miterlimit:10;}
</style>
<g>
	<rect x="18.2" y="7.5" class="st0" width="23.6" height="45"/>
	<rect x="7.5" y="15.5" class="st0" width="10.7" height="37"/>
	<rect x="41.8" y="15.5" class="st0" width="10.7" height="37"/>
	<rect x="24.4" y="47.5" class="st0" width="12" height="5"/>
	<g>
		<line class="st0" x1="37.1" y1="11.5" x2="37.1" y2="17.5"/>
		<line class="st0" x1="30" y1="11.5" x2="30" y2="17.5"/>
		<line class="st0" x1="22.9" y1="11.5" x2="22.9" y2="17.5"/>
	</g>
	<g>
		<line class="st0" x1="37.1" y1="22.5" x2="37.1" y2="28.5"/>
		<line class="st0" x1="30" y1="22.5" x2="30" y2="28.5"/>
		<line class="st0" x1="22.9" y1="22.5" x2="22.9" y2="28.5"/>
	</g>
	<g>
		<line class="st0" x1="37.1" y1="33.5" x2="37.1" y2="39.5"/>
		<line class="st0" x1="30" y1="33.5" x2="30" y2="39.5"/>
		<line class="st0" x1="22.9" y1="33.5" x2="22.9" y2="39.5"/>
	</g>
	<line class="st0" x1="47.1" y1="19.5" x2="47.1" y2="24.5"/>
	<line class="st0" x1="47.1" y1="29.5" x2="47.1" y2="34.5"/>
	<line class="st0" x1="47.1" y1="39.5" x2="47.1" y2="44.5"/>
	<line class="st0" x1="12.9" y1="19.5" x2="12.9" y2="24.5"/>
	<line class="st0" x1="12.9" y1="29.5" x2="12.9" y2="34.5"/>
	<line class="st0" x1="12.9" y1="39.5" x2="12.9" y2="44.5"/>
</g>
</svg>
