<?xml version="1.0" encoding="utf-8"?>
<!-- Generator: Adobe Illustrator 19.2.1, SVG Export Plug-In . SVG Version: 6.00 Build 0)  -->
<svg version="1.1" id="Layer_1" xmlns="http://www.w3.org/2000/svg" xmlns:xlink="http://www.w3.org/1999/xlink" x="0px" y="0px"
	 viewBox="0 0 60 60" style="enable-background:new 0 0 60 60;" xml:space="preserve">
<style type="text/css">
	.st0{fill:#006AD4;}
</style>
<g>
	<g>
		<g>
			<g>
				<path class="st0" d="M30,18c-3.3,0-6-2.7-6-6c0-3.3,2.7-6,6-6s6,2.7,6,6C36,15.3,33.3,18,30,18z M30,8c-2.2,0-4,1.8-4,4
					c0,2.2,1.8,4,4,4s4-1.8,4-4C34,9.8,32.2,8,30,8z"/>
			</g>
		</g>
		<g>
			<path class="st0" d="M38,28c-0.6,0-1-0.4-1-1c0-3.9-3.1-7-7-7s-7,3.1-7,7c0,0.6-0.4,1-1,1s-1-0.4-1-1c0-5,4-9,9-9s9,4,9,9
				C39,27.6,38.6,28,38,28z"/>
		</g>
	</g>
	<g>
		<path class="st0" d="M37.9,54H22.1c-0.5,0-0.9-0.4-1-0.9l-3.1-22c-0.1-0.5,0.3-1.1,0.8-1.1c0.5-0.1,1.1,0.3,1.1,0.8L23,52h14
			l3-21.1c0.1-0.5,0.6-0.9,1.1-0.8c0.5,0.1,0.9,0.6,0.8,1.1l-3.1,22C38.8,53.6,38.4,54,37.9,54z"/>
	</g>
	<g>
		<path class="st0" d="M44,32H16c-0.6,0-1-0.4-1-1s0.4-1,1-1h28c0.6,0,1,0.4,1,1S44.6,32,44,32z"/>
	</g>
	<g>
		<path class="st0" d="M26.9,32c-0.2,0-0.3,0-0.5-0.1C26,31.6,25.8,31,26,30.5l3.1-6c0.3-0.5,0.9-0.7,1.3-0.4
			c0.5,0.3,0.7,0.9,0.4,1.3l-3.1,6C27.6,31.8,27.3,32,26.9,32z"/>
	</g>
</g>
</svg>
