<?xml version="1.0" encoding="utf-8"?>
<!-- Generator: Adobe Illustrator 19.2.1, SVG Export Plug-In . SVG Version: 6.00 Build 0)  -->
<svg version="1.1" id="Layer_1" xmlns="http://www.w3.org/2000/svg" xmlns:xlink="http://www.w3.org/1999/xlink" x="0px" y="0px"
	 viewBox="0 0 60 60" style="enable-background:new 0 0 60 60;" xml:space="preserve">
<style type="text/css">
	.st0{fill:none;stroke:#006AD4;stroke-width:2;stroke-miterlimit:10;}
</style>
<g>
	<rect x="7.5" y="31.9" class="st0" width="45" height="20.4"/>
	<polyline class="st0" points="13.5,42.1 21.5,35.9 29.5,42.1 	"/>
	<rect x="16.5" y="45.1" class="st0" width="10" height="7.1"/>
	<g>
		<g>
			<line class="st0" x1="35.6" y1="35.7" x2="35.6" y2="40.8"/>
			<line class="st0" x1="41.3" y1="35.7" x2="41.3" y2="40.8"/>
			<line class="st0" x1="46.9" y1="35.7" x2="46.9" y2="40.8"/>
		</g>
		<g>
			<line class="st0" x1="35.6" y1="43.3" x2="35.6" y2="48.4"/>
			<line class="st0" x1="41.3" y1="43.3" x2="41.3" y2="48.4"/>
			<line class="st0" x1="46.9" y1="43.3" x2="46.9" y2="48.4"/>
		</g>
	</g>
	<polygon class="st0" points="23.9,31.8 11.1,31.8 13.5,23.6 21.5,23.6 	"/>
	<rect x="13.5" y="7.3" class="st0" width="8" height="16.3"/>
	<g>
		<polygon class="st0" points="47.9,31.8 38,31.8 39.8,25.4 46,25.4 		"/>
		<rect x="39.8" y="12.8" class="st0" width="6.2" height="12.6"/>
	</g>
	<rect x="28.5" y="19.1" class="st0" width="4.6" height="12.7"/>
</g>
</svg>
