<?xml version="1.0" encoding="utf-8"?>
<!-- Generator: Adobe Illustrator 19.2.1, SVG Export Plug-In . SVG Version: 6.00 Build 0)  -->
<svg version="1.1" id="Layer_1" xmlns="http://www.w3.org/2000/svg" xmlns:xlink="http://www.w3.org/1999/xlink" x="0px" y="0px"
	 viewBox="0 0 25 25" style="enable-background:new 0 0 25 25;" xml:space="preserve">
<style type="text/css">
	.st0{fill:#D1D1D1;}
</style>
<g>
	<g>
		<path class="st0" d="M22.5,20.5h-3c-0.6,0-1-0.4-1-1s0.4-1,1-1h3v-10h-20v10h3c0.6,0,1,0.4,1,1s-0.4,1-1,1h-3c-1.1,0-2-0.9-2-2
			v-10c0-1.1,0.9-2,2-2h20c1.1,0,2,0.9,2,2v10C24.5,19.6,23.6,20.5,22.5,20.5z"/>
		<path class="st0" d="M19.5,8.5h-14c-0.6,0-1-0.4-1-1v-6c0-0.6,0.4-1,1-1h14c0.6,0,1,0.4,1,1v6C20.5,8.1,20.1,8.5,19.5,8.5z
			 M6.5,6.5h12v-4h-12V6.5z"/>
		<path class="st0" d="M19.5,24.5h-14c-0.6,0-1-0.4-1-1v-9c0-0.6,0.4-1,1-1h14c0.6,0,1,0.4,1,1v9C20.5,24.1,20.1,24.5,19.5,24.5z
			 M6.5,22.5h12v-7h-12V22.5z"/>
	</g>
	<path class="st0" d="M20.5,11.5h-1c-0.6,0-1-0.4-1-1s0.4-1,1-1h1c0.6,0,1,0.4,1,1S21.1,11.5,20.5,11.5z"/>
</g>
</svg>
