<?xml version="1.0" encoding="utf-8"?>
<!-- Generator: Adobe Illustrator 19.2.1, SVG Export Plug-In . SVG Version: 6.00 Build 0)  -->
<svg version="1.1" id="Layer_1" xmlns="http://www.w3.org/2000/svg" xmlns:xlink="http://www.w3.org/1999/xlink" x="0px" y="0px"
	 viewBox="0 0 60 60" style="enable-background:new 0 0 60 60;" xml:space="preserve">
<style type="text/css">
	.st0{fill:none;stroke:#006AD4;stroke-width:2;stroke-miterlimit:10;}
</style>
<g>
	<polyline class="st0" points="11.5,28.8 11.5,52.8 48.5,52.8 48.5,28.8 	"/>
	<polyline class="st0" points="25,25.2 25,13.8 30,7.2 35,13.8 35,25.2 	"/>
	<polyline class="st0" points="25,19.8 22.5,19.8 20,19.8 17.5,19.8 15,19.8 13.1,22 11.2,24.2 9.4,26.5 7.5,28.8 18.8,28.8 
		30,23.8 41.2,28.8 52.5,28.8 50.6,26.5 48.8,24.2 46.9,22 45,19.8 42.5,19.8 40,19.8 37.5,19.8 35,19.8 	"/>
	<rect x="27" y="40.8" class="st0" width="6" height="12"/>
	<g>
		<line class="st0" x1="41.5" y1="37.8" x2="41.5" y2="43.8"/>
		<line class="st0" x1="18.5" y1="37.8" x2="18.5" y2="43.8"/>
	</g>
	<g>
		<g>
			<line class="st0" x1="30" y1="11.8" x2="30" y2="19.8"/>
		</g>
		<line class="st0" x1="27.5" y1="14.8" x2="32.5" y2="14.8"/>
	</g>
</g>
</svg>
