<?xml version="1.0" encoding="utf-8"?>
<!-- Generator: Adobe Illustrator 19.2.1, SVG Export Plug-In . SVG Version: 6.00 Build 0)  -->
<svg version="1.1" id="Layer_1" xmlns="http://www.w3.org/2000/svg" xmlns:xlink="http://www.w3.org/1999/xlink" x="0px" y="0px"
	 viewBox="0 0 60 60" style="enable-background:new 0 0 60 60;" xml:space="preserve">
<style type="text/css">
	.st0{fill:#006AD4;}
</style>
<g>
	<g>
		<g>
			<g>
				<g>
					<g>
						<g>
							<path class="st0" d="M12.5,18c-3.3,0-6-2.7-6-6s2.7-6,6-6c3.3,0,6,2.7,6,6S15.8,18,12.5,18z M12.5,8c-2.2,0-4,1.8-4,4
								s1.8,4,4,4c2.2,0,4-1.8,4-4S14.7,8,12.5,8z"/>
						</g>
						<g>
							<g>
								<path class="st0" d="M15.5,54h-6c-0.5,0-0.9-0.4-1-0.9l-2-16c-0.1-0.5,0.3-1,0.9-1.1c0.6-0.1,1,0.3,1.1,0.9L10.4,52h4.2
									l1.9-15.1c0.1-0.5,0.6-0.9,1.1-0.9c0.5,0.1,0.9,0.6,0.9,1.1l-2,16C16.4,53.6,16,54,15.5,54z"/>
							</g>
						</g>
						<g>
							<path class="st0" d="M7.5,38h-4c-0.6,0-1-0.4-1-1v-8.9c0-0.6,0.4-1,1-1c0.6,0,1,0.4,1,1V36h3c0.6,0,1,0.4,1,1S8.1,38,7.5,38z
								"/>
						</g>
						<g>
							<path class="st0" d="M21.5,38h-4c-0.6,0-1-0.4-1-1s0.4-1,1-1h3v-7.9c0-0.6,0.4-1,1-1c0.6,0,1,0.4,1,1V37
								C22.5,37.6,22.1,38,21.5,38z"/>
						</g>
					</g>
				</g>
			</g>
			<g>
				<path class="st0" d="M21.5,29c-0.6,0-1-0.4-1-1c0-4.4-3.6-8-8-8c-4.4,0-8,3.6-8,8c0,0.6-0.4,1-1,1c-0.6,0-1-0.4-1-1
					c0-5.5,4.5-10,10-10c5.5,0,10,4.5,10,10C22.5,28.6,22.1,29,21.5,29z"/>
			</g>
		</g>
	</g>
	<path class="st0" d="M55,14H42.5v-3.8c0-2.3-1.9-4.2-4.2-4.2h-5.6c-2.3,0-4.2,1.9-4.2,4.2V14h-8v2H55c0.3,0,0.5,0.3,0.5,0.6V27h-16
		v-0.1c0-1-0.4-2-1.2-2.7c-0.8-0.7-1.8-1.1-2.8-1.1c-2.2,0-4,1.7-4,3.9V27h-6v2h6v2.1c0,1,0.4,2,1.2,2.7c0.8,0.7,1.8,1.1,2.8,1.1
		c2.2,0,4-1.7,4-3.9V29h16v18.4c0,0.3-0.2,0.6-0.5,0.6H19.5v2H55c1.4,0,2.5-1.2,2.5-2.6V16.6C57.5,15.2,56.4,14,55,14z M40.5,14h-10
		v-3.8c0-1.2,1-2.2,2.2-2.2h5.6c1.2,0,2.2,1,2.2,2.2V14z M37.5,31.1c0,1-0.9,1.9-2,1.9c-0.5,0-1-0.2-1.4-0.6
		c-0.4-0.4-0.6-0.8-0.6-1.3v-4.3c0-1,0.9-1.9,2-1.9c0.5,0,1,0.2,1.4,0.6c0.4,0.4,0.6,0.8,0.6,1.3V31.1z"/>
</g>
</svg>
