<?xml version="1.0" encoding="utf-8"?>
<!-- Generator: Adobe Illustrator 19.2.1, SVG Export Plug-In . SVG Version: 6.00 Build 0)  -->
<svg version="1.1" id="Layer_1" xmlns="http://www.w3.org/2000/svg" xmlns:xlink="http://www.w3.org/1999/xlink" x="0px" y="0px"
	 viewBox="0 0 25 25" style="enable-background:new 0 0 25 25;" xml:space="preserve">
<style type="text/css">
	.st0{fill:#0076D8;}
</style>
<g>
	<g>
		<g>
			<path class="st0" d="M20.5,23.5h-16c-1.1,0-2-0.9-2-2v-13c0-1.1,0.9-2,2-2h4c0.6,0,1,0.4,1,1s-0.4,1-1,1h-4v13h16v-13h-4
				c-0.6,0-1-0.4-1-1s0.4-1,1-1h4c1.1,0,2,0.9,2,2v13C22.5,22.6,21.6,23.5,20.5,23.5z"/>
		</g>
	</g>
	<g>
		<g>
			<g>
				<path class="st0" d="M12.5,19.5c-0.6,0-1-0.4-1-1v-16c0-0.6,0.4-1,1-1c0.6,0,1,0.4,1,1v16C13.5,19.1,13.1,19.5,12.5,19.5z"/>
			</g>
			<g>
				<path class="st0" d="M12.5,19.5c-0.3,0-0.5-0.1-0.7-0.3l-5-5c-0.4-0.4-0.4-1,0-1.4c0.4-0.4,1-0.4,1.4,0l4.3,4.3l4.3-4.3
					c0.4-0.4,1-0.4,1.4,0c0.4,0.4,0.4,1,0,1.4l-5,5C13,19.4,12.8,19.5,12.5,19.5z"/>
			</g>
		</g>
	</g>
</g>
</svg>
