<?xml version="1.0" encoding="utf-8"?>
<!-- Generator: Adobe Illustrator 19.2.1, SVG Export Plug-In . SVG Version: 6.00 Build 0)  -->
<svg version="1.1" id="Layer_1" xmlns="http://www.w3.org/2000/svg" xmlns:xlink="http://www.w3.org/1999/xlink" x="0px" y="0px"
	 viewBox="0 0 465 440" style="enable-background:new 0 0 465 440;" xml:space="preserve">
<style type="text/css">
	.st0{fill:#FFFFFF;}
</style>
<path class="st0" d="M436.4,301.7c7.5-10.9,13.9-8.9,18.9-7.9c4.5,1.5,6.5,2,9.4-7c1-4,1-4-1-7.5c-1.5-2-3.5-4.5-5.5-8.9
	c-0.5-1.5-1.5-2.5-2-3.5c-1.5-1.5-2.5-3.5-4.5-7.5c-2.5-7.5-0.5-13.9,1-19.9c1-3.5,2-6.5,2-9.4c0-12.9-4.5-20.4-12.4-29.3
	c-7-7.5-5-17.4,4-25.8l0.5-0.5c2-2,3-3,2.5-6c-1-5.5-3-11.9-5.5-16.9c-3-5.5-4.5-7-10.4-7.9c-8.9-1.5-10.4-6-11.9-10.4
	c-1-2.5-2-5.5-4.5-7.9c-2.5-2.5-5.5-4.5-7.9-5.5c-1.5-0.5-3-1.5-4.5-2.5c-3.5-3-6.5-6.5-7.9-10.4c-2-4.5-3-8.4-1.5-11.9v-0.5
	c0.5-0.5,0.5-1,1-1.5c1-1.5,1.5-3,2-5c0-2-0.5-4-1-6c-2-4-4-7-6-9.9c-2-2.5-4.5-5-7.5-7.5c-7.5-5-7.9-10.9-8.4-15.9v-1
	c0-1.5-0.5-3-0.5-4.5c-1-4-9.4-8.4-14.4-10.9l-1.5-1c-2-1-3-1.5-4-2.5c-0.5-0.5-2-1-3.5-2c-1,2-2.5,3.5-4,5.5
	c-4.5,6.5-7.5,7.9-9.9,8.9c-1.5,0.5-2.5,1-4.5,5.5c-1.5,3-2,4.5-2.5,5.5v0.5c0,0.5-0.5,1-0.5,1v0.5c0,1.5-0.5,4-1.5,7.5
	c-2,9.9-2.5,10.4-4,14.4c-0.5,1-1.5,3-2.5,5.5c-1,3-1.5,6-2,7.9v0.5c-1,5.5-1.5,10.9-9.9,14.4c-2,0.5-3,1.5-4.5,2
	c-7,3-11.9,5.5-17.4,2c-1-0.5-2-1-2.5-1.5c-1.5-1-1.5-1-6-0.5c-6.5,1-8.9-1.5-11.4-4c-1.5-1.5-2.5-2-4-2s-3.5,0-5-0.5h-1
	c-4.5-0.5-7.5-0.5-9.4,1c-2.5,2-4.5,3-6,4c-2,1-3,1.5-4,3.5v0.5c-2.5,5-7,15.4-9.9,34.8c-1,5-1.5,8.9-2,12.4l-0.5,2.5
	c-0.5,7.9-1,11.9-5,18.4c-3,5-14.4,20.4-24.3,31.8c-12.9,14.4-16.4,14.9-17.9,14.9s-3,0-4,0.5h-1c-4,0.5-7.5,1-12.4,0
	c-2,0-3.5-0.5-5-1l-1.5-0.5c-4-1-7.9-2.5-12.4-2c-3.5,0.5-7-0.5-9.9-1c-2.5-0.5-7-2-8.4,0c-2,3-2.5,4.5-3.5,7.5l-0.5,1
	c-0.5,2-1.5,4.5-3.5,7.9c-2.5,4.5-5,7.5-8.4,8.4s-6.5,0-9.4-1.5c-1-0.5-2.5-1-4-1.5l-2.5-1c-4.5-1.5-9.9-3.5-13.9-6.5
	c-2.5-2-3.5-1.5-7.9,0.5c-1,0.5-2,1-2.5,1l-1.5,0.5c-1,0.5-2.5,1-3.5,1c-6.5,2.5-15.9,6.5-18.9,9.9c-2,2.5-5,6-7.9,7.9
	c-1.5,1-5,4.5-8.4,5c-2,0-8.4,0.5-11.9,0.5c-1,1.5-2,4-4.5,7c-1,1-2,2.5-3,4l-0.5,1c-4,6.5-7,9.9-8.4,11.9c0,0.5-0.5,0.5-0.5,1h0.5
	c3,0,5.5,0.5,8.4,2.5c2.5,1.5,4,3,4.5,5c0.5,3-1,6-3,8.4l-0.5,1c-0.5,1-1,2-1.5,2.5c0.5,0,1,0.5,1,0.5c1,0.5,2,0.5,3,1
	c6,3,5,7,4.5,9.9c0,1.5-0.5,2.5-0.5,4c0,2.5,0.5,3,1,3.5c1.5,1.5,2.5,2.5,4,6c0.5,1,0.5,1.5,1,2.5v0.5c1.5,4,2.5,7,6,9.4h0.5
	c5.5,4,10.4,7.9,12.9,17.9c1,3,2,4,3,5.5c2,2.5,4,4.5,5.5,11.4c1,3.5,2,5.5,3.5,7.5c5.5,8.4,5.5,18.4,5.5,28.8c3-0.5,6.5-1,8.9-2.5
	c1.5-0.5,2-1.5,2.5-2.5c2-3.5,4.5-4.5,12.4-2.5c7,1.5,11.4-2,16.9-6c2-1.5,4-3,6.5-4.5c3-2,4.5-3.5,5.5-4.5c3-3.5,5-4.5,14.4-2
	c1,0.5,1.5,0.5,2,0.5c1,0.5,2.5,1,3,1c0,0,0-0.5,0-1.5c0-3,0.5-7.5,4-14.9c2-4,2-7.5,2.5-9.9v-1c0.5-7.5,2.5-9.4,7-12.9
	c0.5-0.5,1.5-1,2.5-1.5c6.5-5,12.4-9.9,21.9-5c4.5,2.5,12.9,2.5,19.4,3h0.5l0,0c3.5,0,7,0,9.4,0.5c2.5,0.5,4.5,1,6.5,1.5l1,0.5
	c4,1.5,8.4,3,14.4,1.5c8.4-2.5,16.4-1.5,21.9-0.5c4,0.5,6.5,0.5,8.4,0.5c5-0.5,5.5-0.5,11.4-4.5c6.5-4.5,6.5-5.5,8.9-12.9l0.5-2
	c2.5-8.9,6-19.9,16.9-22.9h0.5c7.5-2,13.9-3.5,18.9-4c4.5-0.5,10.4-0.5,14.4,4c1,1,2,2,3.5,4c4.5,5.5,6.5,7.5,9.4,5.5
	c4.5-3,8.4-5,12.9-6.5s8.9-2.5,12.9-3c3-0.5,5-3.5,7-7.9c2.5-5.5,5-7.9,7.5-11.4c1-1,2-2,3-3.5c7.5-8.9,14.4-13.4,21.9-12.9
	c7,0.5,13.9,6,19.9,15.9c2.5,3.5,3,6.5,3.5,9.4c0.5,1.5,0.5,3.5,1.5,4l1,0.5c3,2,5,3,7.9,2C433.4,305.7,434.9,303.7,436.4,301.7z"/>
</svg>
