<?xml version="1.0" encoding="utf-8"?>
<!-- Generator: Adobe Illustrator 19.2.1, SVG Export Plug-In . SVG Version: 6.00 Build 0)  -->
<svg version="1.1" id="Layer_1" xmlns="http://www.w3.org/2000/svg" xmlns:xlink="http://www.w3.org/1999/xlink" x="0px" y="0px"
	 viewBox="0 0 465 440" style="enable-background:new 0 0 465 440;" xml:space="preserve">
<style type="text/css">
	.st0{fill:#FFFFFF;}
</style>
<path class="st0" d="M418.6,54.4l-2.4-2.4c-4.3-3.8-10.1-9.1-3.8-22.5l1-2.4c4.3-10.1,6.2-14.4,7.2-17.7c0.5-1.9,2.4-5.8,4.3-8.6
	c-12-1.4-26.4-0.5-29.7,3.4c-1.4,1.9-2.9,3.4-4.3,5.3c-4.8,6.2-9.6,12-18.2,14.9c-10.1,3.8-21.1,4.8-28.8,3.4
	c-2.9-0.5-6.7-2.9-11-5.3c-6.7-3.8-14.4-8.2-22.1-8.2c-0.5,0-0.5,0-1,0c-4.3,0-7.7-0.5-10.1-1c-4.3-1-4.3-1-5.3,1.9
	s-1.4,6.7-1.9,10.6c-0.5,5.8-1.4,13-4.3,21.6c-3.8,12.5-5.3,13.4-10.1,16.3c-1,0.5-1.9,1-2.9,1.9c-7.7,4.8-22.5,9.1-32.1,8.6
	c-6.2,0-8.6-3.8-11-6.7c-1.9-2.9-3.8-4.8-7.2-5.3c-1.9,0-3.8-0.5-6.7-0.5c-11.5-1.4-31.2-3.4-41.7-1.4c-14.4,2.4-24,9.6-27.3,12.5
	c-4.3,3.8-12,1.4-19.2-1c-3.4-1-7.2-2.4-10.1-2.4c-8.6-1-13.4,0.5-17.3,11c-3.4,8.6-9.1,16.8-16.3,26.4c-2.9,3.8-5.8,8.2-9.1,12.5
	c-1.4,2.4-3.4,4.8-4.8,7.2c-8.2,12-14.9,22.1-17.3,31.2c-2.4,9.1-2.4,19.2,0.5,32.1c1,3.4,2.9,7.2,5.3,11
	c4.8,8.6,10.1,18.2,3.8,27.3c-2.9,3.8-4.3,7.2-5.8,10.1c-1.4,2.9-2.9,5.3-4.3,6.7c0,6.7-1.4,14.9-6.2,18.7
	c-4.3,3.8-6.2,7.7-7.2,10.1c-1,2.9-1,6.2-1,9.6v1.4c0.5,4.8,1,8.6,8.6,11c12.5,3.8,13.9,10.1,15.3,19.2c0,1,0.5,1.4,0.5,2.9
	c0.5,3.4,2.4,4.3,4.8,5.8l-0.5,2.4l1-1.9c2.4,1.4,5.8,2.9,7.2,6.7c2.4,5.3,1,7.7-0.5,9.6c-0.5,1.4-1,2.4,0,5.3l0.5,1
	c2.9,6.7,2.9,7.2,10.6,6.2c3.8-0.5,6.2-1.4,8.6-2.9c5.3-1.9,10.1-4.3,18.2,1c2.9,1.9,4.8,2.4,6.7,3.4c5.3,2.4,8.2,3.8,13,12.5
	c3.8,7.2,2.9,10.6,1.4,13.9c-0.5,1-1,1.9,0.5,5.8c2.4,4.8,1.9,8.2,1.9,10.1c1.4,1,5.3,2.4,6.7,3.4c8.2,3.8,13.9,5.8,19.2,6.7
	c4.8,1,9.1,0.5,13.9-1.4c2.9-1.4,6.2-2.4,9.1-3.4l3.8-1.4c6.7-2.4,13-4.8,17.3-8.2c1.9-1.4,2.9-3.4,3.8-4.8c0.5-0.5,0.5-1,1-1.4
	l0.5-0.5c3.8-5.3,7.7-5.8,14.9-1c3.4,2.4,7.2,3.4,10.1,4.3c6.2,2.4,12,4.3,12.5,12c0.5,6.2-1.4,7.7-3.4,9.6l-0.5,0.5c0,0,0,0.5,0,1
	c0,1.9,3.8,6.7,6.7,10.6l1,1.4c4.3,4.8,8.2,9.6,9.6,14.4l0.5,1.9c3.4,0,6.2-0.5,7.7-1c0.5-0.5,1.4-1.4,2.4-2.9
	c3.8-4.8,9.1-11,19.2-11.5c6.7-0.5,10.6,1.9,13.9,3.8c3.4,1.9,6.7,3.8,13.9,4.3c6.7,0,13-0.5,19.2-2.4c6.7-1.4,13-4.3,18.2-7.2
	c4.3-2.4,10.1-8.6,15.8-15.3c5.8-7.2,10.1-14.4,12-19.7c1.9-5.3,2.4-9.1,2.4-12.5v-1c0-3.8,0.5-7.7,2.9-13c5.8-12,3.8-13.9,1.4-16.3
	c-3.4-3.4-5.8-7.2-1-17.7c0.5-1,1-2.4,1.4-3.4c2.4-4.8,3.8-8.6,3.8-14.9c0-3.4-1.4-5.8-2.4-7.7c-1.4-1.9-3.4-3.8-5.8-5.8
	c-1.4-1-3.4-1.9-5.8-2.4h-0.5c-5.3-1.9-11.5-4.3-13.9-11c-1.4-4.3-1.9-8.6-1.4-13.4s2.4-10.1,4.8-15.8c0.5-1.4,1.4-2.9,1.9-4.3
	l0.5-1c2.9-6.2,4.3-8.2,1.4-17.3c-3.8-12,1.9-19.7,5.8-24.5l1.4-1.9c4.8-6.7,8.2-11,7.7-19.2c0-4.8,0-9.6,0.5-15.3V168
	c0.5-6.7,1-12.5-1-15.3c-1-1.9-1.4-3.4-2.9-5.3c-3.8-4.8-6.7-9.6-6.7-16.3v-2.4c0-8.2-0.5-13.9,12.5-23c5.8-3.8,10.1-5.8,14.9-7.7
	c5.3-1.9,7.7-2.9,8.2-7.2c1-3.4,0-5.3-1-6.7l-1.4-3.4h0.5c-0.5-4.8,0-6.2,4.3-11.5C425.3,61.1,422.4,58.2,418.6,54.4z"/>
</svg>
