<?xml version="1.0" encoding="utf-8"?>
<!-- Generator: Adobe Illustrator 19.2.1, SVG Export Plug-In . SVG Version: 6.00 Build 0)  -->
<svg version="1.1" id="Layer_1" xmlns="http://www.w3.org/2000/svg" xmlns:xlink="http://www.w3.org/1999/xlink" x="0px" y="0px"
	 viewBox="0 0 465 440" style="enable-background:new 0 0 465 440;" xml:space="preserve">
<style type="text/css">
	.st0{fill:#FFFFFF;}
</style>
<path class="st0" d="M374.3,188.5c5.4-1.8,6.6-3.6,7.8-5.4c2.4-3.6,4.2-4.8,10.8-3c4.8,1.2,7.2,3.6,9,5.4c1.8,1.8,3.6,3.6,11.4,3.6
	c3,0,4.8,0,7.2,0c7.2,0,7.2,0,10.8-4.2c1.2-1.8,1.8-4.2,2.4-6c0.6-3,1.8-6,4.8-7.8c1.8-1.2,4.8-1.2,7.8,0c5.4,1.8,8.4,4.2,10.8,6
	s3.6,3,6,3.6h0.6h0.6c0.6-7.2,1.2-19.2,0-24c-1.2-4.2-2.4-11.4-5.4-16.2c-3.6-6.6-6-6.6-6.6-6.6c-4.8,0.6-8.4,0.6-13.2,1.8
	c-4.2,1.2-9.6,3-16.8,6c-4.8,1.8-7.8,4.2-10.8,5.4c-7.2,4.2-10.8,6.6-21,1.2c-4.8-2.4-7.2-5.4-9-7.2l-0.6-0.6c0,0-0.6,0.6-3,1.8
	s-4.2,3-6,5.4c-3,3-6,6.6-10.8,6.6c-3,0-6-1.8-9-5.4c-3.6-4.2-4.8-7.8-5.4-10.8c0-0.6,0-0.6-0.6-1.2c-0.6,0.6-2.4,1.8-4.8,3.6
	c-6,5.4-8.4,10.8-10.8,15c-3,6.6-6,12-15.6,11.4c-7.8-0.6-10.8-5.4-13.8-9.6l-0.6-0.6c-3-4.2-5.4-7.2-10.8-6.6
	c-6,0-9.6,1.2-13.2,2.4c-6,1.8-11.4,3.6-19.2,0l-2.4-1.2c-3.6-1.8-5.4-2.4-6.6-3s-3-0.6-5.4-0.6c-4.8,0-8.4-1.2-12-4.2
	c-3-2.4-6.6-6-10.8-10.2l-0.6-0.6c-1.8-1.8-3-3.6-4.2-5.4l-2.4-3c-0.6-0.6-1.2-1.2-1.8-1.8c-0.6-0.6-0.6-0.6-0.6-0.6s0,0-0.6,0.6
	c-1.2,1.2-3,2.4-4.2,3.6c-3,3-6,6.6-10.2,6.6c-3,0-5.4-1.2-8.4-4.2c-3.6-3.6-4.8-6.6-5.4-9c-1.2-2.4-1.8-4.2-4.8-5.4
	c-3-1.8-10.8-5.4-32.4-11.4c-0.6,0.6-1.2,1.2-2.4,1.8l-1.2,1.2c-1.2,1.2-2.4,1.8-3,2.4c-1.8,1.8-2.4,4.2-3,6.6c0,2.4,0,5.4,1.2,9
	c3,9,3,21,3,31.2c-0.6,22.8-21.6,22.8-33.6,22.8c-12.6,0-16.2,0.6-27,8.4c-4.8,3.6-8.4,7.2-11.4,11.4c-1.8,3-4.8,6-7.2,9.6
	c-1.2,1.2-2.4,3-3.6,4.2c-6,6.6-11.4,13.8-13.2,16.8c-2.4,4.8-7.2,7.8-11.4,10.8c-2.4,1.8-4.8,3.6-6.6,5.4c-2.4,2.4-6,6.6-9,12
	C12,263.5,7.8,271.9,6,275.5c-0.6,1.8,3,7.2,4.2,9c0.6,0.6,1.2,1.8,1.2,2.4c3.6,6,3,14.4,2.4,20.4c-1.8,10.2-6,21-9.6,24
	c-0.6,0.6-1.2,1.2-4.2,5.4c10.8,1.8,19.2,0,25.8-5.4c1.8-1.8,4.8-6,8.4-10.2c6.6-9.6,15-21.6,25.2-25.2c14.4-6,24-8.4,43.2-6.6
	c15,1.8,32.4,1.2,53.4-0.6c15.6-1.8,42.6-5.4,42.6-5.4h0.6h0.6c13.8,1.2,28.8,1.2,37.8-12c4.2-6.6,6-9.6,7.2-12
	c1.8-3.6,3-6,8.4-12.6c9.6-12,13.2-15.6,24.6-19.2l1.8-0.6c10.2-3.6,23.4-7.8,39-8.4c10.2-0.6,22.8-3,25.8-12
	c0.6-1.8,1.2-4.8,1.2-7.2c1.2-7.2,2.4-15,6.6-17.4c1.2-0.6,3.6-1.2,6.6-0.6c4.2,1.2,6,4.2,7.8,6.6
	C367.1,188.5,368.3,190.3,374.3,188.5z"/>
</svg>
