<?xml version="1.0" encoding="utf-8"?>
<!-- Generator: Adobe Illustrator 19.2.1, SVG Export Plug-In . SVG Version: 6.00 Build 0)  -->
<svg version="1.1" id="Layer_1" xmlns="http://www.w3.org/2000/svg" xmlns:xlink="http://www.w3.org/1999/xlink" x="0px" y="0px"
	 viewBox="0 0 465 440" style="enable-background:new 0 0 465 440;" xml:space="preserve">
<style type="text/css">
	.st0{fill:#FFFFFF;}
</style>
<path class="st0" d="M441.3,244.6l0.8,0.4c2.8,1.2,4.4,2,9.2,3.2c2.8,0.4,5.2,0.8,6.8,0c1.2-0.4,2-0.8,2.4-1.2
	c0.4-0.8-0.4-3.2-1.2-4.8v-0.4c-1.6-3.6-3.2-7.2,0.4-13.2c2-3.2,4-6.4,4.8-9.2c1.2-3.6,0-5.2-1.2-6c-1.6-1.6-4-2.4-6.8-2.8
	c-4-0.8-9.2-2-10-8.8c-0.4-2-0.8-3.6-1.2-5.2c-1.2-3.6-2-6.8,0-13.2c1.2-3.2,2.8-5.2,4-7.2c1.6-2.4,2.4-3.2,0.8-7.2
	c-1.2-2.8-1.6-2.8-2.8-3.2c-0.8,0-2-0.4-3.6-1.2c-4-2.4-5.6-6.4-6.4-9.2V155c0-0.4,0-0.8,0-0.8c-0.4,0.4-0.4,0.4-0.8,0.8l-1.6-1.2
	l1.2,1.6c-2,2-4.4,4.4-10.8,3.6c-5.2-0.4-8-4.4-9.6-6.8c-0.8-0.8-1.2-1.6-1.6-1.6c0,0,0,0-0.4,0c-2.4,1.2-4,2-6,2.8
	c-4,1.2-5.6,2-6.4,5.6c-0.4,1.6-0.4,2.8-0.8,4.4c-0.4,4.4-1.2,9.2-8.4,9.2c-0.4,0-0.4,0-0.8,0c-6.8-0.4-8.8-3.6-10.4-10.8
	c-1.2-4-2-6.8-3.2-9.2c-2-4-4.4-7.2-8-9.2c-6-4-6.8-8-7.2-11.2c-0.4-2.8-0.8-4.4-4-6.8c-1.6-1.2-2.8-1.2-4.8-1.6
	c-2.8-0.4-6.4-1.2-9.6-5.6c-3.2-4.8-2-7.6-1.2-10c0.8-1.6,0.4-3.2-0.4-5.2c-0.4-0.8-0.4-2-0.8-3.2c0,0,0-0.4,0-0.8v-0.4
	c0-0.4,0-0.8,0-0.8s-0.4,0-0.8,0c-3.6,0.8-6,2-8.4,3.2c-1.6,0.8-3.2,1.6-5.2,2.4c-5.2,2-6.4,2.4-13.2,1.6c-2.4-0.4-4.8-0.8-8-1.6
	l-1.2-0.4c-4.4-1.2-9.6-2.4-14.4-2.8s-7.2-0.8-10-1.6s-4.8-2-9.6-4.4c-6-3.2-8-6-10.4-8.8c-1.2-1.6-2.4-3.2-4.8-5.2
	c-2-1.6-3.2-3.2-4-4c-2.4-2.4-3.2-3.2-5.6-3.6c-2-0.4-7.6-1.6-24-4c-1.6,1.2-3.6,2-6,2.4c-4,0.8-9.6,0.4-14,0
	c-5.2-0.4-8.8,2-13.6,5.2c-3.2,2.4-7.2,4.8-12,7.2c-6,3.2-10.8,6-14.8,9.2c-3.2,2.4-5.6,5.2-7.6,7.6c-2,2.8-3.6,6.8-4.4,10.4
	c-0.8,4-0.8,7.2,0,9.6c1.2,4,1.6,8,1.2,12.8c-0.4,3.2-0.8,6-1.2,8.4l-0.4,1.2c0,0.8-0.4,1.2-0.8,2c-1.2,2-3.2,3.6-6,4.4
	c-2,0.4-4.8,0.4-7.6-0.4c-2.4-0.4-4.4-1.2-6-2c-1.6-0.8-3.6-1.6-5.6-2l-0.8-0.4c-4.8-1.6-10-3.2-14.4-10c-1.6-2.8-4-3.6-6-4
	c0,1.2,0,2.4,0,3.6c-0.8,6.4-4.4,10.4-10,11.6c-3.2,0.4-6.4,0.4-10-0.4c-3.2-0.8-5.2,0-8,0.8c-1.2,0.4-2.4,0.8-4,0.8
	c-2,0.4-4.4,0.8-6,1.6c-0.8,0.4-1.2,0.4-1.2,0.8c0,0.4,0,0.8,0,1.6c0.4,0.8,2,1.2,4.8,1.2H68c3.2,0,6.8-0.4,10.8,0.8
	c0.8,0.4,1.2,0.4,2,0.8c5.2,1.6,9.6,3.2,10.8,7.2c0.8,2.8-0.8,6-4.4,9.6c-5.2,5.6-10.4,8.4-17.2,12l-1.2,0.4
	c-3.2,2-6.4,3.6-10.4,6.4c-10.4,6.8-8.8,10.4-3.6,22.8c0.4,1.2,1.2,2.8,1.6,4l1.6,3.6c2.4,5.2,2.8,9.6,2,14s-3.2,8-6.4,13.6
	c-4.4,7.2-6,8-9.6,9.2c-1.6,0.4-3.6,1.2-7.2,3.6l-1.6,1.2c-4,2.4-6,3.6-8,5.2c-1.6,1.2-3.6,2.8-6.8,5.2l-3.6,2.8
	c-5.2,4.4-10,7.6-14,8.8c0,0,0,0-0.4,0l1.6,6.4c0.4,0.8,3.6,14,5.6,22.4c1.6,8.4-1.2,12.8-4.8,18.8c-1.2,1.6-2,3.2-2.8,4.8
	c-2,3.2-2.4,6-1.6,8.4c0.8,2.8,3.2,6.4,6,10c2,2.4,3.2,4,4.4,5.2h0.4c2.8,0.4,8.4,0.8,10,0.8c2,0,6.4,1.2,11.6,3.6
	c4,2,7.2,4.4,9.6,6.8c0.8,0.8,1.2,1.2,1.2,1.2c0.4,0,1.2-1.6,1.6-2.4c2-3.2,5.2-8,12-9.6c8-1.2,16,3.2,18.4,10
	c0.4,1.2,0.8,1.6,4,1.2h0.8c4.4-0.4,9.6-1.2,11.6-2c0.4,0,0.8-0.4,1.2-0.4h0.4c4-1.2,8-2.8,19.2-1.2c6.8,0.8,9.6,1.6,12,2.4h0.8
	c2,0.4,3.6,0.8,6.8,1.2c3.2,0.4,4.8,0,6.4,0h0.8c1.6,0,3.2,0,5.6,0.4c3.6-2.8,11.2-7.2,19.6-7.6c4.4,0,6.4-2,8.8-4.4l0.4-0.4
	c2.4-2,5.2-4.8,10-5.2c6.8-0.8,11.6,0.8,16.4,2.4c0.4,0,0.8,0.4,1.6,0.4c1.2,0.4,2,0.8,3.2,0.8l0.8,0.4c0,0,0.8,0.4,1.2,0.4
	s0.8,0.4,1.2,0.4c14.4,3.6,16.4,2.8,16.4,2c0.4-1.6,0-3.6-0.4-6l-0.4-0.8c-1.2-4-2.4-8.4,0-13.2c0.4-1.2,1.2-2.4,1.6-3.6
	c2.8-5.6,5.2-10,2.4-11.6c-5.2-3.2-5.6-6.4-6-10c-0.4-1.6-0.4-2.4-1.2-3.6c-1.2-1.2-2.4-2-4-2.4h-0.4c-2-0.8-4.8-2-6.4-4.8
	c-2.4-4.8,1.2-8,4-10.4l0.4-0.4c1.6-1.2,2.8-2.8,3.2-4c1.2-2.4-0.4-4.8-1.6-7.2c-0.4-0.4-0.4-0.8-0.8-1.2c0-0.4-0.4-0.8-0.4-0.8
	l-0.4-0.4c-0.4-0.4-0.4-0.8-0.4-1.2c-2.8-5.2-4-11.2,8.4-19.6l2.8-2c9.2-6.4,9.6-6.4,20.4-7.6c5.6-0.4,12.4-1.2,29.2,1.6l1.6,0.4
	c8,1.6,12,2,14.4,2c4.4,0,12.4-3.6,16.4-6c5.2-3.2,9.2-5.6,17.6,0.4c6.4,4.8,11.2,3.6,15.2,2.8c1.2-0.4,2.4-0.4,3.6-0.4
	c3.2,0,6.4,1.2,9.6,3.6c2.4,2,4.8,5.2,7.6,8.8c1.6,2.4,3.2,3.6,4,4.4c2.8,2.4,4.4,4.4,6,10.8c1.2,5.2,0,8.8-1.2,11.6v0.4
	c-1.2,2.8-0.8,2.8,0,3.6c0.8,0.4,0.8,0.4,2.4-0.4c2-1.2,5.2-2.8,12.4-0.4c8.4,2.8,8.4,2.8,12,2c1.6-0.4,3.2-0.8,5.2-1.2
	c3.6-0.8,7.2-0.8,10-0.8h0.4c2.8,0,7.2,0,7.6-0.8c0-2-0.8-3.6-1.6-5.2c-1.6-3.2-2-5.2-1.2-7.2c0.8-2.4,3.6-3.6,6.8-4.8l1.2-0.4
	c0.8-0.4,1.6-0.8,2-0.8c-0.4-0.4-1.2-0.8-2.4-1.6c-4-2.4-8.8-4.8-7.2-14c0.4-1.6,0.8-3.2,0.8-4.8c0.4-3.2,0.8-5.2,1.6-7.2
	c0.8-2,2-3.6,3.6-4.4c2-0.8,4.4-0.8,8,0.8C437.7,243,439.7,243.8,441.3,244.6z"/>
</svg>
