<?xml version="1.0" encoding="utf-8"?>
<!-- Generator: Adobe Illustrator 19.2.1, SVG Export Plug-In . SVG Version: 6.00 Build 0)  -->
<svg version="1.1" id="Layer_1" xmlns="http://www.w3.org/2000/svg" xmlns:xlink="http://www.w3.org/1999/xlink" x="0px" y="0px"
	 viewBox="0 0 465 440" style="enable-background:new 0 0 465 440;" xml:space="preserve">
<style type="text/css">
	.st0{fill:#FFFFFF;}
</style>
<path class="st0" d="M359.5,265.6c0.8-1.7,1.3-5.9,1.3-10.1c0.4-9.2,1.3-19.7,7.5-21.8c2.1-0.8,4.2-1.7,5.9-2.5
	c3.8-2.1,7.5-3.8,14.3-2.9c-0.4-2.5-1.3-5-2.1-7.1l-0.8-2.1c-3.8-8.8-3.8-8.8-11.7-8c-6.3,0.4-10.5,0.4-13.8-0.8
	c-7.1-2.9-5.9-8.8-5.5-12.6c0-0.8,0.4-2.1,0.4-2.9c0-1.3,0-1.7-0.4-2.1c-0.4-0.4-1.3-1.3-4.6-1.7c-7.5-0.8-12.2-2.1-15.9-3.4
	c-4.6-2.1-7.5-5-8.4-8.8c0-0.8-0.4-1.3-0.4-2.1c0-0.4,0-0.8-0.4-1.7c-0.8-4.6-2.1-10.5-5.5-12.2c-2.9-1.7-5.9-3.4-8.4-5.5
	c-3.4-2.5-5.5-6.3-7.5-10.1c-2.9-5.5-5-8.4-8.4-8.4c-10.5,0-13.4-10.1-15.9-17.2v-0.4c-0.4-1.7-1.3-3.8-2.1-5.9l-0.4-0.8
	c-2.5-6.7-5.5-14.7-3.8-19.7c0.8-2.9,1.7-8.4,2.1-13.8c0.4-4.2,0-8-1.3-10.5l-0.4-0.8c-0.4-1.3-0.8-2.5-1.3-4.2v-0.4
	c-2.1-6.3-4.2-13-10.1-13.8c-0.8,0-2.1,0-3.8-0.4c-10.5-0.4-19.7-1.3-21.8-6.3c-0.8-2.5,0-5,2.5-8c1.3-1.3,2.5-2.5,2.5-7.1
	c0.8-7.1,0-8.8-1.3-11.7c-0.4-0.4-0.4-0.8-0.8-1.7l-0.4-0.8c-1.3-2.9-1.3-2.9-5-2.9H233c-10.1,0.8-12.6-3.4-13-7.1
	c0-0.8-0.8-1.7-1.3-2.9c-1.3,0.8-2.9,1.7-5,1.7c-2.9,0-5.9-0.4-9.2-1.3l-1.3-0.4c-3.4-0.8-6.7-1.7-10.1-1.7c-2.1,0-3.4,0-5-0.4
	c-4.6-0.4-5.5-0.4-6.3,2.5l0,0h0.4c1.7,0,4.2,0.4,5.9,2.1c1.3,1.3,1.7,3.4,1.3,5.5c-0.4,3.4-2.1,6.7-4.6,10.1
	c-3.4,3.8-7.5,6.7-10.1,8l-1.7,0.8c-5,2.5-13,6.7-13.8,13.4c-0.4,3.4-0.4,5.5-0.4,8c0,4.6,0,8.4-3.8,12.6c-1.3,1.3-2.1,3.4-2.5,5.5
	V69c-3.8,9.6-6.3,11.3-15.9,10.9c-4.6-0.4-6.7-0.4-9.6,3.4c-5.9,8-9.2,8-14.7,7.1h-0.8c-0.4,0-2.5,0.4-4.2,1.3l-1.3,0.4
	c-3.8,1.3-8.4,3.4-13.4,2.5c-1.7-0.4-2.9-0.4-4.2-0.8L87,93.3c-1.3-0.4-2.1,0-2.1,0c-0.8,0.8,0.4,6.7,1.3,9.6
	c0.4,1.7,0.8,3.4,1.3,4.6c0.4,2.5,0.8,4.6,0.8,7.1c0,0.4,0,1.3,0,1.7c2.1,0,4.2,1.7,5.5,4.6c0.4,0.8,0.4,1.7,0.8,2.5
	c0.8,2.1,1.7,4.6,3.4,5.9c0.4,0.4,0.8,0.4,1.7,0.4c2.9,0.4,5.5,1.3,8.4,8c2.5,7.5,0.4,10.5-2.1,14.3c-1.3,1.7-2.5,3.4-3.4,5.5
	c-1.7,4.6-0.8,6.7,0,9.2c0.4,2.1,1.3,3.8,1.3,6.7c0,1.3,1.3,2.1,5,2.9c2.9,0.8,7.1,1.7,10.5,5c3.8,3.4,5,8,3.4,13.4
	c-1.3,3.8-3.4,7.5-5.5,10.9l-0.4,0.4c-1.7,2.9-1.3,4.6,0,7.1c2.5,5,2.9,8.8,1.3,11.7c-1.3,2.5-3.8,4.2-7.5,5
	c-2.9,0.8-6.7,0.4-10.5-0.4c-6.3-1.3-8.8-2.5-12.2-4.2l-0.4-0.4c-1.7-0.8-3.4-1.7-5.5-2.5s-2.5-0.8-2.5-0.8v0.4
	c-0.4,0.8-0.8,2.5-0.8,3.8l-0.4,2.1c0,1.7-0.4,3.4-0.8,5c-0.8,4.6,0.8,5.5,3.4,6.7c2.1,0.8,3.8,2.1,5.5,4.2c1.7,1.7,2.1,3.4,2.1,5
	c0,1.3-0.8,2.5-2.1,3.8c-1.3,1.3-3.4,2.1-5.5,2.9c-0.4,0-1.3,0.4-1.7,0.4c-0.8,0.4-2.1,0.8-2.5,0.8c0,0,0,0.4,0.8,1.3
	c1.3,2.1,2.5,5,2.5,8.4c0,0,0,0,0,0.4c4.2,2.5,10.1,8,14.3,12.2c2.9,2.9,4.2,5,5,6.7l0.4,0.8c0.8,1.3,1.3,2.9,2.9,4.6
	c2.9,3.8,3.4,4.6,3.8,7.1v0.4c0.4,0.8,0.4,2.1,1.3,3.8c0.4,1.3,0.8,1.7,0.8,1.7s0.4,0,0.4-0.4c1.3-0.4,3.4-0.8,6.3,0
	c2.5,1.3,3.8,3.4,5.9,6.3c1.3,2.1,2.1,2.5,2.9,2.9c0.4,0,1.3-1.7,2.1-1.7h-0.4l5.5-3.8c2.5-1.7,5-0.4,7.1-0.4h0.8l-0.4,0.8
	c2.5,1.7,5,5,7.5,8c2.5,3.4,5,6.7,8,8c1.7,1.3,4.2,1.3,6.3,1.7c2.9,0.4,5.9,0.4,7.5,3.4c2.1,3.4,1.3,10.1-3.4,22.2l-0.4,0.8
	c-2.9,7.5-4.6,8.4-10.1,10.1c-2.1,0.8-4.2,1.3-5.9,2.1c-0.8,0.4-2.1,0.8-2.9,1.3c-2.1,0.8-4.2,1.7-5.9,2.1c-2.5,0.8-5.5,1.7-5.9,2.5
	c-0.4,0.4,0,1.3,0.4,2.5c2.5,5.5,0.8,9.6,0,12.2c0,0.4-0.4,1.7-0.4,1.7l0,0c0,0,0.4,0,1.7,0.4c3.4,0.8,5.5,1.7,7.5,3.4
	c2.1,1.7,3.8,4.2,5.5,8.4c1.3,2.9,3.8,3.8,7.1,4.2c5,0.8,11.3,2.1,11.7,10.5c0.4,4.6-1.3,8.4-5,12.2c-2.5,2.5-5.9,6.3-5,12.2
	c0,0.8,0.4,1.7,0.4,2.5l0,0c3.8-2.9,8-5.9,12.6-7.5c9.2-3.4,12.2-3.4,20.5-1.7c6.3,1.3,8-1.7,10.5-5.5l0.4-0.8
	c1.3-1.7,2.1-4.2,3.8-7.1c2.5-5.5,5-11.7,8.8-15.1c0.8-0.8,2.1-2.1,2.5-2.9c3.4-3.8,6.3-7.1,17.6-6.7c7.1,0,10.9-0.4,14.3-1.3
	c2.9-0.4,5.5-0.8,9.6-0.8c2.9,0,5.5-0.8,8-1.3c4.6-0.8,8.8-1.7,15.1,0c1.7,0.4,2.9,0.8,4.6,1.3c5.9,1.7,10.1,2.5,11.7,1.3
	c2.9-2.1,6.7-8.8,6.3-10.9c0-0.8-1.3-2.5-2.1-3.8c-2.1-3.8-5-8.8-3.8-12.6c0.4-1.7,1.3-2.9,2.9-3.8c5-2.9,9.6-9.6,10.5-12.2
	c-0.8-0.4-1.7-0.8-2.5-1.3c-4.2-1.7-9.6-3.8-10.5-7.5c-0.4-0.8-0.4-2.5,0.8-4.2c1.3-2.1,1.3-8,1.7-13.8c0-6.7,0-13.8,2.1-19.7
	c3.8-11.3,8.4-15.1,29.3-24.7c5-2.1,8.8-3.8,12.2-5.5C354.5,270.2,357.9,268.9,359.5,265.6z"/>
</svg>
