<?xml version="1.0" encoding="utf-8"?>
<!-- Generator: Adobe Illustrator 19.2.1, SVG Export Plug-In . SVG Version: 6.00 Build 0)  -->
<svg version="1.1" id="Layer_1" xmlns="http://www.w3.org/2000/svg" xmlns:xlink="http://www.w3.org/1999/xlink" x="0px" y="0px"
	 viewBox="0 0 465 440" style="enable-background:new 0 0 465 440;" xml:space="preserve">
<style type="text/css">
	.st0{fill:#FFFFFF;}
</style>
<path class="st0" d="M398.9,210.8c-2.8-5-5-8.4-7.3-11.2c-1.7-2.2-2.8-3.9-4.5-5.6c-1.7-1.7-3.4-3.4-5-6.1
	c-1.7-2.8-6.1-10.1-8.9-8.9c-5,2.2-9.5,5-14,8.4c-6.1,3.9-10.6,7.3-15.1,5.6c-3.9-1.7-5.6-6.7-6.7-16.8c0-1.7,0-3.4,0-5V170
	c0-3.4,0-5-0.6-5.6c-0.6,0.6-1.1,1.1-1.1,2.2c-1.7,2.8-5,7.8-12.3,7.8c-6.7-0.6-8.9-11.7-11.2-24l-0.6-2.8c0-1.1-0.6-1.1-5.6-1.7h-1
	c-1.7-0.6-3.9-1.1-6.1-2.2c-2.2-1.1-5.6-3.4-7.8-7.3c-2.8-3.4-3.4-7.8-3.4-11.7c0.6-2.2,1.1-3.9,2.2-6.1l0.6-0.6
	c1.1-2.2,2.2-3.9,3.4-5.6c0.6-1.1,1.1-2.2,1.7-2.8c0.6-0.6,0.6-1.1,1.1-1.7h-0.6c-6.7-1.7-17.9-3.9-17.9-14.5
	c0-3.9,1.7-7.8,3.4-11.2l0.6-1.1c2.8-4.5,3.9-7.8,2.8-9.5c-1.7-2.2-3.4-3.9-4.5-5c-6.1-6.1-6.1-9.5-5.6-16.2v-3.9c0-5,0-11.2-1.1-14
	c-1.7-2.8-2.8-6.1-3.9-8.9s-2.8-6.1-3.9-8.9c-0.6-1.7-1.7-4.5-2.2-6.7c-0.6,0-1.1,0-1.7,0c-4.5-1.1-10.1-2.2-15.6-4.5l-1.1-0.6
	c-7.3-2.2-11.7-3.4-13.4-2.8s-2.8,4.5-5,10.1c-0.6,1.7-1.1,3.9-2.2,6.1c-1.7,4.5-3.4,8.9-5,12.9c-2.8,6.7-7.3,10.1-11.2,12.9
	c-2.8,2.2-3.9,2.8-3.9,4.5c0,3.4,0,5,1.1,6.7c0.6,1.7,2.2,3.4,4.5,6.1l1.1,1.1c7.3,7.8,10.1,13.4,7.8,17.9c-2.8,6.7-14,6.1-27.9,6.1
	h-5.6c-12.3,0.6-29.6,1.1-34.1,3.4c-5.6,2.8-15.1,2.2-24.6,1.7l-7-0.6c-12.9-1.1-12.9-1.1-19,5c-1.7,1.7-3.4,3.4-5.6,5.6l-0.6,0.6
	c-16.8,15.1-21.2,21.2-21.2,23.5c-1.1,5.6-0.6,10.6,0,14.5c0.6,6.7,0.6,12.9-2.2,20.1c-1.1,2.8-1.7,5-2.2,7.3l-0.6,2.2
	c-0.6,2.8-1.1,5-2.8,7.3l0.6,0.6c1.7,1.1,3.9,2.8,5,3.9c2.2,1.7,6.7,5.6,11.2,9.5c7.8,7.3,12.3,12.9,19,21.2l1.1,1.7
	c5,6.1,10.1,12.3,12.3,15.1c3.4,3.4,3.4,6.1,3.9,8.9c0,2.2,0,2.8,2.2,3.9c3.4,1.7,4.5,1.1,7.8-0.6l1.1-0.6
	c7.3-3.9,15.1-8.4,23.5,1.1c5,5,3.4,14.5,2.2,22.4c-0.6,4.5-1.1,8.9-0.6,10.6c1.7,5,8.9,5,12.3,5c3.4-0.6,6.1-0.6,7.8-1.1
	c8.9-1.7,11.7-1.1,22.4,13.4c3.4,5,7.3,10.1,12.9,14.5c10.1,7.8,7.3,17.9,5.6,26.3v1.1c-0.6,2.8-2.2,7.8-1.1,9.5
	c1.1,2.2,2.8,3.9,3.9,5.6c3.4,5,6.1,8.4,6.7,19c0,5.6-2.2,11.7-7.3,17.9c5.6,5.6,7.8,11.2,10.1,16.2c1.7,5,3.4,8.9,7.8,11.2
	c5,2.8,9.5,9.5,15.1,16.2c3.4,4.5,6.7,8.9,10.1,12.3c1.7-2.8,3.9-5.6,5.6-7.3c1.1-1.1,3.9-8.4,5-16.2c1.1-5.6,0.6-10.1-0.6-12.3
	c-0.6-0.6-1.1-1.7-1.7-2.2c-3.4-5-7.3-10.6-4.5-17.3c1.1-2.8,5.6-11.2,10.1-19.6c3.4-5.6,6.7-10.1,10.1-12.9c1.7-1.7,4.5-3.4,6.7-5
	c3.4-2.2,7.3-5,7.8-6.7c2.2-3.9,7.8-10.6,13.4-17.9c2.2-2.2,3.9-5,6.1-7.8l3.9-4.5c3.4-4.5,7.8-8.9,12.3-12.3
	c12.4-8.8,17.5-9.9,31.4-9.9c13.4,0,21.2-0.6,21.2-11.2c0-7.3,0.6-18.4-2.2-25.7c-1.7-4.5-2.2-8.9-1.7-12.9c0.6-3.9,2.2-7.8,5-11.2
	c1.7-1.7,3.4-3.4,5.6-5C397.8,215.9,400,213.6,398.9,210.8z"/>
</svg>
