<?xml version="1.0" encoding="utf-8"?>
<!-- Generator: Adobe Illustrator 19.2.1, SVG Export Plug-In . SVG Version: 6.00 Build 0)  -->
<svg version="1.1" id="Layer_1" xmlns="http://www.w3.org/2000/svg" xmlns:xlink="http://www.w3.org/1999/xlink" x="0px" y="0px"
	 viewBox="0 0 465 440" style="enable-background:new 0 0 465 440;" xml:space="preserve">
<style type="text/css">
	.st0{fill:#FFFFFF;}
</style>
<g>
	<path class="st0" d="M449.8,219.6L449.8,219.6L449.8,219.6z"/>
	<path class="st0" d="M464,124.5c0-0.5,0-0.5-1-1.5c-2.5-2-5.1-4-5.6-8.6c-0.5-2.5,0-5.6,1-9.6c-3.5-3-6.1-6.6-8.6-10.1
		c-3.5-4.6-7.1-9.1-11.1-10.6c-2.5-0.5-4.6-1-6.6-1.5c-5.6-1-10.6-2.5-14.7-6.1c-4.6-4-6.6-7.6-8.6-11.1c-0.5-1-1-1.5-1.5-2.5
		s-2.5-2-4-3c-3.5-2.5-8.6-5.1-8.6-10.6c0-2,0-4.6,0.5-6.6c0.5-8.6,1-14.7-4-15.7c-9.6-2.5-19.2-7.6-20.2-13.7c0-0.5,0-1,0-1.5
		c0-2.5-0.5-6.1-2.5-7.6c-0.5,0-1-1-3-0.5c-1.5,0.5-3,0.5-4.6,0.5c-5.6,0.5-9.1,1-11.6,5.1c-4,6.6-12.6,17.7-24.8,17.7
		c-3,0-5.6-0.5-7.6-0.5c-5.1-0.5-8.6-1-22.2,4c-12.6,5.1-15.2,8.1-18.2,11.6c-1.5,1.5-3,3.5-6.1,5.6c-2.5,1.5-5.1,4-7.6,6.1
		c-4.6,4.6-9.1,8.6-13.1,8.6l0,0c-1.5,0-3-0.5-4-1.5c-2-2-3.5-5.1-5.1-8.1c-2-4-4-7.6-7.1-9.1c-5.6-2-16.7,2-18.7,4
		c-5.6,4-19.7-10.1-24.8-16.7c-2.5-3-3.5-5.6-5.1-7.6c-2.5-4.6-3.5-6.1-9.1-5.6h-2.5c-11.6,0.5-36.4,1.5-44.5,11.6
		c-1,1.5-2.5,2.5-3.5,3.5c-1,12.6-5.6,19.7-13.1,20.7c-6.6,1-13.1,0-18.7-0.5H93c-7.6-0.5-13.7-1.5-19.2,2
		c-4.6,3-13.7,8.1-22.2,13.7L41,75.4c-6.6,4-12.1,7.1-14.2,8.6c-3,2-6.6,4-11.6,6.1c-1.5,0.5-3,1-4.6,1.5l0,0
		c1.5,11.1,1.5,23.8-7.6,36.4c-2,2.5-2,3-1.5,4.6c0.5,1,0.5,2.5,0.5,4.6c0,0.5,0.5,1.5,2,3.5c2,2.5,5.6,5.6,7.6,7.1
		c1,0.5,1.5,0.5,3,0.5h0.5c2,0,5.1-0.5,9.6,0.5c5.1,1.5,10.6,3.5,14.2,5.6c4,2,9.1,5.1,12.6,8.1c4,3.5,5.6,10.1,7.1,16.7
		c1,3.5,2.5,10.6,4.6,13.1c1,1,1.5,1,5.6-0.5c3.5-1.5,8.6-3,15.7-2c13.1,2,11.6,13.7,11.1,18.7c0,1-0.5,2-0.5,3c0,0.5,0,1.5-0.5,2
		l-0.5,1.5c-0.5,2-1,4-1,6.1c-0.5,11.1-7.1,14.7-12.6,18.2c-5.6,3.5-5.6,3.5-2,10.1c6.6,12.6,7.6,20.2-6.1,29.8
		c-5.6,4-14.2,8.1-21.2,8.1c-5.6,0-12.1,0-17.2,0.5c-5.6,1-6.6,1.5-7.1,2s-0.5,3.5,0.5,8.1v1.5c0.5,3,0.5,6.1,0.5,8.6
		c9.6,1.5,23.8,3.5,28.3,4.6c5.6,1,7.6,3.5,11.1,7.1l0.5,0.5c1,1,2.5,2.5,4.6,4c2.5,2.5,4.6,5.1,6.6,7.1c2.5,3,5.1,5.6,10.6,9.1
		c5.1,3,7.6,4,10.1,5.1c2.5,1,5.1,1,10.1,1.5h1c5.6,0.5,11.6,2,16.7,3l4.6,1c3.5,1,6.6,1.5,9.1,1.5c6.1,1,7.1,0.5,11.6-1l0.5-0.5
		c1-0.5,2.5-1,3.5-1.5c0.5-0.5,1-0.5,2-1c3.5-2,7.6-4,13.1-5.1c1,0,2-0.5,3-0.5c6.1,0,7.6,4,8.6,8.1c0,0.5,0,1,0,1.5v0.5
		c0,1.5,0.5,3,1,4c1,3,1.5,6.6-0.5,11.1c-0.5,1.5-1,2,0.5,4c2,2.5,4,3,7.1,3.5c2.5,0.5,5.6,1,8.6,3c7.1,4.6,8.1,9.6,8.6,13.7
		c0.5,3.5,1,6.1,5.6,9.1c6.1,4,10.1,8.6,13.1,15.2c2,4,3,8.1,4.6,13.1c1.5,6.1,2,6.6,5.1,6.6c2.5,0,2.5,0,3-4c0-1.5,0-3.5,0.5-5.6
		c2-9.1,7.6-11.6,13.1-13.7l1.5-0.5c2-0.5,4-1.5,5.6-2.5c7.6-4.6,11.6,0.5,14.2,4.6c2,2.5,3.5,4.6,6.1,5.1c4,0.5,5.1-0.5,6.6-2
		l0.5-0.5c0-1-0.5-2.5-0.5-3.5c-0.5-3-0.5-6.1-1.5-9.1c-0.5-1.5-1-3.5-1-5.6c-2-8.1-4-16.2,0.5-20.7c2.5-2.5,6.1-3,11.1-2
		c1.5,0.5,3.5,1,5.6,1c4,0.5,8.6-1,12.1-2.5s7.1-3,11.1-2h0.5c3.5,1,4.6,1,8.6-4.6c6.6-9.1,12.6-8.6,19.2-7.6
		c7.1,0.5,7.1,0.5,10.1-7.1l0.5-1c1-3,2.5-6.6,5.1-9.1c2-2.5,2-5.1,2-9.1c0-3,0-6.6,0.5-10.6c2-12.6,14.7-19.2,21.7-22.8
		c0,0,0.5,0,0.5-0.5c0,0,0.5,0,1-0.5c2-1,6.6-3.5,9.6-7.6c2-2.5,3.5-4.6,3.5-7.1c-0.5,0-1,0-1.5,0c-2-0.5-4.6-0.5-6.6-3
		c-1-2-1.5-4.6-0.5-7.6c2.5-11.1,9.6-10.6,17.2-10.1c1.5,0,3.5,0.5,5.1,0.5c5.1,0,9.1,1,13.7,2l1.5,0.5c3.5,1,7.1,1.5,9.6,1.5
		c1.5,0,3-3.5,4-7.6c1.5-3.5,2.5-7.1,4-10.6c2-4-0.5-7.6-4.6-12.1l-0.5-0.5c-3-3.5-5.6-7.1-6.1-11.6c0-5.6,1-8.1,2.5-10.6l0.5-0.5
		c1-1.5,2-3.5,3-7.1c1-3,1.5-5.1,2-6.6c1.5-4.6,2-6.6,2-11.6c-0.5-3,0-6.1,0.5-9.1l0.5-2.5c1-6.6,2-13.1,0-19.2
		c-2.5-8.6-1.5-11.1,0-14.7c0,0,0-0.5,0.5-1.5s1-2.5,1.5-4.6c1-6.1,3-8.6,4.6-11.1C462.5,128,463,127,464,124.5z"/>
</g>
</svg>
