<?xml version="1.0" encoding="utf-8"?>
<!-- Generator: Adobe Illustrator 19.2.1, SVG Export Plug-In . SVG Version: 6.00 Build 0)  -->
<svg version="1.1" id="Layer_1" xmlns="http://www.w3.org/2000/svg" xmlns:xlink="http://www.w3.org/1999/xlink" x="0px" y="0px"
	 viewBox="0 0 465 440" style="enable-background:new 0 0 465 440;" xml:space="preserve">
<style type="text/css">
	.st0{fill:#FFFFFF;}
</style>
<g>
	<path class="st0" d="M123.5,243.5L123.5,243.5L123.5,243.5z"/>
	<path class="st0" d="M291,316.9c2.4-1.4,3.9-2.9,5.8-4.3l1-0.5c4.3-4.3,9.7-9.7,20.8-8.2c5.8,1,9.7,2.4,13.5,4.3
		c3.9,1.9,6.3,2.4,8.2,1.4c3.4-1.9,6.8-4.3,8.7-6.8c1.9-2.4,2.4-5.8,1-9.2l-1-2.9c-1.4-4.3-2.4-7.2-2.9-10.1c-1-3.4,0-7.2-0.5-13
		l1-1v-8.2c0-5.3-1.9-5.8-3.4-6.3c-1.9-1-5.8-2.4-7.2-8.2c-1.9-4.8-1.4-11.6,2.4-20.3c4.3-11.1,3.9-16.9,3.4-21.2
		c0-1.9-0.5-3.9-0.5-5.3c0.5-4.8,3.4-8.2,5.8-11.1c1-1.4,3.4-3.4,3.4-4.3c0-1.4,0-3.4-0.5-4.3c-1-1.4-3.9-2.4-8.2-2.4l0,0
		c-6.8,0-11.6-1.4-15.5-3.9s-5.8-6.3-7.2-9.2l-0.5-1c-0.5-0.5-1-1.4-1-2.4c-3.4-6.8-10.1-19.3-3.4-29.9c2.9-5.3,6.8-8.2,9.7-10.6
		l0.5-0.5c2.9-1.9,3.4-2.9,2.9-3.4c-1-4.8-0.5-8.7-0.5-12.6v-1.9c0-1.4,0.5-3.4,0-4.8c0-1.9,0-3.9,0.5-6.8c0.5-2.4,0.5-4.8,0.5-6.8
		c0-1.4-0.5-2.4-1-2.9s-1.4-0.5-1.9-0.5c-6.3,0-10.6,0-14-1c-3.9-1-6.8-2.9-10.1-6.3c-4.3-3.9-6.8-7.7-8.7-11.1
		c-1-1.9-1.9-3.4-2.9-4.3c-0.5-1-1.9-1.9-3.4-2.4l-0.5-0.5c-3.9-2.4-9.2-5.3-10.6-12.6l-0.5-2.4c-0.5-2.4-1-3.9-0.5-5.8
		c0.5-1.9,1-3.4,2.4-6.3l1-1.4c1-1.4,1.4-3.4,1-5.3c0-1.9-1-3.9-1.4-4.3l-4.8-5.3c-1,0-1.9,0-3.4,0c-4.3,0-6.3-2.9-8.2-5.3L259.6,3
		c-1-1.4-1.9-2.4-3.9-2.9c-1.4-0.5-2.9,1-5.8,3.9l-1,1c-1.9,1.9-3.9,4.3-7.2,6.3c-4.3,2.4-8.7,2.9-12.6,2.9h-1c-1.9,0-4.3,0-5.3,1
		c-2.4,1.4-5.3,3.4-7.7,6.3c-2.9,3.4-5.8,7.2-8.2,11.6c-4.3,7.2-10.6,12.1-16.9,16.9c-3.4,2.4-6.3,4.8-8.2,6.8
		c-3.9,5.8-9.2,6.8-14,8.2c-1.9,0.5-3.4,1-5.3,1.4c-1.4,0.5-3.4,1.9-5.8,3.9c-2.9,2.4-3.9,4.3-4.8,5.8c-2.4,3.4-3.9,4.8-12.1,6.8
		c-1,6.8-2.4,12.6-3.9,15.9c0,0.5-0.5,1.4-1,1.9c-1.9,3.9-3.9,9.2-5.3,15.9c-1.4,5.8-2.4,12.1-2.4,18.3c-0.5,8.7,1.4,21.2,3.4,33.8
		l0.5,3.9c1,6.8,1.9,12.6,1.9,16.4c0,9.7-5.3,15.5-10.1,20.3l-1,1.4c-1,1.4-2.4,2.9-3.4,3.9c-2.4,3.4,3.4,20.8,6.3,29v0.5
		c1.4,4.3,2.4,7.7,2.9,10.1c0.5,3.4,0,8.2-1.4,15c-1.4,6.3-2.9,9.7-4.3,12.6c-1.9,4.3-2.9,6.8-2.4,18.8v2.4c0.5,5.3,0.5,10.1,0,13
		c-0.5,3.4-1.4,6.3-2.4,8.7l-0.5,1c-1,3.4-1.9,6.8-2.4,11.1c-0.5,4.8,1.9,19.3,3.9,29.9l0.5,4.3c1,5.8,1.4,8.7,0.5,15.9l-0.5,2.4
		c-0.5,1.9-0.5,4.8-1,8.2c-0.5,3.9,1.9,6.8,5.3,10.1c1.9,1.9,4.8,4.8,6.3,8.2c1.9,4.3,2.4,8.7,2.4,12.6l0,0c3.4-1,7.7-2.4,13.5-2.4
		c0.5,0,0.5,0,1,0c8.7,0,12.1,5.3,15,9.2l0.5,0.5c1.9,2.4,2.9,3.9,5.3,4.3c1.9,0,2.4-0.5,4.3-3.9c1.9-3.9,4.8-9.2,10.6-14.5
		c5.3-4.8,9.2-6.8,12.1-5.8s4.3,3.9,5.3,6.8c1,1.9,1.9,4.3,3.4,6.3c0.5,0.5,0.5,1,1,1c1,0,2.4-1.9,3.9-2.9c1.4-1.4,2.9-3.4,4.8-4.3
		c7.2-4.8,10.1-3.9,14,0.5c1,1,2.4,2.9,5.3,3.9c3.9,1.9,4.3,1.4,7.7-0.5c2.9-1.9,5.8-3.4,10.1-5.3c6.3-2.4,10.6-4.3,14.5-4.8
		c2.9-1,5.8-1,9.2-1.4c1-3.9,2.9-10.6,3.4-19.8c0-6.8,0-15-1-24.1c0-1.9,0-3.9-0.5-5.8c0-3.9-0.5-7.7-0.5-11.1
		c0-7.2,1.4-15.5,4.3-21.7C282.8,324.6,286.7,319.8,291,316.9z"/>
</g>
</svg>
