<?xml version="1.0" encoding="utf-8"?>
<!-- Generator: Adobe Illustrator 19.2.1, SVG Export Plug-In . SVG Version: 6.00 Build 0)  -->
<svg version="1.1" id="Layer_1" xmlns="http://www.w3.org/2000/svg" xmlns:xlink="http://www.w3.org/1999/xlink" x="0px" y="0px"
	 viewBox="0 0 465 440" style="enable-background:new 0 0 465 440;" xml:space="preserve">
<style type="text/css">
	.st0{fill:#FFFFFF;}
</style>
<path class="st0" d="M465,157.9c0-1.5-0.4-1.9-0.8-2.3c-1.9-1.5-5.4-2.7-8.9-3.5c-3.1-0.8-5.8-1.2-8.1-0.8c-3.5,0.4-6.2,0.8-8.9,1.2
	c-3.9,0-6.6,0-8.9-0.8s-4.6-2.3-6.6-3.9c-1.5-1.2-3.5-2.7-4.2-2.7c-0.8,0-1.9,0-3.5,0.4h-0.8c-4.6,0.8-8.9-0.4-12-3.5
	c-3.1-2.7-4.6-7-4.6-11.6c0-1.2-1.2-2.7-1.9-3.5c-1.2-1.5-2.7-2.3-4.2-3.1s-3.5-1.9-5.4-4.2l-0.4-0.4c-1.2-1.2-2.7-2.7-4.2-3.5
	c-1.9-1.2-3.5-2.7-4.6-4.6l-0.4-0.4c-1.9-2.3-3.9-4.6-7.3-5.8c-4.2-1.2-8.5-3.1-12.4-5s-8.1-3.1-12-4.2c-1.5-0.4-3.1-0.8-4.6-1.2
	c-1.2,3.5-1.9,7-0.8,10c1.2,2.7,1.5,3.5,2.7,4.6c0.8,0.8,1.5,1.9,2.3,3.5c1.2,2.3,1.9,3.9,3.1,5l0.8,0.8c3.1,4.6,3.1,6.2,1.5,11.6
	c-3.5,12-8.5,11.6-14.3,10.4c-3.5-0.8-5.8-1.2-8.5,2.7c-1.5,2.3-3.5,4.6-5.8,5.8c-5.8,3.5-10,0.4-13.1-1.9l-0.4-0.4
	c-2.3-1.9-3.1-4.2-3.5-7c-0.4-1.9-0.8-3.5-1.9-5.4c-3.5-5.8-7-8.9-10-9.3c-3.1,0-6.6,2.3-10.8,7.7c-0.8,1.2-1.5,1.9-2.3,2.7
	c-1.9,2.3-3.5,3.9-4.6,7c-1.9,4.2-4.2,9.7-10.8,10.4c-3.5,0.4-6.2,0.8-8.9,1.9c-3.1,1.2-5.8,2.3-8.5,4.2c-7.7,5-13.1-1.5-16.2-5.8
	l-0.8-0.8c-0.4-0.8-1.2-1.2-1.5-1.5c-1.2-1.2-2.7-1.5-5.8-1.2c-3.5,0.4-8.1,1.5-13.5,2.7h-0.4c-4.6,1.2-6.6,6.2-8.5,12.7l-0.4,1.2
	c-2.3,7-3.1,9.7-9.7,13.9c-5.4,3.5-6.6,4.6-12.4,5c-2.3,0-4.6-0.4-7.3-0.8c-4.2-0.4-9.7-1.2-14.7,0c-6.6,1.9-11.2,0.4-15.1-0.8
	l-0.8-0.4c-1.5-0.4-2.7-0.8-3.9-1.2c-1.5-0.4-3.9-0.4-6.6-0.4c-6.2,0-13.5-0.4-18.5-3.1c-3.1-1.5-5.4-0.4-9.7,3.1
	c-0.8,0.4-1.2,0.8-1.9,1.2c-2.3,1.5-2.7,1.9-2.7,5c0,2.7-0.4,6.2-2.3,10.8s-2.3,7-2.3,8.9c0,3.5-1.2,5.8-2.7,7
	c-2.7,1.9-6.2,0.8-10-0.4c-1.2-0.4-3.5-1.2-4.2-0.8c0,0,0,0,0,0.4c-0.8,1.2-1.9,2.7-5.4,5c-1.9,1.2-3.5,2.3-5,3.5
	c-4.6,3.5-9.7,7.3-18.1,5.4C43.8,227,43,227,43,227s0,0.4-0.4,0.4c-0.4,0.8-1.2,1.9-3.5,3.5c-2.7,1.5-6.2,2.3-11.2,2.7
	c0,0.4,0,0.8,0,0.8l-0.4,2.3c-1.2,6.2-5.4,7-7,7c-2.3,0-5-1.2-6.2-2.3c-0.4-0.4-1.2-0.8-1.5-1.2c-0.8-0.4-1.9-1.5-2.7-1.9
	c-1.2,0.8-3.5,2.3-5.4,4.6c-1.5,1.5-2.3,3.1-2.7,4.6c-0.4,1.2-0.8,2.3-1.2,3.1C0,253.7-0.7,256,1.2,263c0.4,1.5,0.8,2.7,0.8,3.9
	c1.9,0.8,3.9,1.5,5,2.3c0.8,0.4,1.5,0.4,2.3,0.4c0.4,0,0.8-0.4,0.8-0.8c0.4-0.4,0.4-0.8,0.8-1.2c1.5-1.5,3.9-1.9,6.6-1.5
	c1.9,0.4,4.2,1.5,6.2,2.7c2.7,1.5,5,3.5,7,5.4c0.4,0.4,1.2,0.8,1.5,1.5c0.8,0.8,1.2,1.5,1.5,1.5c0.4,0,1.2,0,1.9,0
	c0.4,0,1.2,0,1.9,0h1.9c1.5,0,3.5,0,5.8,0h7.3c1.9,0,2.7,0,3.5,0c1.5,0.4,2.3,0.8,2.7,1.5c2.7-2.3,5.8-3.9,8.5-3.9
	c2.3,0,5.4,0.8,8.5,2.3h0.4c5.4,1.9,12,4.2,16.6,1.9c1.2-0.4,2.3-1.2,3.1-1.5c0.8-0.4,1.2-0.8,1.9-1.2c5.4-3.1,8.1-4.6,16.2-2.7
	c3.5,0.8,8.1,1.9,11.6,1.9c3.5,0,5.8-0.8,7.7-2.7c0.4-0.4,0.8-0.8,1.2-1.2c3.1-2.7,8.1-4.6,12.7-5.4c7.3-1.5,12.4-0.4,14.3,7.3
	c0.8,2.7,1.2,5.4,6.2,7.7c3.9,1.9,7.7,1.2,11.6,0.8c4.6-0.4,8.5-1.2,12.4,1.2c3.1,1.5,5,4.2,6.6,6.6l0.8,1.5
	c0.4,0.4,0.8,1.5,1.2,1.5c0.8,0,2.7-1.9,4.2-3.1c1.9-1.5,3.9-3.1,5.4-3.9c5-1.5,7.7-1.2,12.4,0.4c5.8,2.3,12.7,5,10.4,12.7
	c-1.5,3.5-3.9,4.6-5.4,5.8c-0.4,0.4-1.2,0.8-1.2,0.8l0,0c0,0,0.4,0.8,3.1,4.2c2.3,3.1,4.6,3.9,6.6,4.6c2.3,0.8,5.4,1.9,5.8,7
	c0.4,3.5,0.4,5,0,6.6c0,1.5-0.4,2.7,0,5c0,1.9,0.4,5.4,1.2,5.8c0.4,0,1.2,0.4,5.4-1.9c3.1-1.5,5.4-2.3,7.3-2.3
	c2.7,0,5.4,1.5,8.1,5.8c1.2,1.2,1.9,2.3,3.1,2.7c0,0,0.4,0,0.8,0.4l0.8,0.4c3.1,1.2,4.6,1.9,7.3-1.2c1.2-1.2,1.9-1.9,2.7-3.1
	l0.8-0.8c3.1-3.9,6.2-7.7,11.6-5c2.3,1.5,7,3.5,12,5c3.5,0.8,6.6,1.2,8.5,0.8l1.5-0.4c5.4-0.8,15.1-1.9,16.6-5
	c1.2-1.9,1.2-4.2,1.2-7V327c0.4-3.1,0.4-6.6,1.9-10.4c0.4-1.5,0.8-3.1,1.2-4.6l0.4-1.2c1.2-5,2.3-7.3,4.2-8.5
	c2.3-1.2,4.6-0.4,7.3,0.8c1.9,0.8,4.2,1.5,7,1.5c1.5,0,2.7-0.4,3.5-1.5l0.8-1.2c3.1-4.2,7.3-10,14.3-6.6c1.2,0.4,2.3,0.8,5,0
	c3.1-1.2,7-3.9,12-7.7l0.8-0.8c4.6-3.9,7-5.4,9.3-7.3c1.2-0.8,2.3-1.5,3.9-2.7c1.2-0.8,2.3-1.5,3.9-2.7l1.9-1.2
	c3.9-2.3,6.2-3.5,8.1-4.2c1.9-0.8,2.7-1.2,5.8-6.2c2.7-4.2,4.6-7.7,5-10.8c0.8-3.1,0-5.8-1.5-9.7l-0.8-1.5c-0.4-1.2-0.8-1.5-0.8-1.9
	l-1.2-2.3c-5.8-13.9-9.3-22,5.4-31.7c3.5-2.3,7-4.2,9.7-5.8l1.5-1.2c5.8-3.5,10.4-5.8,14.7-10.4c2.3-2.3,2.3-3.1,2.3-3.1
	c-0.4-0.4-2.7-1.2-4.6-1.5l-1.2-0.4c-0.8-0.4-1.2-0.4-1.9-0.8c-2.7-0.8-5.8-0.8-8.1-0.8c-4.6,0-10,0.4-12-5.4c-1.9-5,0-8.9,5.4-10.8
	c1.9-0.8,4.2-1.2,6.6-1.5c0.8,0,1.5-0.4,1.9-0.4l1.5-0.4c3.1-0.8,6.2-1.5,10.8-0.4c2.3,0.4,5,0.8,7,0.4
	C462.3,162.9,464.2,162.1,465,157.9z"/>
</svg>
