<?xml version="1.0" encoding="utf-8"?>
<!-- Generator: Adobe Illustrator 19.2.1, SVG Export Plug-In . SVG Version: 6.00 Build 0)  -->
<svg version="1.1" id="Layer_1" xmlns="http://www.w3.org/2000/svg" xmlns:xlink="http://www.w3.org/1999/xlink" x="0px" y="0px"
	 viewBox="0 0 465 440" style="enable-background:new 0 0 465 440;" xml:space="preserve">
<style type="text/css">
	.st0{fill:#FFFFFF;}
</style>
<path class="st0" d="M379,359.6c4.6-6,8.7-11,8.7-16.1c0-1.8-0.5-2.8-1.4-3.7c-1.4-1.4-4.6-2.3-9.2-1.8c-3.2,0-6-0.9-7.4-3.2
	c-1.8-2.3-1.8-6-0.5-9.7c2.8-7.8,3.2-14.3,2.3-15.2c-2.3-1.8-4.1-6.9-6.9-13.8c-0.5-1.4-0.9-2.8-1.4-3.7c-2.3-5.5-6-7.8-10.6-6.9
	s-11,0-15.2-4.1c-3.7-4.1-4.6-11-2.3-19.8c2.3-7.4,2.8-12.4,3.2-16.6c0.9-6.4,1.4-10.6,8.3-13.3c5.5-2.3,10.1-1.4,14.3-0.5
	c2.8,0.5,5.1,1.4,7.8,0.9c8.7-0.5,10.6-1.4,12-4.6c2.3-6.4,3.2-12,2.3-12.9c0,0-0.5,0-0.9,0c-3.2,0.5-6,1.8-9.2,2.8
	c-3.2,1.4-6.4,2.8-9.2,2.8c-1.4,0-2.8,0-4.6,0.5c-4.1,0.5-9.2,1.4-12.4-1.4l-1.4-0.9c-6-4.6-22.5-16.6-17-26.2
	c5.1-8.7,8.7-9.7,17-12l2.8-0.5c3.2-0.9,5.5-0.9,6.9-0.9c2.3,0,2.3,0,5.5-7.4c3.7-7.8,7.4-12.4,10.6-17c1.8-2.3,3.7-4.6,5.5-7.8
	c0.9-1.8,2.3-3.2,3.2-4.6c4.1-5.5,6.9-9.7,5.5-15.2s-4.1-8.7-6.9-12c-1.4-1.4-2.3-2.8-3.7-4.6c-0.9-1.4-3.2-3.2-5.1-5.1
	c-4.6-4.1-9.7-8.3-7.8-13.8c0.9-3.7,3.2-6,5.1-7.8c1.4-1.4,2.8-2.8,3.7-5.1c2.3-4.6,2.3-8.7,1.8-9.7c-0.5,0-1.4-0.5-1.8-0.9
	c-1.8-1.4-3.2-2.8-8.3-0.5c-5.5,2.3-11,6-15.6,12c-1.4,1.8-6,6.9-10.6,6.9c-1.8,0-2.8-0.5-4.1-1.8c-2.3-2.8-11-8.3-12.4-8.7
	c-0.5,0-6.9,0-11-1.4c-2.8-0.9-4.6-5.1-7.4-12c-1.4-3.2-2.8-6-3.7-7.8c-2.8-3.7-5.1-4.1-9.2-4.6s-13.3,0.5-16.6,2.3
	c-4.6,2.8-11.5,1.8-15.2-1.8c-3.2-3.2-9.7-11.5-11.5-16.1c-0.9-2.3-2.8-7.8-4.6-8.3c0,0-0.5,0-0.9,0.5c-1.8,1.4-1.8,1.4-2.3,2.8
	s-1.4,3.2-4.1,6.4c-5.5,6-13.8,13.8-19.8,9.2c-1.4-0.9-2.8-1.8-3.7-2.8c-2.8-1.8-5.5-3.2-7.8-6.4c-1.4-1.4-2.3-1.4-4.6-1.8
	c-1.8,0-4.1-0.5-7.8-1.4l-1.8,0.9c-7.8-2.3-11-3.2-12.4-7.4c-0.9-2.8-5.5-8.7-10.1-8.3c-1.8,0.5-3.7,0.9-5.5,1.8
	c-2.8,1.4-5.5,2.3-9.7,1.8c-0.9,0-1.8-0.5-3.2-0.5c-4.6-0.9-9.2-1.4-13.8-5.5c-2.3-1.8-4.1-5.1-5.5-7.4c-1.8-2.8-3.2-5.5-5.1-5.5
	s-3.2-0.9-5.1-1.4c-4.1-1.8-6-2.3-7.8,1.8c-1.8,3.7-0.9,5.5,0,7.8c0.9,1.8,1.8,4.1,0.9,7.4c-1.8,6.4-9.2,14.7-9.7,14.7
	c-1.4,1.4-6.4,3.2-11.5,1.8c-0.5,1.8-0.5,3.2-0.5,4.1c0,0.5,0.5,0.9,1.4,1.8c2.8,1.8,5.5,4.6,4.1,10.1c-0.9,3.7-2.3,5.5-3.2,6.9
	c-1.4,1.8-2.3,3.7-2.8,7.4c-0.5,2.8-1.4,4.6-1.8,6L86,71.7c-0.9,1.8-1.4,2.8,0.5,8.3c2.3,7.4,0.9,14.7,0,21.2v1.8
	c-0.5,2.8-0.5,5.5-0.5,7.4c0.5,6-0.5,8.7-1.8,13.3c-0.9,1.8-1.4,3.7-2.3,6.4c-1.4,4.1-2.3,6.4-3.2,8.3s-1.4,2.3-1.4,5.5
	c0,1.4,1.8,3.7,3.2,5.5l0.5,0.5c4.1,5.1,9.2,11.5,5.1,19.8c-1.8,3.2-2.8,6.4-3.2,8.7c-0.5,0.9-0.9,2.3-1.4,3.2
	c1.4,2.3,4.1,6.4,4.6,9.7c0,0,0,1.4,5.5,0.9c7.4-0.5,12-0.5,14.7,7.8c0.5,0.9,0.5,1.4,0.9,1.8v0.5c1.8,4.1,2.8,7.4,2.3,16.6
	c-0.5,7.4-2.8,10.1-5.1,12.4c-0.5,0.5-0.5,0.9-0.5,0.9c1.4,1.4,12,1.8,15.6,1.8c2.3,0,4.1,0,5.1,0c12.4,1.4,15.6,12.9,18.4,21.2
	l0.5,0.9c0.5,1.4,0.9,2.8,1.4,4.1c1.4,3.7,1.8,8.7,1.8,14.7c0,6.9-1.4,13.8-2.8,17.5c-0.9,2.8,2.8,11.5,4.6,17
	c0.9,2.3,1.8,4.6,2.8,6.4v0.9c2.3,7.4,4.6,13.3,9.7,13.3c9.7,0,12.9,6.4,15.6,12.4c1.8,3.7,3.7,6.9,6.9,9.7c2.3,1.8,5.1,3.7,7.8,5.1
	l0.5,0.5c6,3.7,8.3,11,9.7,18.9l0.5,1.4c0,0.9,0.5,1.4,0.5,2.3c0.5,1.4,1.8,2.8,4.6,4.1c3.2,1.4,7.8,2.3,14.7,3.2
	c5.5,0.5,8.7,2.3,11,4.6c2.3,2.8,1.8,6,1.8,8.3c0,0.9-0.5,1.8-0.5,2.8c-0.9,4.1-0.9,5.5,0.5,6c2.3,0.9,7.4,0.9,11.5,0.5
	c14.7-0.9,16.1,1.4,21.2,13.8l0.9,2.8c1.8,4.6,3.2,9.2,3.7,12.9c9.2,1.8,16.1,0.5,23.9-1.4c2.3-0.5,4.6-0.9,6.4-1.8
	c6.4-1.8,11-3.2,17-0.5c4.1,1.8,12.4,1.4,19.3,0.5c4.6-0.5,8.7-0.5,12.4-0.5c1.8,0,3.7,0,5.1,0.5c4.6,0.5,8.7,0.5,10.1-0.9
	c0,0,0.9-0.9,0.9-2.8c0-3.2,0.5-6.9,0.9-10.6c0.5-4.6,0.9-9.2,0.9-13.3c0-0.9,0-2.3,0-3.7c0-10.6-0.5-29.9,4.6-37.7
	C375.7,364.2,377.6,361.9,379,359.6z"/>
</svg>
