<?xml version="1.0" encoding="utf-8"?>
<!-- Generator: Adobe Illustrator 19.2.1, SVG Export Plug-In . SVG Version: 6.00 Build 0)  -->
<svg version="1.1" id="Layer_1" xmlns="http://www.w3.org/2000/svg" xmlns:xlink="http://www.w3.org/1999/xlink" x="0px" y="0px"
	 viewBox="0 0 465 440" style="enable-background:new 0 0 465 440;" xml:space="preserve">
<style type="text/css">
	.st0{fill:#FFFFFF;}
</style>
<path class="st0" d="M464.2,256.8l-1.1-2.7c-4.3-12.3-9.1-28.9-8-37.5c0.5-4.3,2.7-8,5.4-11.8c3.2-5.4,5.9-10.2,3.8-16.1
	c-2.7-6.4-3.8-7.5-6.4-9.6c-2.1-2.1-4.8-4.3-8.6-9.1c-4.3-5.9-8-10.7-9.6-16.6c-1.6-5.9-1.1-11.8,2.7-18.8c1.6-2.7,2.7-4.8,4.3-7
	c4.3-7,6.4-10.7,5.4-18.2c-2.7-11.3-7-29.5-7-29.5l-2.1-9.6c-1.6,0-3.8-1.1-5.4-1.6c-1.6-1.1-4.3,2.7-7.5,6.4c0,0-0.5,0.5-0.5,1.1
	l-0.5,1.1c-2.7,3.8-7,5.9-12.3,5.9c-5.4,0-9.6-1.6-12.3-2.7c-1.1-0.5-2.7-1.1-2.7-1.1s-0.5,1.1-1.6,5.4c-0.5,3.2-1.6,6.4-2.1,9.1
	c-1.6,4.3-1.6,8.6-2.1,12.3v0.5c-0.5,4.8-0.5,9.1-2.7,13.4c-4.3,8.6-18.2,10.2-29.5,11.8l-2.7,0.5c-3.8,0.5-9.1,0-15.5-1.6
	c-7.5-2.1-14.5-5.4-18.8-7.5c-0.5,0.5-2.7,2.7-3.8,4.3l-1.1,1.6c-1.1,1.6-2.7,3.2-3.8,4.8c-8,8.6-15,5.9-20.4,3.8c0,0-0.5,0-1.1-0.5
	h-0.5c-4.3-1.6-6.4-4.3-8.6-6.4l-0.5-0.5c-3.8-4.8-3.8-4.8-9.6-2.1c-8,3.8-12.9,4.3-16.6,2.1c-4.3-2.1-5.9-8-6.4-15.5
	c-0.5-4.8,0-7,0-9.6c0-1.1,0-2.7,0-6.4c0-1.1-2.1-1.6-3.8-2.7c-3.2-1.6-7.5-3.8-11.3-8.6l-1.1-1.6c-3.2-4.3-6.4-8.6-5.4-12.9
	c0.5-2.7,2.7-4.8,5.9-5.9c2.1-1.1,3.2-1.6,3.8-2.7c0.5-2.1-2.7-3.2-8.6-5.4c-4.8-1.6-6.4-2.1-10.7-0.5c-2.1,0.5-4.3,2.7-6.4,4.3
	c-3.2,2.7-6.4,5.9-10.7,5.4c-4.3,0-7.5-4.3-10.2-8.6c-1.6-2.7-3.8-5.4-5.4-6.4c-2.7-1.6-6.4-1.1-11.3-0.5c-5.9,0.5-13.9,1.6-22-2.1
	C146.3,45,144.7,38,143.7,33.2c-1.1-4.3-1.1-4.8-8.6-3.2c-4.8,1.1-9.6,3.2-13.4,5.9c0,0,0,0-0.5,0.5l-0.5,0.5
	c-4.8,4.8-10.2,7-17.7,7c-5.9,0-11.8-1.6-17.7-2.7c-7.5-1.6-9.6-0.5-15.5,2.7c-1.6,1.1-3.2,1.6-4.8,2.7l-2.7,1.6
	c-10.2,4.8-22.5,0.5-30.6-2.7c-3.2-1.1-7-2.7-8.6-2.7c-3.8,0-6.4,3.2-7.5,4.3c0,1.1-0.5,1.6-0.5,2.7c-1.1,2.1-2.1,3.8-3.8,5.9
	c-3.8,3.8-8,7-9.6,8c-1.6,1-1.7,2.2-1.7,2.8c0.5,2.7,3.2,7,5.9,10.7l1.1,1c1.6,2.1,2.7,4.3,3.8,5.4c4.3,5.9,4.8,7,5.4,11.8
	c0,1.6,0,2.7,0,4.3c-0.5,5.4-0.5,11.8,4.8,19.3c1.1,1.6,2.1,2.7,2.7,3.8c6.4,8,7,8.6,7,19.3c0,7.5,0.5,10.7,0.5,14.5
	c0,1.1,0.5,2.7,0.5,3.8l0,0c1.6,1.6,15.5,1.6,20.9,1.6h3.8c4.3,0,7.5,1.1,10.2,1.1c6.4,0,10.2,0.5,14.5,0c9.1-2.1,13.4,8,17.2,15.5
	l0.5,1.6c0.5,1.6,1.6,3.2,2.1,4.8c2.1,4.3,3.2,9.1,3.2,14.5c0,6.4-2.1,12.9-4.3,15.5c-0.5,1.1,0,3.2,0.5,5.4
	c0.5,1.6,1.1,3.8,1.1,5.9c0,1.1,1.1,3.8,1.6,5.9v0.5c1.6,3.8,2.7,7,2.7,10.2c0,0.5,1.1,1.1,3.2,3.2c3.2,2.7,8.6,5.4,12.9,7
	c1.6,0.5,4.8-0.5,7.5-1.1c3.8-1.1,8-2.1,12.3-2.1c8,1.1,10.2,3.2,10.7,7.5l0.5,0.5c2.1,4.8-1.6,9.1-4.3,12.3
	c-0.5,0.5-2.1,2.1-2.7,3.2c0.5,0,1.1,0.5,1.6,0.5l0.5,0.5c0.5,0.5,1.1,0.5,2.1,1.1c0.5,0,1.1,0.5,2.1,1.1c2.1,1.1,4.3,1.6,6.4,2.1
	h1.1c2.7,0.5,4.8,1.6,7.5,3.2c5.4,3.8,7,13.4,8,20.4v1.6c0.5,3.8-0.5,8.6-3.8,13.4c-2.7,4.3-6.4,8-11.3,10.7
	c-7,3.8-11.3,3.8-17.7,3.8c-2.7,0-4.8,0-8,0c-1.6,0-2.1,0.5-2.1,0.5s0,0.5,0,1.1c0,2.1,1.1,4.8,2.7,8.6c1.1,2.1,3.8,5.4,6.4,8
	c3.2,3.2,7.5,8,11.3,13.4c5.4,8.6,3.8,16.6,2.7,23.6c-0.5,2.7-1.1,4.8-1.1,7c0,4.3,0.5,10.7,1.1,16.1h2.7c4.8,0.5,10.2,1.1,15,0.5
	c11.8-0.5,15-1.6,19.8-4.3c1.1-0.5,1.6-1.1,2.1-1.6c2.1-2.1,3.8-2.1,9.6-1.1c3.2,0.5,7,1.6,9.6,2.7c4.3,1.6,8.6,2.7,9.6,1.6
	c4.3-4.8,7-5.9,14.5-5.9c3.2,0,6.4,2.1,9.6,3.8c4.3,2.7,8.6,4.8,12.9,2.7c3.2-1.6,4.8-2.7,5.9-3.2c1.6-10.7,3.8-17.7,7.5-21.4
	c3.2-3.8,7.5-6.4,12.9-8c7.5-1.6,11.3-1.1,14.5-0.5c3.8,1.1,5.9,1.1,16.1-8.6c5.9-5.9,12.9-8.6,22-9.1c4.3-0.5,9.6-0.5,14.5-0.5
	c3.2,0,3.8,0,7-2.7c2.7-2.1,12.9-8.6,22-8c4.8,0.5,9.6,2.1,13.9,3.8l1.1,0.5c4.3,1.6,8,3.2,11.8,3.2c1.6,0,3.2,0,4.8,0
	c5.9,0.5,7.5,0.5,12.3-5.9c2.1-3.8,4.8-6.4,7-9.1l1.1-1.1c4.3-5.4,8.6-10.7,10.2-15.5c0-0.5,0.5-1.6,0.5-2.1l0.5-1.6
	c4.3-11.3,3.2-11.8-3.2-13.9c-2.7-1.1-5.9-2.1-9.1-4.3c-6.4-3.8-7.5-8-7.5-11.3c0-5.4,3.8-11.3,10.7-15.5c4.8-2.7,8-3.8,11.8-4.8
	c2.1-0.5,4.3-1.6,7-2.7l1.1-0.5C461,261,464.2,258.9,464.2,256.8z"/>
</svg>
