<?xml version="1.0" encoding="utf-8"?>
<!-- Generator: Adobe Illustrator 19.2.1, SVG Export Plug-In . SVG Version: 6.00 Build 0)  -->
<svg version="1.1" id="Layer_1" xmlns="http://www.w3.org/2000/svg" xmlns:xlink="http://www.w3.org/1999/xlink" x="0px" y="0px"
	 viewBox="0 0 465 440" style="enable-background:new 0 0 465 440;" xml:space="preserve">
<style type="text/css">
	.st0{fill:#FFFFFF;}
</style>
<path class="st0" d="M391.5,169.6l-0.3-1c-0.7-2.7-1.3-7.3-2.7-8.3c-0.7-0.7-1.3-0.7-2.3-1l-1-0.3c-1.3-0.3-3-0.7-5-1.7
	c-0.3,0-0.7-0.3-1-0.3c-0.3-0.3-0.7-0.3-1.3-0.7c-3-1.3-5.3-2.3-5-6.3c0.3-2,1.7-3.7,3.3-5.3c0.7-0.7,1.3-1.3,1.7-2
	c0-0.3,0-0.7-0.3-0.7s-0.7,0-1.7-0.3c-1.7-0.3-3.7,0.3-5.3,1H370c-2.7,0.7-5.3,1.7-8.3,0.3c-2.7-1-6.3-3-9.3-5
	c-3-2.3-4.6-4.3-4.3-6.3c0-0.7-0.7-2.3-1.3-4v-0.3c-1-2.3-1.7-4.3-1.7-6.3c0-0.3,0-1-0.3-1.7v-0.7c-0.7-2.3-1.3-4.6,0.3-7.6
	c1-1.3,1.7-4.3,2-7.3c0-2.3-0.3-4.3-1-5.6l-0.3-0.3c-0.7-1.3-1.3-2.7-2-4c-0.7-1.7-3-6.3-4-6.3c-3.3,0.7-6,0.7-10,0.3h-2.3
	c-1.3,0-3,0-4.6,0h-2.3c-9.3,0-18.3-0.3-18.9-6.6c0-1-0.3-2-0.3-2.7c-0.3-2.7-0.3-5-0.3-9.6s0-4.6-3-8.3c-0.7-0.7-1.3-1.7-2-2.3
	c-4.6-6.3-4.3-12.3-4.3-15.9v-0.3c0-0.7,0-1.3,0-1.7c0-1,0-1.3-2-4l-1-1.3c-0.7-1-1.3-2-2.3-3.3c-2.7-3.7-4.3-6.6-4.6-9.3
	c-0.7-3,0.7-5.3,3.3-7.3c0.7-0.7,3-2.3,5-4c0.3-0.3,0.7-0.7,1-1c-0.3-0.3-0.3-0.3-0.7-0.7c-0.3,0-1,0-2,0h-6c-2,0-3.3,0-4.6,0h-1.7
	c-2.3,0-3.7,0-4.6-0.3c-2-0.3-2.7-1.3-4-2.7c-0.3,0-0.3-0.3-0.7-0.7c0-0.3-0.3-0.3-0.7-0.7c-1.7-1.7-3.3-2.7-5-3.7
	c-1.3-1-2.7-1.3-3.7-1.7c-0.3,0-0.3,0-0.3,0c-1,1.7-2.7,2.3-4.3,2.7c-2.3,0.3-4.6-0.3-5.6-1c-0.7-0.3-2-0.7-3-1.3
	c-1.3,1.7-3,2.3-5,3c-1,0.3-2,0.7-3,1.3c-1.7,1-1.7,1.7-1.3,3.7V9c0,1.3,0,2.7-0.7,4.3c-1,2.7-3,4.3-6,5.3c-2.3,0.7-5.3,0.7-9.6,0
	c-4.6-0.3-6.6-1.7-8.6-3.3c-0.7-0.7-1.7-1.3-3.3-1.7c-1.3-0.3-2.7,0-4.3,1c-2.7,1.3-5.3,2.3-9.6,2.3c-3.7-0.3-6.6-1-9-2
	c-2.3-1-4-2.3-5-4.3l-0.3-0.3l-0.7-0.7c-0.7-0.3-1-0.7-1.7-0.7c-1,0-2,0-2.7,0.7c-0.7,0.3-1,0.7-1.3,1c-2,2.3-3.7,4.3-5,6.3
	c-1.3,2.3-3,4.6-5.6,7.3c-1.3,1.3-2.7,2.3-4,3.3c1.7,2.7,3.7,3.7,6,4c1.7,0,2.7-1,4-2.7c1.7-2,4-5,8-3.3l1.3,0.7
	c3,1.3,3.7,1.7,4.6,4.6c0.3,1,0.7,2.7,1.7,4.6c1.7,4,3,4.6,4,5.3c1.7,1,2.3,1.7,2,4.3c0,2.3-1,4-2,5.3c-0.7,1.3-1.3,2.7-1.3,4.3
	c0,1.3,0.7,1.7,1.3,2.3c1.3,1.3,2.3,2.7,2.3,6.6c-0.3,4-1.7,7.3-3.7,11.6c-1,2.3-2,5-3.3,8.3c-3.3,9.3-2.7,17.3,1.3,19.9
	s8.6,7.3,13.9,14.3c1.7,2,2.3,4,3,5.6c1,2.3,1.3,4,3.7,5c1.7,1,3.7-0.7,6-3.3c1.3-1.3,2.7-2.7,4-3c2.3-0.3,6.6,1,9,3
	c1.7,1.3,2,2.7,2,3.7c0,1.7-1,3.3-2.3,5.3c-1.3,2.3-3,5-3,7.3c0.7,9,0,13.9-1.7,16.3c-0.7,0.7-1,1-1.3,1.3l-0.3,0.3
	c0,0.3,0.3,0.7,0.3,1c0,0,0.7-0.3,1.3-0.3c1.3-0.3,3-1,4.3,0c1,0.7,1.3,1.7,1.3,3c0.3,2-0.7,4.3-1.7,6.6c-1.3,3-2.3,6-0.7,8.3
	c3.3,5,13.6,13.3,19.6,15.3c2,0.7,3.7,1,5,1c3,0.3,5,1,7,5c0.7,1.7,2,3,3,4.6c2.7,4,5.6,8,4.6,12.3c-1,5-2,13.6-2,18.9
	c0,3-0.7,4.3-1.3,5.3c-0.3,0.7-1,1.3-1.3,3.3c-0.7,3.7-0.3,3.7,3.3,6l3.7,2.3c2.3,1.3,6.6-0.7,6.6,4.6c0,5.3-6.3,13.9-7.6,13.9
	c-1.7-0.3-4,1-6,2c-3.7,1.7-8.3,4-11.3,0c-2-2.3-2.3-5.3-3-7.3c-0.7-3-1-4-2.3-4.3c-3.7-1-4.6,0.3-8,5.3c-1.3,2-2.7,3.7-5,4
	c-2.7,0.3-5-1.3-9.6-5.3c-3.3-2.7-5.3-6-7-8.6c-1-1.3-2-3.3-2.7-3.3c-1.3,1-2.3,2-3.3,3.3c-2,2.3-4.6,6-8.3,3.3
	c-1.7-1.3-2.7-3.3-3.7-5c-0.3-0.3-0.3-1-0.7-1.3c-0.7,1-0.7,1.7-0.7,3c0,1.7,0.3,4-2,7.3c-3.3,5.3-5.6,7.3-7.6,6.6
	c-1.7-0.3-2.7-1.7-3-4c-0.7-2.7-0.3-5.3-0.3-7.6c0.3-3.3,0.3-6.3-0.7-8.6c-0.3-0.7-0.7-1.7-1-2.3c-1.3-2.7-1.3-2.7-5.3-1
	c-2.7,1-4.6,1.3-6.3,1.7c-2.7,0.3-3.3,0.7-4.6,4c-0.7,2.3-1.7,4-2.3,5.3c-1.3,2.3-2,3.7-2,9c0,4-1.3,6.6-2.3,9c-1.7,3-2,4.3,1,7.3
	c2.7,2.3,4.3,2.7,5.3,3c3.3,0.7,3,2.7,2.3,7c-0.7,5.3-2.7,8.3-4.3,10.6c-1,1.7-1.7,2.7-2,4c0,1.3,0,2,0,2.7c0,1.3,0,1.7-0.3,5.3
	c-0.7,6.3-8,10-12.6,11c-1,0.3-2.3,0-3.3,0c-3.3-0.3-5.3-0.3-5.6,5.6c-0.3,3.7,0,5.6,0.3,7.6c0.7,3.3,0.7,5.3-3,9.3
	c-5.3,5.3-9.3,9.3-15.3,14.3c-5.6,5-8,8.3-8,10.6c0,1.7-1,18.9-4.3,20.9c-1.3,0.7-4,0.7-8.6,0c-3.7-0.3-7.6-1-10.3-0.3
	c-2.3,0.3-4.3,0.3-6,0.3c-1.3,0-3.7,0-4,0.3s-0.3,1-0.7,1.3c-0.7,1-1,1.7,1,4.3c2.3,3,4,5.6,6.6,9.6c1.7,2.3,3.3,5,5.6,8.3
	c5.3,7.6,11.9,10,16.9,11.6l1.3,0.3c1.7,0.3,3.7,1.7,5.6,2.7c4,2.3,9,5,11.9,3.3c1.7-1,2.3-3.7,2.7-6c0.7-2.7,1-5.6,3.3-7
	c1.3-0.7,3-1,4.6-0.3c3.7,1,5.3,3,6.6,4.3c1.3,1.7,1.7,1.7,4.6,0s5-3.3,7-5c3-2.3,5.6-4.6,10.6-6.6c2.7-1,5-2.7,7-4.3
	c3.7-2.7,7-5.3,12.9-4.6c2.7,0.3,5.3,0,8-0.3c1.7-0.3,3.3-0.3,5-0.3c3,0,5.6,0.7,8.3,3c2,1.7,4.3,2.7,6.6,3.3
	c3.7,1.3,7.6,2.7,9.6,7.6c0.7,2,1.3,3.3,2,4.6c1.3,3.3,2.3,5,2.3,10c0,3,2,5,3.3,5.3c1.7,0,2.3-2,2.7-3c0.7-3,1.3-4.6,2.3-6.3
	c1-2.3,2-4,1.7-9.3c0-3.3,0.3-6,0.7-7.6c0.7-3.3,0.7-3.7-1.7-4.3c-2-0.7-3.7-0.3-5.3-0.3c-2.3,0.3-5,1-6.6-3c-1-2.7-0.3-6.3,0.7-9.3
	c-0.7-2.3-2-3.3-3-4.3c-1.3-1.3-3.3-3-2.7-6c0.3-1.3,0-3.3-0.3-5.3c-0.7-4.3-1.7-10,1.3-14.3c1.7-2.7,2.7-6.3,3.3-9
	c1-3.7,1.7-6.6,4.3-6.6c0.7,0,1.3,0.3,2,1c2.3,3,2.3,12.9,1.3,18.3c-0.7,3,1.7,6.3,4,8.3c1.7,1.7,3,1.7,3.7,1.7c3-1.3,7-6.3,6.6-8.6
	c-0.3-0.7-0.7-1.7-1.3-2.7c-1-1.7-1.7-3.3-1-5c0.3-1,1.3-1.7,2.7-2c2-0.7,3.7-0.7,5-0.3c1.7,0.3,2.3,0.3,3-0.7
	c0.7-0.7,0.7-1.7,0.7-3c0-1.7,0.3-4,2-6c2.3-2.7,4.6-5.6,7.6-5.6c1.3,0,2.7,0.3,3.7,1.3c0.3,0.3,0.7,0.7,1,1c1.7,1.7,1.7,1.7,4.6,0
	c1-0.3,1.7-1,2-1.3c2.3-1.7,3.7-2.3,7-1s8-4.6,11.3-9c1.7-2,3-3.7,4-5c4.3-4,7-7.3,9.3-10.3c1.3-1.7,2.3-3,3.7-4.3
	c0-1.7-0.3-3-0.7-4.3c-1.3-4.6-5.3-8.6-9.6-12.6c-2-2-4.3-4-6.3-6.3c-2.3-2.7-5-4.6-7.6-7c-3-2.3-3-13.3-2.7-22.2
	c0.3-0.3,0.7-0.7,1.3-0.7c2-1,3.7-0.7,4.6,0.3c1.3,1,2,3,2.7,5.6c1.3,4.3,2.7,7.3,5.6,7.6c7,1.3,11,5,11,10.6
	c0,2.7,3.3,9.6,6.6,12.9c1.3,1,2.3,1.7,3,1.7c5.3,0,6.6-3,9.3-7.6c0.7-1.3,1.3-2.3,2-3.7c1.7-2.7,4-5.3,6.3-8.3c4-5,9-10.6,9.6-15.3
	c0.3-2,0.3-4.3,0.7-7c0.3-7.6,1-16.6,7.3-19.6c7.3-4,17.3-7.3,23.9-8c1.3,0,3-0.3,4.6,0c-0.3-3.3-0.7-7-0.7-9.3c0-1.3,0.3-2.7,0.3-4
	l0.3-1.7c0.3-3.3,1-7-1-10c-1.7-2.7-3.7-5-5.6-7L372,202c-2.3-2.3-4.3-4.3-5.3-6.6c-1.3-3-2.3-5.3-2.3-7.6c0-4.3,2.3-6.6,7-7
	c1.7-0.3,3.7-0.3,5.3,0c3,0,5,0,8-1.7c2-1,3.7-3,5-4.6C391.2,172.2,391.5,170.9,391.5,169.6z"/>
</svg>
