<?xml version="1.0" encoding="utf-8"?>
<!-- Generator: Adobe Illustrator 19.2.1, SVG Export Plug-In . SVG Version: 6.00 Build 0)  -->
<svg version="1.1" id="Layer_1" xmlns="http://www.w3.org/2000/svg" xmlns:xlink="http://www.w3.org/1999/xlink" x="0px" y="0px"
	 viewBox="0 0 465 440" style="enable-background:new 0 0 465 440;" xml:space="preserve">
<style type="text/css">
	.st0{fill:#FFFFFF;}
</style>
<path class="st0" d="M463.8,220.7c0.5-1.4,0.5-2.9,1-4.3c1-6.7-0.5-8.1-3.3-8.6c-4.3-0.5-7.6,0.5-10.5,1.4h-0.5
	c-4.3,1.4-9.1,2.9-13.8-1.9c-3.3-3.8-4.8-9.5-6.2-15.7v-1c-1-4.3-2.4-9.5-3.8-10.5c-2.4-2.4-6.2-4.8-10.5-6.7
	c-3.8-1.9-8.1-3.8-11.9-4.8c-2.9-0.5-4.8-0.5-6.2-0.5c-2.9,0-5.7,0.5-9.1-2.4c-2.4-1.4-6.2-4.8-8.6-8.1c-2.4-2.9-3.8-6.2-3.8-8.6
	c0-1.4-0.5-2.4-0.5-3.3c-1-2.9-1-5.2,2.9-10.5c5.2-7.6,6.7-18.1,5.7-26.7c-1.9,0.5-4.3,1.4-7.1,1.9c-5.2,1.4-9.5,3.3-13.3,4.8h-0.5
	c-8.1,2.9-14.8,5.2-24.8,5.7c-17.6,1-18.1-7.1-18.6-18.6v-1.9c0-5.2-1.9-7.1-4.3-9.5c-2.9-2.9-5.2-5.2-7.1-10.5
	c-1.4-4.3-2.4-7.6-4.3-11c-1.9-3.3-4.3-7.6-8.6-14.3c-2.4-3.8-3.8-8.6-4.8-12.9c-0.5-2.9-1.9-7.1-2.9-7.6c0,0-1.4-0.5-5.7,4.3
	c-3.3,3.8-7.1,7.6-18.6,4.8c-6.7-1.9-10.5-4.8-12.9-7.1c-2.9-2.4-3.3-2.9-7.1,0c-3.3,2.4-5.7,5.2-7.6,7.6
	c-4.8,6.2-9.5,12.4-22.9,8.6c-6.7-1.9-11-3.8-13.8-5.2c-5.2-2.4-10-4.8-20.5-4.8c-9.5,0-16.2-1-21.9-1.4l-3.8-0.5
	c-3.3-0.5-6.7-0.5-10-0.5c-4.8,0-8.1,0-10.5-0.5c-2.4,3.8-4.8,7.6-7.6,11c-6.2,8.1-12.9,14.3-18.1,17.2c-5.7,3.3-12.9,6.2-20,8.1
	c-6.7,1.9-14.3,2.4-21.4,2.4c-9.5,0-13.8-2.9-17.6-5.2c-2.9-1.9-4.8-3.3-9.1-2.9C32.6,71,28.8,75.3,26,79.1l-1,1
	c-1,1.4-2.4,2.4-3.3,3.3c-3.3,2.4-8.1,2.9-11.4,2.4c-0.5,1-1,1.9-1.4,2.9l-0.5,0.5c-0.5,0.5-1,1.4-1.4,2.4c-0.5,1-1,1.9-1.9,2.9
	c-0.5,1-1.4,2.4-1.9,3.3c-1,1.4-1.9,2.9-2.9,4.3c1.9,1,3.3,1.9,4.8,2.9l0,0c0,0,1.4,0.5,2.9,1.4l0.5,0.5c6.7,3.3,16.2,9.1,17.6,16.2
	c0.5,2.4,0.5,4.3,1,5.7c0.5,4.8,0.5,7.1,4.3,9.5s6.7,5.7,9.1,8.6c3.3,4.3,5.7,8.6,7.1,11.4c1.4,3.3,1.9,6.7,1.9,10
	c0,2.9-1.4,6.2-3.3,8.6l0,0c0,0.5,0,1.9,1.4,4.8c1,2.4,3.3,4.8,5.2,6.7c1,0.5,1.4,1,1.9,1.4c4.3,1.4,8.1,3.8,11,7.6
	c2.9,3.3,4.3,6.7,5.2,9.1c1.4,3.8,2.4,5.2,5.2,5.7c9.1,1.4,11.9,4.8,15.7,11.9c2.9,5.2,5.2,12.4,6.2,18.6c1.4,7.6-1.9,10.5-4.8,13.3
	c-2.9,2.9-4.8,6.2-5.2,8.6c0,1.4,0.5,2.9,1.9,4.3c9.1,9.5,14.3,18.6,14.3,33.8c0,1.4,0,3.3-0.5,4.8c1.9,0.5,3.8,1,5.7,1.9
	c5.7,1.4,11.4,3.3,16.2,5.7c5.7,2.9,10,4.3,13.8,5.7c7.1,1.9,11,6.7,13.3,10c1.4,1.9,2.9,3.3,4.3,4.3c2.9,1.9,5.2,4.3,7.1,6.2
	c1.9,1.9,3.8,2.9,5.2,3.8c2.4,1.4,4.8,2.4,7.1,5.7c2.4,2.9,4.3,6.7,3.8,10c0,3.3,1,5.7,2.9,7.6s4.8,2.4,8.1,1.9c2.4-0.5,4.3-1,6.2-1
	c4.3,0,8.1,2.9,10.5,5.2c1.9,1.4,3.8,2.9,5.2,3.3c1.9,0.5,4.3,1,8.1,0.5c2.9,0,5.2-0.5,8.1-1l1.9-0.5c3.3-0.5,7.6-0.5,12.9,1
	c4.3,1,8.6,2.9,11.4,4.8c1,0,2.4-0.5,4.3-0.5c4.8,0,11.4,1.4,16.7,9.1c3.8,5.7,8.6,7.1,13.8,8.6c2.4,0.5,4.8,1.4,7.6,2.9
	c1.9,1,3.3,1.4,5.2,1.9c2.4,0.5,4.3,0.5,5.2,0.5c1,0,1.4-0.5,1.4-0.5v-0.5c0.5-2.4,1.4-5.7,1.9-10s0-8.6-1.4-11.9
	c-1.9-5.7-1.4-11.4-0.5-15.7c1.4-5.7,3.8-11.9,6.7-15.7c2.4-2.9,5.7-6.7,10.5-10.5c5.2-4.3,11.9-8.1,19.1-11.9
	c5.2-2.4,9.1-5.2,12.9-7.6c7.1-4.8,12.9-8.6,21.9-8.1c5.7,0.5,11,1,14.8,0c4.3-0.5,4.3-1.9,4.3-2.4c0.5-1.9,0-4.3,0-7.1v-1.9
	c-0.5-5.7-1.4-11.4,2.4-14.8c1.9-1.9,5.2-3.3,11-3.8c6.2-1,12.9-1,17.6-1c4.3,0,11-2.9,14.8-6.2c8.6-6.2,8.1-9.1,3.3-17.6
	c-5.7-10.5-5.7-14.3,5.2-21c4.8-2.9,7.1-4.8,7.6-10.5C462.8,226.5,463.3,223.6,463.8,220.7z"/>
</svg>
