<?xml version="1.0" encoding="utf-8"?>
<!-- Generator: Adobe Illustrator 19.2.1, SVG Export Plug-In . SVG Version: 6.00 Build 0)  -->
<svg version="1.1" id="Layer_1" xmlns="http://www.w3.org/2000/svg" xmlns:xlink="http://www.w3.org/1999/xlink" x="0px" y="0px"
	 viewBox="-20 -20 505 480" style="enable-background:new 0 0 465 440;" xml:space="preserve">
<style type="text/css">
	.st0{fill:#fff;}	
	filter: url(#drop-shadow);
</style>

<defs>
	<filter id="drop-shadow">
		<feGaussianBlur in="SourceAlpha" stdDeviation="30"/>
		<feOffset dx="0" dy="0" result="offsetblur"/>
		<feFlood flood-color="#6877b1" flood-opacity="0.15"/>
		<feComposite in2="offsetblur" operator="in"/>
		<feMerge>
			<feMergeNode/>
			<feMergeNode in="SourceGraphic"/>
		</feMerge>
	</filter>
</defs>
<path filter="url(#drop-shadow)" class="st0" d="M379.6,252.2c1.3-0.4,2.5-1.3,5.1-4.7c3.8-5.1,5.9-8.9,8.1-12.3l1.7-2.5c0.8-1.7,2.1-3.4,3.4-5.5
	c0.4-0.4,0.8-1.3,0.8-1.7l0.4-0.8c0.4-0.4,0.4-0.8,0.8-0.8c0,0,0-0.4-0.4-0.8c-0.4-0.8-0.4-1.7-0.8-2.5l-0.4-1.3
	c-0.8-3-4.7-7.2-6.8-10.2c-4.2-5.1-8.9-10.6-8.9-15.7c0-4.7,1.7-5.9,3.8-7.2c0,0,0-0.4,0-1.7c0-1.7-1.3-2.5-5.5-3.8
	c-3-0.8-6.8-2.1-11-5.1c-1.7-0.8-2.1-1.3-2.5-1.3c-0.4,0.4-0.4,0.8-0.4,1.3l-0.4,0.4c-1.3,1.7-2.5,4.2-5.5,6.4
	c-4.7,3.4-11,5.9-17.4,8.1l-3.8,1.3c-2.5,0.8-5.1,1.7-7.2,3c-5.5,2.5-10.6,3-16.6,2.1c-5.1-0.8-11-3.4-18.3-6.4
	c-9.8-4.2-11.9-5.9-11-11c0-0.8,0.4-2.1-0.8-4.7c-3-5.9-2.1-8.5-0.8-11.5c0.4-1.3,0.8-2.1-0.8-5.5c-3.4-5.9-4.7-6.4-7.6-7.6
	l-1.3-0.4c-1.3-0.8-3.4-1.3-5.5-3c-4.2-2.5-5.9-1.7-9.8-0.4c-2.1,0.8-5.1,2.1-9.3,2.5c-12.3,1.7-14-0.8-17.4-9.8l-0.4-0.8
	c-2.1-5.5-1.3-8.1,0-10.6c0.4-0.8,0.4-0.8,0-1.7c-0.4-1.3-1.7-1.7-3.4-2.5l-0.4-0.4c-3-1.7-6.8-3.4-8.1-10.2c0,0,0-0.4,0-0.8
	s0-0.8-0.4-1.7c-1.3-6.4-1.7-8.9-8.5-11C199.9,95,199.4,88.2,199,82.7v-1.3c-0.4-4.2,0-7.6,0.8-11.5c1.3-5.1,4.2-9.3,8.5-12.7
	c2.1-1.7,3-5.9,3-11.5c-0.4,0-0.8-0.4-1.3-0.4c-5.1-2.1-11.5-4.7-16.1-10.2c-3-3.4-3.8-7.2-4.7-10.6c-0.8-3.4-1.3-6.4-3.8-8.9
	c-1.7-2.1-2.5-4.7-3.4-6.4c-1.3-3.8-2.1-6.4-9.8-6.8c-2.1,0-4.2-0.4-6.4-0.4C155.6,1.2,148,0.3,142,5c-5.9,5.1-13.2,7.6-17.8,7.2
	c-2.5-0.4-3.8-1.3-4.7-2.5c-0.8-0.8-1.3-2.5-2.1-3.8c-2.5-5.1-3.8-6.4-5.5-5.5c-1.3,0.8-2.5,1.3-3.8,1.7c-3.8,1.7-7.2,2.5-11,7.2
	c-5.5,6.8-12.3,8.1-18.7,8.9c0,3.8,0,8.9-0.4,13.6c-0.8,6.4-1.7,10.2-3.4,12.3c-1.7,2.1-3.4,3.4-5.5,5.1l-0.4,0.4
	c-1.7,1.3-3,2.5-3.4,3.8c-0.4,0.8,0,3,1.3,5.9c2.1,5.1,4.7,6.4,8.5,8.9c1.7,0.8,3.4,2.1,5.1,3.4c3.4,2.5,5.5,4.7,7.2,6.4
	c2.1,3,2.5,6.8,1.3,10.6c-0.8,3.4-3.4,7.2-6.8,11.5c-1.3,1.7-2.1,3.8-1.7,5.5c0.4,2.1,1.7,3,3,4.7c2.5,3,5.9,6.4,5.1,15.3
	c-0.4,4.7,2.1,6.4,5.1,8.5c3.4,2.5,7.6,5.5,5.5,13.6c-0.8,3.4-3,8.1-5.9,13.6c-1.3,2.5-2.5,4.2-4.2,5.9c-1.7,2.1-2.1,2.5-0.8,8.5
	c0.8,5.9,0.8,9.8,0,12.7c-1.3,3.4-3,5.9-5.5,8.1c-0.4,0.4-2.1,2.1-2.1,3c0,1.3,0.4,2.5,0.8,3c0.4,0,0.4,0.4,1.3,0.4
	c2.1-0.4,4.7-0.8,7.6,0c5.1,1.3,8.9,9.3,12.7,17.4c0.8,2.1,2.1,3.8,3,5.1c2.1,3.8,3.4,6.4,4.2,13.6v1.3c0,1.3,0.4,3,0.8,4.7
	c0.4,2.1,0.8,4.2,1.3,5.9l0.4,2.1c1.7,5.9,3.4,13.6-3,18.3c-4.2,3-3,5.9-0.4,12.3c0.4,0.8,0.8,1.7,1.3,3l0.4,1.3
	c0.8,2.1,1.7,4.2,2.1,5.9c2.1,6.8-2.5,13.6-13.2,20.4c-4.7,3-9.8,5.9-13.6,7.6c-2.1,1.3-4.2,3-5.5,5.1c-1.7,2.5-2.5,5.5-2.5,8.1
	c0,0.8,0,1.7,0,2.5s0,1.7,0,2.1c0.4,2.1,0.4,5.5,0,9.8c2.5,1.7,4.2,3.8,5.5,5.5c1.3,2.5,1.3,4.7,1.3,6.4c0,0.8-0.4,2.1,0.4,3.8
	c0.8,2.1,1.3,4.2,2.1,5.9l0.8,1.7c0.4,0.8,0.8,1.7,1.3,2.5l0.8,1.7c1.3,3,1.7,5.5,1.7,8.9c0,2.5-0.8,5.9-1.7,9.8
	c-1.3,4.7-3.8,6.8-5.9,8.5l-0.4,0.4c-0.8,0.4-1.3,1.3-1.3,1.7c0,1.3,0.4,3,1.7,4.7c1.7,2.1,3.8,3.8,7.2,5.5c5.1,3,6.4,4.7,7.6,7.6
	c0.8,2.1,2.1,4.2,4.7,7.6c2.5,3.4,4.7,5.9,5.5,8.1c3.4,0,7.6-0.4,8.5-0.4l0,0c0,0,0.8-0.4,3.4-2.5c2.5-2.1,4.7-4.7,5.9-5.9
	c3.4-4.7,11.9-7.6,18.7-10.2l3.4-1.3c1.3-0.4,2.1-0.8,3-1.3c4.7-2.1,8.9-3.8,14.4,0.8c2.5,2.1,6.8,3.4,10.2,4.7
	c2.1,0.8,4.2,1.3,5.5,2.1c1.7,0.8,2.1,0.8,2.1,0.8s0.8-0.4,2.5-3.8c1.3-2.5,2.1-4.2,2.5-6.4c0.8-2.5,1.7-5.1,4.2-8.5
	c3.8-5.1,9.8-3.8,14.9-2.5c2.1,0.4,4.7,0.8,6.4,0.8c5.1-0.4,9.3,0.4,13.6,1.7c1.3,0.4,3,0.8,4.2,1.3h0.4c3,0.4,5.1,0.4,8.1,0h0.8
	c1.3,0,2.5-0.4,3.8-0.4c0,0,2.1-1.3,10.2-10.6c8.1-9.3,17.4-21.7,20-25.9c2.1-4.2,2.5-6.4,3.4-12.7c0.4-3.4,0.4-7.2,1.7-12.7
	c2.5-16.6,6.4-25.9,8.9-31.4l0.4-0.8c2.1-4.7,5.1-5.9,7.2-6.8l0.4-0.4c0.8-0.4,1.7-0.8,3-1.7c3.8-3.8,8.9-3.4,13.2-3h1.3
	c1.3,0,2.1,0.4,3.4,0.4c4.2,0,5.9,2.1,7.6,3.4l0.4,0.4c1.3,1.3,1.7,1.7,3.4,1.3c6.4-1.3,7.6-0.8,11,1.7c0.4,0.4,0.8,0.8,1.7,1.3
	c1.3,0.8,3.4,0.4,7.6-1.7l1.3-0.4c0.8-0.4,1.7-0.8,3-1.3c3-1.3,3.4-2.5,3.8-5.9c0.4-3,0.8-5.9,2.1-9.3c0.4-1.3,0.8-2.5,1.3-3.4
	c0.4-0.8,0.4-1.3,0.8-1.7c1.3-3,1.3-3,3-11c0.4-1.7,0.4-3,0.8-3.8c0.4-1.3,0.4-2.1,0.4-2.5v-0.4c0-0.4,0-0.8,0-0.8
	c0-0.4,0.4-0.8,0.4-1.3c0,0,0.4-0.4,0.4-0.8l0.4-0.8c0.4-0.8,0.8-2.1,1.7-3.8C374.1,254.3,376.6,253,379.6,252.2z"/>
</svg>
