<?xml version="1.0" encoding="utf-8"?>
<!-- Generator: Adobe Illustrator 19.1.0, SVG Export Plug-In . SVG Version: 6.00 Build 0)  -->
<svg version="1.1" id="Layer_1" xmlns="http://www.w3.org/2000/svg" xmlns:xlink="http://www.w3.org/1999/xlink" x="0px" y="0px"
	 viewBox="-83 127 505 500" style="enable-background:new -53 157 505 480;" xml:space="preserve">
<style type="text/css">
	.st0{ filter:url(#drop-shadow); fill:#fff; }
	.dot{ fill:none; stroke:#0068D2; stroke-width:4; stroke-miterlimit:10; }
	.dot:hover{ fill:#0069d2; }
	
	filter: url(#drop-shadow);	
</style>
<filter  id="drop-shadow">
	<feGaussianBlur  stdDeviation="30" in="SourceAlpha"></feGaussianBlur>
	<feOffset  dx="0" dy="0" result="offsetblur"></feOffset>
	<feFlood  flood-color="#6877b1" flood-opacity="0.15"></feFlood>
	<feComposite  operator="in" in2="offsetblur"></feComposite>
	<feMerge>
		<feMergeNode></feMergeNode>
		<feMergeNode  in="SourceGraphic"></feMergeNode>
	</feMerge>
</filter>
<g class="st0"  filter="url(#drop-shadow)">
	<path d="M228.3,438.8c7.1-20.2,8.7-22.4,31.6-15.3c4.9,1.6,9.8,3.3,13.6,3.8c3.3,0.5,3.8-0.5,6.5-4.9c7.1-12.5,13.1-15.8,25.6-20.2
		l1.6-0.5c3.3-1.1,7.1-2.7,10.9-4.9c4.4-2.2,8.7-6,12.5-11.4c3.8-4.9,6.5-11.4,8.7-18.5c2.7-10.4,9.3-12,20.2-14.7l2.7-0.5
		c6.5-1.6,14.2-3.8,24.5-8.2c1.1-0.5,2.7-1.1,4.4-1.6c2.2-1.1,7.1-2.7,7.6-3.8c0,0,0-1.1-1.6-2.2c-3.8-3.3-8.2-8.2-8.7-15.8
		s-2.2-8.7-6.5-10.4c-3.3-1.6-7.6-3.3-12.5-7.6c-13.1-11.4-7.1-32.7-4.4-42.5c0.5-1.6,1.1-2.7,0.5-3.8c0-1.1-0.5-2.2-1.1-2.7
		c-0.5-0.5-1.6-1.1-3.3-1.6c-1.1,0-2.2-0.5-4.4-0.5c-4.9,0-7.6-1.1-9.3-3.3c-1.1-1.6-1.6-3.8,0-7.1c-2.2-2.2-2.7-4.4-2.7-6
		c-0.5-2.2-0.5-2.7-5.5-2.7c-3.8,0-8.2,1.1-12,1.6H327c-19.1,3.3-27.3,4.4-38.7-14.2c-5.5-8.7-5.5-8.7-13.6-7.6
		c-6.5,1.1-17.4-3.3-19.6-10.4c-1.1-3.3-1.1-9.8,10.9-14.7c2.2-1.1,3.3-1.6,3.3-2.7c0-2.7-6.5-7.6-9.3-9.3l-0.5-0.5
		c-2.2-1.6-4.9-3.3-8.7-6c-6.5-4.9-8.7-4.4-10.9-4.4s-4.9,0.5-9.3-1.1c-3.3-1.1-8.2-3.3-15.3-5.5c-0.5,6-1.6,10.4-4.4,13.1
		c-2.2,2.7-3.8,4.9-4.9,6.5c-2.2,3.8-3.8,7.1-11.4,12c-6.5,4.4-12,3.8-17.4,2.7c-5.5-0.5-10.4-1.6-18.5,2.2
		c-16.9,7.6-62.1,41.4-75.8,62.1C74.7,268.2,57.3,283,42,295.5c-10.9,9.3-21.3,18-26.2,24c-5.5,7.1-12,13.6-18,20.2
		c-6.5,7.1-13.1,13.6-18,20.7c-2.7,3.8-5.5,6.5-7.1,9.3c-4.9,6-7.1,8.7-8.7,19.1c-1.1,6.5,1.6,12.5,4.4,19.6
		c3.3,7.6,6.5,15.8,3.8,24c-1.6,5.5-3.8,10.4-6,15.8c-3.3,7.1-6,14.2-6,20.2c0,5.5,1.1,6.5,2.7,9.3c1.6,1.6,3.3,3.8,5.5,7.6
		c1.6,3.3,4.4,6,6.5,8.2c3.3,3.3,6,6,5.5,9.3c0,1.6-1.1,3.3-2.2,4.4c0.5,1.6,1.1,3.8,1.6,6l0.5,1.6c1.1,5.5,1.6,10.9,2.2,15.8
		c1.1,9.8,1.6,18.5,8.7,24.5c0.5,0.5,0.5,0.5,1.1,1.1c0.5,0.5,1.1,0.5,1.1,1.1c1.1,1.1,6.5,1.1,10.4,0.5h1.1c1.6,0,2.7,0,3.8,0
		c6.5,0,9.8,1.6,11.4,12v0.5c0.5,3.3,1.1,6.5,3.3,9.3c2.7,4.4,4.4,4.4,8.2,4.9c8.7,1.1,14.2,3.3,23.4,7.6l0.5,0.5
		c5.5,2.7,10.9,4.9,14.2,4.4c2.2-0.5,2.7-1.6,3.8-6l0.5-2.2c0.5-2.7,1.6-5.5,3.3-8.7c2.2-4.9,1.6-9.3,1.6-14.2v-0.5
		c-0.5-4.9-1.1-9.8,0.5-16.4c1.1-7.1,11.4-16.9,21.8-26.2l2.7-2.7c2.2-1.6,3.8-3.3,4.9-4.9c9.8-9.3,10.9-9.3,29.4-8.2h2.2
		c7.1,0.5,16.9,1.1,20.7-0.5c6-2.7,21.3-3.3,37.1-4.4c4.9-0.5,9.8-0.5,13.6-0.5s8.2,0,9.8-0.5c-0.5-1.1-1.6-2.7-5.5-6.5
		c-3.3-3.8-5.5-6-7.1-9.3s-2.2-6.5-1.6-10.9c0-6,3.8-9.3,7.6-12c2.7-2.2,6-4.4,7.6-8.7c1.6-3.3,3.3-7.6,4.9-12L228.3,438.8z"/>
</g>
<circle class="dot" id="lviv_department_1" cx="175.7" cy="402.3" r="7.7"/>
<circle class="dot" id="lviv_department_2" cx="57.5" cy="361.2" r="7.7"/>
<circle class="dot" id="lviv_department_3" cx="199.5" cy="275.2" r="7.7"/>
</svg>
