<?xml version="1.0" encoding="utf-8"?>
<!-- Generator: Adobe Illustrator 19.2.1, SVG Export Plug-In . SVG Version: 6.00 Build 0)  -->
<svg version="1.1" id="Layer_1" xmlns="http://www.w3.org/2000/svg" xmlns:xlink="http://www.w3.org/1999/xlink" x="0px" y="0px"
	 viewBox="0 0 465 440" style="enable-background:new 0 0 465 440;" xml:space="preserve">
<style type="text/css">
	.st0{fill:#FFFFFF;}
</style>
<path class="st0" d="M360.6,221.3c0.5-0.5,1.1-1.1,2.1-2.1c5.3-5.3,6.4-9.6,7.4-13.3c2.1-6.4,4.8-10.1,6.9-13.8
	c3.2-4.8,6.4-9.6,8.5-19.1c1.1-4.8,3.7-9,5.8-12.7c2.1-3.7,3.7-6.4,3.7-9c-0.5-12.2,9.6-19.1,19.1-26c2.7-2.1,5.3-3.7,8-5.8
	c1.6-1.1,3.2-2.7,4.8-3.7c0-5.3,3.2-9,5.8-11.7c2.1-2.1,3.2-3.2,2.7-3.7c-1.1-2.7-3.2-3.2-7.4-4.8c-2.1-0.5-4.8-1.6-6.9-2.7
	c-2.7-1.6-9-0.5-14.9,0.5c-4.8,0.5-9.6,1.6-13.3,1.1c-2.1,0-4.8,0-6.9,0c-5.3,0.5-12.2,1.1-14.9-6.4c-1.6-4.8-2.7-5.8-4.8-8
	c-1.1-1.1-1.6-1.6-2.7-3.2c-3.2-4.2-3.2-10.1-3.2-14.3c0-1.6,0-3.2,0-4.2c-1.1-3.7-2.1-8.5-11.7-7.4c-3.7,0.5-6.9,1.1-9.6,1.6
	c-5.3,1.1-10.1,2.1-16.5,1.1c-11.7-1.6-21.8-5.3-30.3-11.1l-1.6-1.1c-7.4-5.3-10.1-6.9-17.5-6.4c-1.6,0-3.2,0.5-4.2,0.5
	c-6.9,1.1-13.3,1.6-17.5-3.7c-1.1-1.6-2.1-3.2-2.7-4.2c-1.1-2.1-1.6-2.7-5.3-3.2c-2.1-0.5-5.8-0.5-9-0.5c-8,0-15.9,0-20.2-3.2
	c-2.1-1.6-3.7-3.7-5.8-5.8c-3.7-4.2-8-8.5-12.2-9c-2.7,0-4.8-0.5-6.4-1.1c-3.7-1.1-6.4-1.6-13.3,0.5c-6.4,1.6-12.2,0-18-2.1
	c-4.5-1.7-9.8-3.3-16.1-3.3c-2.7,0-5.3,0-7.4,0c-3.2,0-6.4,0-9,0c0,0.5,0,1.1,0,1.1s0.5,0,1.1,0.5l0.5,0.5c2.1,1.1,5.3,2.7,7.4,7.4
	c0.5,1.6,1.1,2.7,1.6,3.2c2.7,3.7,4.2,6.4,1.6,13.8c-1.6,4.8-5.3,7.4-8.5,10.6c-3.7,3.2-6.9,5.8-7.4,10.1c-1.1,5.8-2.7,8.5-3.7,10.6
	c-1.1,1.6-1.6,2.1-1.1,4.8c0,1.1,0.5,1.6,0.5,2.1v0.5v1.1c0.5,4.8,1.1,6.9,4.2,11.7c3.7,5.3,3.7,8,1.1,11.7
	c-0.5,1.1-1.6,2.7-2.1,5.8c-1.1,5.3-0.5,10.6,0.5,16.5v2.7c0,1.1,0,2.1,0.5,3.7c0,2.7,0.5,4.8,0.5,7.4c0,2.1,0.5,2.7,0.5,2.7
	c1.1,0,3.2-0.5,3.7-0.5c2.1-0.5,4.8-1.1,7.4-1.1c1.6,0,2.1-0.5,3.2-1.1l0.5-0.5c1.6-1.1,3.7-2.1,5.8-1.1c2.7,1.1,4.8,3.7,8.5,12.2
	c3.2,6.4,6.4,12.7,10.6,18.6c3.7,5.3,7.4,9,9.6,11.1c1.6,1.6,3.7,2.1,6.4,2.7h0.5c5.8,1.6,13.3,4.2,11.1,13.3
	c-0.5,1.6-0.5,2.1-0.5,3.2v1.1c-1.6,6.4-2.1,8-8.5,12.2l-0.5,0.5c-1.1,0.5-2.1,1.6-3.7,2.1l-0.5,0.5c-1.1,0.5-2.7,1.6-3.2,2.1
	c0.5,0.5,1.6,0.5,2.1,0.5l1.1,0.5c4.8,1.6,10.6,3.2,11.1,11.7c0,2.1,1.1,3.7,2.1,5.3c2.1,3.2,3.7,6.4-1.1,12.7
	c-1.6,2.1-3.7,4.2-5.3,5.8c-2.1,2.1-4.2,4.2-6.4,7.4c-1.1,2.1-1.1,4.2-1.6,6.4c0,5.3-1.1,9-9.6,14.9c-1.1,1.1-2.7,1.6-3.7,2.1
	c-3.7,2.1-6.9,3.7-8,6.9c-0.5,1.6-1.1,4.8-1.1,9l-0.5,3.2c-0.5,4.2-1.1,8-2.1,11.7c-1.6,4.8-5.8,12.7-12.2,12.2
	c-4.8,0-8.5-5.3-11.1-9.6c-3.7-6.4-4.2-6.9-10.1-9.6l-2.1-1.1c-4.2-2.1-8,0.5-13.8,4.2l-2.1,1.6c-7.4,4.8-11.1,4.8-18,1.1
	c-1.6-1.1-2.7-1.1-3.7-0.5c-2.1,0.5-3.2,4.2-4.2,7.4c-0.5,1.1-0.5,1.6-1.1,2.7c-2.7,6.4-5.3,13.3-10.1,15.4c-3.7,1.6-6.9,0.5-10.1,0
	h-0.5c-4.2-1.6-5.3-1.1-7.4,4.2v0.5c-0.5,1.1-1.1,2.7-3.2,6.4c-1.1,2.1-1.6,3.2-2.7,4.2c-1.6,2.7-1.6,2.7,1.1,8
	c0.5,1.6,1.6,2.7,2.1,3.7c3.2,5.8,5.8,10.6-3.2,18.6c-3.2,3.2-6.4,4.8-9,6.4c0.5,0,0.5,0,1.1,0c1.1,0,2.7,0,3.7,0.5
	c3.2,1.1,5.8,2.7,7.4,4.8c2.1,2.1,3.2,4.8,3.2,8c0,2.7-0.5,4.8-1.1,6.9c-2.1,8-7.4,24.4,1.1,31.8c3.2,2.7,6.4,4.2,9,5.3l0.5,0.5
	c2.7,1.1,5.3,2.1,7.4,4.2c2.1-1.1,5.3-3.2,6.4-6.4c6.4-22.8,12.7-22.3,24.9-20.2c2.7,0.5,5.8,1.1,9,1.6c12.2,1.1,19.1-0.5,27.1-2.7
	l2.1-0.5c4.2-1.1,9.6-5.3,15.4-9.6c3.7-3.2,8-6.4,11.7-8c8.5-3.7,18.6,0,29.2,4.2c11.1,4.2,13.8,9.6,13.3,21.2
	c3.2-1.1,3.7-1.6,5.3-3.7c1.1-1.6,2.7-3.7,6.4-7.4c3.2-3.2,6.4-5.3,9.6-6.4c2.7-0.5,4.8-1.1,6.9-1.6c4.8-1.1,7.4-2.1,10.1-5.3
	c2.7-3.7,6.9-6.4,10.6-9.6c5.8-4.2,12.2-9,15.9-15.4s6.9-11.1,10.1-14.9c3.2-3.7,6.9-6.9,11.1-9c3.2-1.6,6.9-2.1,10.1-2.1h1.1
	c3.7,0,6.9,0,9.6-1.6c2.1-1.1,3.7-3.2,5.8-4.8l0.5-0.5c3.7-4.2,8.5-9.6,15.9-6.9c5.3,1.6,8,4.8,9.6,7.4c1.1,1.1,1.6,1.6,2.1,1.6
	c1.1,0,2.1,0,3.2,0c0.5-0.5,1.1-0.5,1.6-1.1c0.5-0.5,0.5-0.5,0.5-1.1c0,0,0-0.5-0.5-1.1c-2.1-7.4,2.1-21.8,5.8-34l0.5-1.1
	c0.5-2.7,1.1-4.8,1.1-6.9c0-2.7-0.5-4.8-1.1-6.9c-0.5-3.2-1.6-6.9-1.6-13.3c0-5.8,0.5-14.3-0.5-22.3c-2.1-15.9,3.2-21.2,11.7-29.7
	C359.5,222.4,360.1,221.9,360.6,221.3z"/>
</svg>
