<?xml version="1.0" encoding="utf-8"?>
<!-- Generator: Adobe Illustrator 19.2.1, SVG Export Plug-In . SVG Version: 6.00 Build 0)  -->
<svg version="1.1" id="Layer_1" xmlns="http://www.w3.org/2000/svg" xmlns:xlink="http://www.w3.org/1999/xlink" x="0px" y="0px"
	 viewBox="0 0 465 440" style="enable-background:new 0 0 465 440;" xml:space="preserve">
<style type="text/css">
	.st0{fill:#FFFFFF;}
</style>
<path class="st0" d="M205,365.7c4.4-4.9,8-7.1,11.6-7.1c0.4,0,0.9,0,1.8,0c4.9,1.3,6.7,7.1,8.5,13.8c0.9,3.6,2.2,7.1,3.6,9.3
	c4,6.2,6.7,10.7,8.5,14.2c1.8,3.6,2.7,6.2,4,11.1c0.9,3.1,2.7,4.4,4.4,6.2c3.1,2.7,6.2,6.2,6.7,14.2v2.2c0.4,8.9,0.4,10.2,8.9,10.2
	c8-0.4,13.3-2.2,20.9-4.9c4-1.3,8.5-3.1,13.8-4.4c8-2.2,13.3-4,17.4-5.8c3.6-1.3,5.8-2.7,8.9-4.9l4.9-3.1
	c4.4-2.7,11.1-6.7,17.4-10.7c7.6-4.4,15.1-9.3,19.6-12c6.7-4.4,13.8-3.6,21.8-2.7h1.3c4.4,0.4,8.9,0.9,13.8,0.4
	c2.2-0.4,3.6-3.1,4.4-6.2c-3.1,0.4-6.2,0-8.5-0.9c-3.1-1.3-5.3-3.6-5.8-6.7c-0.4-1.8-3.1-3.1-5.8-4.4c-4.9-2.7-10.7-5.8-13.3-14.2
	c-1.3-4.4-3.1-7.6-4.9-10.7c-2.7-5.3-5.3-9.8-2.2-16c4-7.6,6.7-24,2.2-29.8c-5.3-7.1-10.2-19.1-13.3-26.7l-0.4-0.9
	c-3.1-7.6-5.3-13.8-0.9-19.6c1.3-1.8,1.8-3.1,1.3-4.4c0-0.9-0.4-1.3-0.4-1.3c-0.9,0-2.2,0.4-3.1,0.9c-1.8,0.4-4,1.3-6.2,1.3
	c-4.4,0.4-12-1.8-15.1-8.9c-0.9-2.2-1.8-5.3-2.2-8.9c-0.9-4.4-2.2-11.6-4.4-12c-0.9,0-1.8-0.4-2.7-0.4c-4.9-0.9-10.2-2.2-14.2,0.4
	l-1.3,0.9c-5.3,3.1-10.7,6.7-18.2,8c-8,1.8-15.6,3.1-19.1-2.7c-0.9-1.3-1.8-2.2-2.7-3.6c-1.8-2.7-4.4-5.8-3.6-8.9
	c-4.9-1.3-21.8-1.3-25.4,0c-1.8,0.4-3.6,1.3-4.9,2.2c-2.2,1.3-4.4,2.7-7.1,2.7c-0.9,0-1.8,0-2.7,0.4c-2.2,0.4-4.9,0.9-6.7-0.4
	c-0.9-0.9-1.8-2.2-1.8-3.6c-0.4-4,2.2-6.7,4-8.9c0.4-0.9,1.3-1.3,1.3-2.2c0.4-0.4,0.4-0.9,0.9-1.3c1.3-1.8,3.1-4,2.7-5.8
	c-0.4-1.3-1.8-2.2-3.1-2.7c-5.3-2.7-8.9-5.8-10.2-9.8c-0.9-2.7-0.4-5.3,0.9-8c2.2-4.4,0-22.7-7.1-30.3c-5.3-5.3-7.1-9.3-6.7-12.5
	c0.4-2.7,2.2-4.4,5.3-6.7c3.1-1.8,8-2.7,12.9-3.1c5.3-0.4,10.7-1.3,13.3-3.6l0.9-0.9c4.9-4,5.8-4.4,4.4-9.8
	c-0.4-3.1-5.3-6.2-9.8-9.8c-5.3-3.6-10.2-7.6-13.3-12c-2.7-4.4-4.9-7.1-7.6-9.3c-2.2-2.2-4.9-4.9-7.1-8.9c-4.4-7.6-8.9-16-8.5-27.1
	c0-5.8-4.9-11.1-10.2-16.9c-3.1-3.6-6.2-6.7-8-10.2c-8-15.1-11.6-16.5-12-16.5s-1.3-0.4-2.2-0.4c-3.1-0.9-5.8-1.8-8.9,0.9
	c-4,3.1-9.8,5.8-14.2,8c-1.3,0.4-2.7,1.3-3.6,1.8c-3.6,1.8-6.2-1.3-8.5-3.6c-1.3-1.3-3.1-3.1-4.9-4.4c-0.4-0.4-1.8-0.9-2.7-0.9
	c-3.6,6.7-4.4,8.5-4.4,8.9c-0.9,3.6-2.7,7.6-7.1,17.4L99,31.4c-3.1,7.6-0.9,9.3,1.8,12c0.4,0.4,0.9,0.4,0.9,0.9l1.3,1.8
	c4.4,4,11.6,11.1,2.2,22.7c-2.7,3.6-2.7,4.4-2.2,5.8c0.9,2.2,1.8,5.3,0.9,10.7c-1.8,8.5-7.1,10.2-13.3,12.5l-0.4,0.4
	c-3.6,1.3-8,2.7-12,5.8c-9.3,6.7-10.2,9.8-10.2,14.7v2.2c0,3.1,2.7,6.2,5.8,9.8l1.8,1.3c1.3,1.3,2.7,2.7,3.6,4.4
	c2.7,4.9,2.7,12,1.8,20.5c-0.4,4-0.4,8.9-0.4,12.9c0.4,10.2-3.6,16-8.9,22.7l-1.3,1.8c-3.1,4-6.2,8.9-4,16
	c3.6,10.7,1.8,14.7-1.8,21.4c-0.4,0.9-0.9,2.2-1.8,3.6l-0.4,1.3c-2.2,4.9-3.6,8.9-3.6,12.5c-0.4,3.6,0,6.7,0.9,9.3
	c0.9,2.7,4.9,4,8.5,5.8c2.7,0.9,5.3,1.8,7.6,3.6c2.7,1.8,5.3,4.4,7.1,7.1c2.2,3.6,3.6,7.6,3.6,11.6c0,7.6-1.8,11.6-4.4,17.4
	l-0.9,2.7c-2.7,6.2-1.3,7.6,0.9,9.8c3.6,4,5.8,8.5-0.9,22.2c-1.3,3.1-1.8,5.3-1.8,8v0.4c0,3.6-0.4,8-2.7,14.2
	c-0.4,0.9-0.4,1.8-0.9,2.7c1.3,0,3.1,0,5.8,0c3.6,0,6.7,0.4,9.8,0.4l4,0.4c4.9,0.4,10.7,1.3,19.1,1.3c11.1,0,16.5,2.2,22.7,5.3
	c3.1,1.3,6.7,3.1,11.6,4.9c7.1,2.2,8.9-0.4,12.9-5.3l0.4-0.4c2.2-2.7,4.4-5.3,8-8c8-5.8,11.6-3.6,16.5,0.4c2.2,1.8,4.9,4,9.3,4.9
	C201.9,369.7,203.2,367.9,205,365.7z"/>
</svg>
