<?xml version="1.0" encoding="utf-8"?>
<!-- Generator: Adobe Illustrator 19.2.1, SVG Export Plug-In . SVG Version: 6.00 Build 0)  -->
<svg version="1.1" id="Layer_1" xmlns="http://www.w3.org/2000/svg" xmlns:xlink="http://www.w3.org/1999/xlink" x="0px" y="0px"
	 viewBox="0 0 465 440" style="enable-background:new 0 0 465 440;" xml:space="preserve">
<style type="text/css">
	.st0{fill:#FFFFFF;}
</style>
<path class="st0" d="M352.5,5.8c-9.1-3.4-18.3-7.4-23.4-5.1c-2.9,1.1-6.3,4-10.3,7.4c-6.9,5.7-13.7,10.9-20.6,12.6l-1.7,0.6
	c-10.3,2.3-18.3,4.6-33.7,3.4c-4-0.6-8-1.1-10.9-2.3c-8.6-2.3-10.9-2.9-15.4,14.9c-1.7,5.7-5.7,10.3-12,13.7
	c0.6,1.7,0.6,3.4,0.6,5.1c0.6,4.6,4,8,6.3,10.3c4,4,5.7,7.4,5.1,11.4c-1.1,6.3-9.1,9.7-16.6,12.6l-1.7,0.6
	c-12.6,5.1-22.3,7.4-30.3,9.7c-9.7,2.3-12.6,2.9-13.7,8c-2.3,8-5.7,16-10.9,22.9c-5.1,6.9-10.3,12-16.6,14.9
	c-5.7,2.9-10.3,4.6-14.3,5.7c-11.4,4-15.4,6.3-21.1,16.6c-1.7,2.9-3.4,5.7-5.7,7.4c0.6,1.7,1.1,4,1.7,4.6c1.7,2.9,2.9,6.3,4,9.1
	c1.1,2.9,1.1,6.3,2.9,9.1c2.3,4.6,0.6,12,0.6,18.9v1.1c0,1.1,1.1,1.7,1.1,2.9c0,4.6,0.6,5.7,3.4,9.1c1.7,1.1,3.4,3.4,5.1,5.7
	c6.3,7.4,1.7,15.4-1.1,21.1l-0.6,1.1c-1.1,2.3-2.3,4.6-2.3,6.3c0,2.9,6.9,4.6,10.3,5.1c2.9,0.6,6.9,1.7,8.6,5.1
	c1.7,4-0.6,8-2.9,12.6l-1.7,1.7c-0.6,1.7-3.4,3.4-3.4,5.1l0,0v1.1c-0.6,1.1-0.6,1.7-0.6,2.9c0,1.7,0.6,3.4,1.1,5.1
	c1.1,1.7,2.9,2.9,5.1,4c1.1,0.6,2.3,0.6,2.9,1.1h1.1c6.9,1.1,13.1,1.7,14.3,10.3c0,0.6,0,1.7,0.6,2.9c1.1,8,2.3,13.7,3.4,15.4
	c0.6-0.6,1.1-1.1,1.1-2.3c1.7-2.9,4-6.3,8.6-7.4c2.9-0.6,5.7-0.6,7.4,1.1c2.3,1.1,3.4,4,4,6.9c0.6,2.3,0.6,5.7,0.6,8.6
	c0,1.7,0,3.4,0,4.6c0.6,5.7,1.7,6.3,1.7,6.3c1.1,0,4.6-2.3,7.4-4c4-2.3,8.6-5.1,14.3-8c9.7-3.4,16.6,6.3,20.6,13.1
	c1.7,2.3,2.9,4,4.6,5.7s2.9,3.4,4.6,5.7c1.1,2.3,2.9,4,4,6.9c1.1,1.7,2.3,3.4,3.4,5.7c2.3,4.6,2.9,8.6,0.6,13.1h0.6
	c9.1,2.9,22.3,7.4,27.4,10.3c5.7,2.9,7.4,6.9,9.1,9.7v0.6c0.6,1.7,1.1,3.4,3.4,5.1c0.6,0.6,0.6,0.6,0.6,0.6s1.1-1.1,2.3-2.3l1.7-1.7
	c1.1-1.1,1.7-1.7,2.9-2.9c2.9-2.3,5.7-3.4,7.4-3.4c3.4,0,5.7,2.3,8,4.6l0.6,0.6c0.6,1.1,1.7,1.7,2.3,2.9c1.1,1.7,2.9,4,5.1,6.3
	l0.6,0.6c4,4,6.3,6.9,9.1,8.6c2.3,1.7,4,2.3,5.7,2.3c3.4,0,5.1,0,8,0.6c2.3,0.6,4.6,1.7,8,3.4l1.7,0.6l0,0c0-3.4,0-7.4-1.7-10.9
	c-1.1-2.9-3.4-5.1-5.7-7.4c-5.1-5.7-10.3-11.4-9.1-20.6c0.6-5.1,1.1-8.6,1.7-12.6c0.6-6.9,0.6-9.1-0.6-15.4l-1.1-5.1
	c-2.3-13.7-5.1-30.9-4.6-37.7c0.6-6.9,2.3-12.6,3.4-16.6c1.1-3.4,1.7-6.3,2.3-9.1s0-8.6,0-14.9v-1.1c-1.1-16,0.6-20,2.9-26.3
	c1.1-3.4,2.9-6.9,4.6-14.3c1.7-6.3,2.3-10.9,1.7-13.7c0-1.1-1.1-5.1-3.4-10.9l-0.6-1.1c-6.3-18.9-10.9-34.8-5.1-42.8
	c2.3-2.9,4-4.6,5.7-6.9c5.1-5.7,9.1-10.3,9.1-17.1c0-5.1-1.7-14.9-2.9-22.3c-2.3-14.9-4.6-30.3-4-42.3c0.6-8,1.7-16,3.4-23.4
	c1.7-8,4.6-14.9,6.9-20.6v-0.6c0-0.6,0.6-1.1,0.6-1.1c1.7-5.1,4-14.3,4.6-22.3C361.6,10.4,360.5,8.7,352.5,5.8z"/>
</svg>
