<?xml version="1.0" encoding="utf-8"?>
<!-- Generator: Adobe Illustrator 19.2.1, SVG Export Plug-In . SVG Version: 6.00 Build 0)  -->
<svg version="1.1" id="Layer_1" xmlns="http://www.w3.org/2000/svg" xmlns:xlink="http://www.w3.org/1999/xlink" x="0px" y="0px"
	 viewBox="0 0 465 440" style="enable-background:new 0 0 465 440;" xml:space="preserve">
<style type="text/css">
	.st0{fill:#FFFFFF;}
</style>
<path class="st0" d="M334.2,345.9c7.9-5.5,15.3-10.4,25.7-5.5l0.6,0.6c10.4,4.3,12.2,5.5,18.3,15.9c2.4,4.3,3.7,4.9,3.7,4.9
	c0.6,0,3.1-2.4,5.5-20.8v-0.6c0.6-5.5,1.2-9.8,1.8-12.2c2.4-7.3,7.3-10.4,12.2-12.8c1.8-1.2,3.7-1.8,5.5-3.1
	c6.7-4.3,6.7-6.7,6.7-10.4c0-2.4,0-6.1,2.4-10.4c2.4-4.9,5.5-7.9,8.6-10.4c1.8-1.8,3.7-3.7,5.5-6.1c1.2-1.8,1.2-1.8,0-4.3
	c-1.2-1.8-2.4-4.9-3.1-9.2c0-2.4-1.2-3.1-4.9-3.7h-0.6c-3.1-1.2-6.7-1.8-9.2-4.9c-2.4-2.4-4.9-7.9,1.2-14c1.8-1.2,3.7-3.1,7.3-4.9
	l4.3-2.4c3.7-2.4,3.7-3.1,4.9-7.3c0-1.2,0.6-1.8,0.6-2.4l0.6-1.8c-0.6-1.2-3.1-1.8-4.9-2.4c-4.3-1.2-9.2-2.4-12.2-6.1
	c-4.3-4.3-8.6-8.6-12.2-14c-4.9-6.7-9.2-14.7-13.4-23.2c-0.6-1.2-2.4-4.9-3.7-7.3c-1.8,1.2-4.3,1.8-7.3,1.8c-2.4,0-4.3,0.6-6.7,1.2
	c-2.4,0.6-4.3,1.2-6.1,1.2c-7.3,0.6-11.6-3.7-12.2-13.4c0-4.3-0.6-7.9-1.2-12.2v-2.4c-0.6-7.3-1.2-14.7,0-22c0.6-5.5,2.4-8.6,4.3-11
	c0,0-0.6-0.6-1.2-1.2c-5.5-7.9-6.1-11.6-6.7-18.9v-0.6c0-1.2,0-2.4,0-3.1c-0.6-6.1,0.6-8.6,1.8-11.6l0.6-0.6
	c1.2-1.8,2.4-3.7,3.1-7.9c1.8-9.2,7.9-14.7,12.8-18.3l0.6-0.6c2.4-2.4,4.9-4.3,5.5-6.1c1.2-4.3,1.2-4.9,0-6.1
	c-1.2-1.2-1.8-3.1-3.1-5.5c-0.6-1.8-1.8-2.4-3.7-3.1c-3.1-1.2-5.5-3.1-6.7-6.7c-0.6-1.2-0.6-3.1,0-6.1c-3.7-0.6-7.3-1.2-11.6-2.4
	c-4.3-1.2-8.6-3.1-12.8-4.9c-8.6-3.7-17.1-7.3-26.3-6.1c-5.5,0.6-12.8,2.4-20.8,3.7c-14,3.1-29.3,6.1-40.3,6.1
	c-6.1,0-14-0.6-22.6-1.8c-14-1.8-30.5-4.3-41.5-0.6c-17.7,5.5-17.7,6.1-25.7,20.8l-0.6,1.2c-9.2,16.5-15.3,28.1-33.6,36.6
	c-6.7,3.1-11,7.3-14,10.4c-4.9,4.9-9.8,9.8-17.7,3.7c-3.1-2.4-5.5-4.9-7.9-7.3c-5.5-5.5-9.2-9.2-15.9-9.2c-3.7,0-7.3-0.6-10.4-1.8
	c-8.6-1.8-13.4-2.4-17.7,3.7c-6.7,9.2-6.7,15.3-6.7,19.5V87c0,0.6,1.8,3.7,3.1,5.5c3.7,5.5,7.9,12.2,8.6,20.8
	c0.6,8.6-1.8,12.2-3.7,15.9c-1.2,1.8-2.4,3.7-3.1,7.3l-0.6,2.4c-1.2,4.9-1.2,4.9,2.4,12.2l0.6,1.8c2.4,4.3,6.1,8.6,9.8,12.8
	c6.7,7.9,13.4,15.3,14.7,24.4c1.8,12.8,3.7,20.2,11.6,42.8c7.9,22,11,25,19.5,34.2c1.8,1.8,3.7,3.7,5.5,5.5
	c5.5,4.9,9.2,8.6,7.9,12.8c-0.6,3.1-4.3,4.3-7.3,4.9c-6.7,1.2-11.6-0.6-14.7-2.4c-3.7-1.8-4.3-1.8-6.1-0.6c-1.8,1.8,3.1,14,5.5,19.5
	c3.1,6.7,5.5,13.4,6.1,18.3c0,2.4,0.6,4.9,0.6,7.9s0.6,6.1,0.6,9.8c7.9,2.4,16.5,5.5,21.4,7.3c3.1,1.2,4.9,1.2,6.7,0.6
	c4.9-0.6,8.6,0,18.3,6.7c2.4,1.8,4.9,3.7,7.3,4.9l2.4,1.8c11.6,7.9,17.1,14.7,16.5,21.4c-0.6,4.9-3.7,8.6-10.4,11.6
	c-4.9,2.4-5.5,4.3-5.5,4.3c0.6,1.8,6.7,4.3,9.8,3.7c15.3-1.8,18.3,1.2,25.7,13.4c9.2,14.7,13.4,14,29.9,11.6l5.5-0.6
	c3.7-0.6,7.9-1.2,12.2-1.8c1.2,0,1.8,0,3.1,0c11.6,0,13.4,6.7,14.7,11c0,0.6,0,0.6,0,1.2c1.8-0.6,6.7-3.7,9.2-6.1
	c3.7-3.1,3.7-4.3,0.6-9.2c-0.6-1.2-1.2-2.4-1.8-3.7c-5.5-11-5.5-12.2-1.2-18.9c0.6-1.2,1.8-3.1,3.1-4.9c2.4-4.3,3.1-6.1,3.1-6.7
	c4.3-11,10.4-14.7,21.4-11c1.8,0.6,4.3,1.2,5.5,0.6c1.8-0.6,4.3-7.9,6.1-11.6l0.6-1.2c3.1-7.3,5.5-14.7,12.2-17.1
	c3.7-1.2,7.9-0.6,12.8,1.8s5.5,2.4,10.4-0.6L334.2,345.9z"/>
</svg>
