<?xml version="1.0" encoding="utf-8"?>
<!-- Generator: Adobe Illustrator 19.2.1, SVG Export Plug-In . SVG Version: 6.00 Build 0)  -->
<svg version="1.1" id="Layer_1" xmlns="http://www.w3.org/2000/svg" xmlns:xlink="http://www.w3.org/1999/xlink" x="0px" y="0px"
	 viewBox="0 0 465 440" style="enable-background:new 0 0 465 440;" xml:space="preserve">
<style type="text/css">
	.st0{fill:#FFFFFF;}
</style>
<path class="st0" d="M424.5,303.1c-1.1-5.3-2.7-6.9-3.7-8c-2.1-2.1-3.7-4.3-5.3-10.2c-2.1-8-5.3-10.7-10.2-13.9h-0.5
	c-5.3-4.3-7.5-8.6-9.6-14.4c-0.5-1.1-0.5-1.6-1.1-2.1c-1.1-2.1-1.6-2.7-2.1-3.2c-2.1-2.1-3.7-4.3-3.7-10.2c0-1.1,0-2.7,0.5-4.3
	c0-1.1,0.5-2.7,0-3.2c-0.5,0-2.1-0.5-3.2-1.1c-2.1-0.5-4.8-1.6-6.4-4.3c-1.1-2.1-1.1-4.3,0.5-7.5c0.5-2.1,1.6-3.7,2.7-5.3l0.5-0.5
	c0.5-0.5,1.1-1.6,1.1-2.1c-1.6-0.5-3.2-1.1-4.8-1.1c-5.9-0.5-8.6-3.2-9.6-4.8c-1.1-2.1-1.1-5.9,2.7-11.2c2.1-2.7,4.8-6.4,8.6-12.3
	c1.1-1.6,2.1-2.7,2.7-4.3l1.1-1.6c5.3-8,5.3-8-0.5-15.5c-4.3-5.3-5.9-8.6-6.9-11.8c-1.1-2.7-1.6-3.2-5.3-5.3
	c-5.3-2.7-9.1-5.9-11.8-9.6c-3.2-4.3-4.8-8.6-4.3-12.3c0.5-4.3,3.2-6.4,5.3-8.6c1.6-1.6,3.7-3.2,4.8-6.4c1.1-4.3,2.1-7.5,2.1-9.6
	c0-2.7,0-4.8-1.1-7.5c-0.5-1.6-1.6-3.2-2.1-4.8v-0.5c-1.6-3.2-2.7-6.4-4.3-11.2c-1.1-3.7-1.1-5.9-1.1-8v-0.5c0-1.1,0-1.6-0.5-2.1
	c-0.5-1.1-1.6-2.1-2.7-3.2c-1.1,1.1-2.7,2.1-4.8,2.7c-3.7,1.6-8.6,2.1-12.8,3.2c-4.3,0.5-9.1,3.2-12.8,5.3l-1.1,0.5
	c-3.2,1.6-5.3,3.2-7.5,3.7c-5.3,1.6-11.8,0.5-18.7-1.1l-2.7-0.5c-4.3-0.5-8-1.6-11.2-4.8c-2.7-2.7-4.8-6.9-6.9-14.4
	c-3.2-11.2-3.7-12.8,1.1-16c1.1-1.1,2.7-2.1,4.3-3.7c1.1-1.1,1.1-1.1,1.1-1.1l-0.5-0.5c-2.1-2.1-4.3-4.3-5.3-8.6
	c-1.1-3.7-1.6-6.4-2.1-8.6c-0.5-3.2-1.1-5.9-3.7-12.8C271,0.6,268.9,0,268.4,0c-3.7-0.5-10.2,4.8-13.9,10.2
	c-1.6,2.7-3.7,4.8-5.9,6.9c-4.3,4.3-10.2,5.9-15,5.9c-5.9,0.5-11.8-0.5-17.1-2.7c-5.3-2.7-8.6-1.6-13.4-1.1
	c-1.6,0.5-3.2,0.5-4.8,1.1c-1.1,0.5-2.1,1.1-3.2,2.1c-2.7,2.7-5.9,5.3-12.8,3.7c-4.3-1.1-6.4-1.6-9.1-2.7c-1.6-0.5-3.2-1.6-5.9-1.6
	c-3.2-0.5-6.4-0.5-9.6,0c-2.7,0.5-4.8,1.1-6.4,2.1c-6.9,4.3-13.4,4.3-24.1,0c-4.8-1.6-10.2-0.5-13.4,1.1v0.5
	c-0.5,4.3-3.2,6.9-5.9,10.2l-0.5,0.5c-1.6,2.1-3.7,4.3-3.7,5.9c0,1.1,0,2.7,0,4.3v0.5c0.5,5.3,1.1,13.4-4.8,27.8
	c-2.7,6.9-3.7,12.3-2.7,16c1.1,2.7,2.1,3.2,4.3,4.3c4.3,1.6,7.5,4.3,6.9,15v9.6c0.5,5.9,0.5,9.6,1.1,12.8c0.5,3.2,1.6,6.4,3.7,12.3
	l0.5,1.6c2.1,7.5,1.6,13.9-2.7,19.2c-3.2,4.3-8,6.9-12.3,9.6c-6.9,4.3-12.3,1.6-17.6-1.1l-1.6-0.5c-3.2-1.1-6.4-2.7-11.2-3.7
	c-6.9-1.1-10.2,2.1-15,6.4l-1.1,1.1c-2.1,2.1-4.8,4.3-7.5,5.9c-3.2,1.6-5.9,5.9-8,11.2c-2.7,5.9-4.3,13.9-4.3,20.8
	c0,3.7,0,8,0.5,12.3l0.5,5.9c0.5,6.9,1.1,18.2,1.1,27.8c-0.5,9.6-2.1,17.6-3.2,22.5c3.2,1.6,6.4,4.8,9.1,9.6
	c2.1,4.3,4.3,10.2,5.3,16.6c1.1,4.3,1.1,12.3,0,24.1c2.7,0,4.8-0.5,6.4-1.6l0.5-0.5c4.3-2.7,8-4.8,16.6-4.8
	c9.6,0,24.6,7.5,30.5,12.3c3.2,2.7,3.2,5.9,3.7,8c0.5,3.7,1.1,6.9,10.2,9.6c5.9,1.6,10.2,2.1,13.9,2.7c5.3,0.5,10.2,1.1,10.7,8.6
	c0.5,3.7-0.5,6.4-1.1,9.1c0,1.1-0.5,2.7-0.5,3.2c0,0,0.5,0,1.1,0c13.9,2.7,18.7,2.1,23,1.6c2.1,0,4.8-0.5,8,0c1.6,0,2.7,0.5,3.7,0.5
	c4.8,0.5,8,0.5,9.6,3.2c1.6,2.1,1.1,4.8,0.5,6.4c-1.1,3.2-3.2,5.9-4.8,7.5c-2.7,3.2-2.7,3.2-1.6,3.7c1.1,1.1,2.1,0.5,4.8-0.5
	c2.1-1.1,4.3-1.6,6.4-0.5c1.1,0.5,2.1,1.6,2.1,3.2c0.5,1.1,1.1,1.6,1.6,2.1c1.6,0.5,4.3,0,6.4-1.6c1.1-0.5,1.6-1.6,2.1-2.1
	c2.1-3.2,4.3-4.8,12.8-3.7c3.7,0.5,5.9,0,8.6-0.5c2.1-0.5,3.7-0.5,5.3-0.5c4.3,0,8.6,1.6,15,8.6l1.6,2.1
	c9.1,10.2,9.1,10.2,13.4,19.8l3.2,6.9c0.5,1.1,1.1,2.1,1.6,3.2c1.6-1.1,3.2-2.7,4.8-3.7c3.7-3.2,5.9-6.4,8-10.2l0.5-0.5
	c2.1-3.2,4.8-6.9,8.6-11.2c1.6-1.6,2.7-2.7,3.7-3.2c3.7-2.1,7.5-3.2,11.2-2.7s6.9,2.1,8.6,3.7c1.1,1.1,1.6,2.1,2.1,2.7
	c1.1,1.6,2.1,2.7,4.3,3.2c2.1,1.1,5.9,1.6,11.2,2.1c4.8,0.5,7.5-1.1,10.7-2.7c3.7-2.1,7.5-3.7,12.8-2.7c4.8,0.5,6.9,2.7,9.1,4.3h0.5
	c1.6,1.1,3.7,2.7,8.6,3.2c5.3,0.5,9.6,0.5,12.3,0c2.1-0.5,2.7-1.6,3.2-2.7s0.5-2.1,0.5-3.7v-1.1c0-4.3-0.5-9.6,6.9-13.9
	c1.6-1.1,3.2-1.6,4.3-2.1c0.5,0,1.1-0.5,1.6-0.5c3.7-1.6,4.8-1.6,2.7-8c-3.7-12.3-2.7-17.1-0.5-23c0.5-1.1,0.5-2.1,1.1-3.7
	c1.1-3.2,2.7-6.9,5.9-10.2c3.7-3.7,8-7.5,10.7-8.6c5.3-2.7,10.7,1.6,13.4,3.7c0.5,0.5,1.1,1.1,1.6,1.1c1.6,1.1,2.7,1.1,2.7,1.1
	s0.5-0.5,1.1-2.1l0.5-2.1c0.5-3.2,1.1-4.3,1.1-5.9c0.5-4.8,1.6-20.3-4.3-28.9C427.7,311.2,426.1,308.5,424.5,303.1z"/>
</svg>
