<?xml version="1.0" encoding="utf-8"?>
<!-- Generator: Adobe Illustrator 19.2.1, SVG Export Plug-In . SVG Version: 6.00 Build 0)  -->
<svg version="1.1" id="Layer_1" xmlns="http://www.w3.org/2000/svg" xmlns:xlink="http://www.w3.org/1999/xlink" x="0px" y="0px"
	 viewBox="0 0 465 440" style="enable-background:new 0 0 465 440;" xml:space="preserve">
<style type="text/css">
	.st0{fill:#FFFFFF;}
</style>
<path class="st0" d="M458.2,403.4c4.7-5.4,7.4-10.8,7.4-14.8c-0.7-9.4-2.7-12.1-6.7-17.5c-1.3-2-2.7-4-4.7-6.1
	c-4-6.1-2-13.5-0.7-20.2c2.7-9.4,3.4-16.1-2.7-20.9c-8.1-6.1-12.8-13.5-17.5-18.8c-10.1-13.5-10.8-13.5-16.1-12.1
	c-2.7,0.7-5.4,1.3-10.1,1.3c-10.8,0.7-22.9-2-26.9-14.1c-1.3-4-0.7-10.8,0.7-18.2c0.7-5.4,2-16.1,0.7-17.5c-3.4-4-6.7-2.7-14.1,1.3
	l-1.3,0.7c-6.1,2.7-10.8,5.4-20.2,0.7c-8.1-4-8.7-9.4-8.7-12.8c0-2,0-3.4-1.3-4c-3.4-3.4-8.1-9.4-14.1-16.1l-4-4.7
	c-7.4-9.4-12.1-15.5-21.5-24.2c-5.4-5.4-10.1-9.4-12.1-10.8c-2.7-2-6.1-4.7-8.7-6.7l-1.3-1.3h-0.7c-8.1,2-16.8-2-26.2-6.7
	c-9.4-4-14.8-6.7-24.9-8.1c-8.1-1.3-12.1-2-18.2-11.4c-4-6.1-5.4-12.1-6.1-16.8c-0.7-4-1.3-4.7-1.3-5.4c-0.7,0-2,0-4,0h-2.7
	c-8.1,0.7-16.1,0.7-21.5-4c-0.7-0.7-0.7-0.7-1.3-1.3c-0.7-0.7-0.7-0.7-1.3-1.3c-11.4-10.8-12.8-22.9-14.1-36.3
	c-0.7-6.1-1.3-12.8-2.7-19.5V55c-0.7-2-1.3-4-1.3-6.1c-5.4,0.7-10.8-0.7-16.8-4.7c-2-1.3-5.4-4-8.1-6.1c-4.7-4-13.5-10.8-16.8-10.1
	c0,0-0.7,0-1.3,1.3c-3.4,6.7-6.1,10.1-8.1,13.5c-2,2.7-3.4,5.4-6.1,9.4C84.7,61.6,78,73.1,59.2,102c-6.7,10.8-11.4,19.5-14.8,26.2
	c-6.1,10.8-10.1,18.2-18.2,25.6c-3.4,2.7-6.1,4.7-8.7,6.7c-8.7,6.1-14.1,10.1-14.8,18.8C2,184.7,2,189.4,1.4,194.1
	c-0.7,6.1-1.3,11.4-1.3,18.2c0,3.4,5.4,7.4,11.4,10.8c7.4,4.7,16.1,10.8,17.5,19.5c0.7,2.7,0.7,5.4,1.3,7.4
	c1.3,10.8,2.7,16.8,8.1,19.5c2,1.3,5.4,2,8.7,2c8.1,1.3,17.5,2.7,22.2,14.1c1.3,4.7,3.4,9.4,4.7,14.1c2,6.7,6.1,20.9,8.7,20.9
	c1.3,0,3.4-0.7,5.4-2c5.4-2.7,12.1-6.7,22.2,2c3.4,2.7,6.7,5.4,9.4,7.4c7.4,5.4,13.5,9.4,10.1,18.2c-1.3,3.4-3.4,6.7-4.7,8.7
	c-2.7,4-4,6.7-3.4,9.4c1.3,3.4,2.7,6.1,4.7,6.7c0.7,0,1.3,0.7,3.4-0.7c1.3-1.3,2.7-2.7,4-4c2-3.4,5.4-7.4,12.1-6.1
	c8.1,2,10.8,2,16.8-3.4c2-2,4-6.1,5.4-10.1c3.4-7.4,7.4-15.5,15.5-14.1c1.3,0,2.7,0.7,4,0.7c8.1,1.3,16.1,2.7,22.9,13.5
	c1.3,2,2.7,4,3.4,6.1c4.7,7.4,6.7,10.8,12.1,14.1l2,1.3c6.7,4,12.8,8.1,20.2,5.4c10.1-4,20.9-3.4,30.9,2c3.4,2,8.1,2.7,12.8,3.4
	c7.4,1.3,14.8,2.7,20.9,7.4c4,3.4,6.1,6.7,8.1,8.7c2,3.4,2,3.4,5.4,2.7c2.7-0.7,5.4-1.3,7.4-2.7c3.4-1.3,6.1-2.7,10.1-2.7
	c2,0,4,0,6.1,0.7c4,1.3,8.7,4,14.8,7.4c6.7,4,14.8,8.7,20.9,10.1c12.1,3.4,26.9-2,33-4.7C419.8,404.8,441.3,396.7,458.2,403.4z"/>
</svg>
