<?xml version="1.0" encoding="utf-8"?>
<!-- Generator: Adobe Illustrator 19.2.1, SVG Export Plug-In . SVG Version: 6.00 Build 0)  -->
<svg version="1.1" id="Layer_1" xmlns="http://www.w3.org/2000/svg" xmlns:xlink="http://www.w3.org/1999/xlink" x="0px" y="0px"
	 viewBox="0 0 465 440" style="enable-background:new 0 0 465 440;" xml:space="preserve">
<style type="text/css">
	.st0{fill:#FFFFFF;}
</style>
<path class="st0" d="M200.2,417.4c4.7-4.2,9.5-9.5,14.2-14.8c7.4-7.9,15.3-16.3,23.2-21.6c6.3-3.7,11.6-11.1,15.8-16.9
	c4.7-6.3,9-12.1,13.7-13.7c3.2-1.1,5.8-2.1,8.4-2.6c5.3-2.1,11.1-3.7,17.9-5.8c3.7-1.1,6.9-2.6,9.5-3.7c4.7-2.1,8.4-4.2,13.7-2.1
	c1.6,0.5,3.2,1.6,4.7,2.1c5.3,2.1,11.1,4.7,15.3,5.3c3.2,0.5,7.9-4.7,11.6-9c2.1-2.1,3.7-4.2,5.8-5.8l2.1-1.6
	c5.8-5.3,12.6-11.6,21.6-13.7c2.6-1.1,5.3-2.1,7.9-3.2c6.9-3.2,13.7-6.3,21.1-3.7c10.5,3.7,23.2,5.3,25.3,3.7
	c0.5-0.5,1.6-3.7,2.1-5.8c2.1-6.3,4.7-14.8,12.6-18.4c2.1-1.1,3.7-2.1,5.3-3.2c-1.1-2.6-1.6-4.7-2.1-7.9
	c-2.1-11.6,4.7-18.4,8.4-22.7c3.2-3.2,3.7-4.7,3.7-8.4c0-3.2-1.1-3.7-6.9-4.2h-0.5c-5.3-1.1-12.1-2.1-15.8-10.5
	c-1.6-4.2-3.2-6.3-4.2-7.4c-1.1-1.1-3.2-1.6-5.8-2.6h-0.5c-4.2-1.1-6.9-3.2-7.9-5.3c-1.6-2.6-0.5-5.8,0.5-8.4s2.1-5.8,0.5-9
	c-2.1-4.7-2.6-8.4-1.1-11.1c2.1-4.2,6.9-5.8,13.2-7.9c2.6-0.5,5.3-1.6,7.4-2.6c4.2-1.6,7.9-3.2,12.1-4.2c3.7-1.1,4.7-1.6,6.9-7.4
	v-1.1c5.3-15.3,5.3-19,4.7-19.5c0-0.5-2.1-0.5-3.2-0.5c-2.6,0-6.9,0-10.5-2.6c-4.7-3.2-8.4-7.9-12.1-12.1c-2.1-2.6-5.3-6.9-6.9-7.4
	c-1.1,0.5-2.1,1.6-3.2,2.1c-4.2,3.2-8.4,5.8-13.2,4.7c-4.2-1.1-7.4-4.7-9.5-9c-0.5-1.1-1.6-3.2-2.6-3.7c-1.1-0.5-1.6-0.5-3.2,0
	c-4.7,1.6-8.4,0.5-11.6-7.9c-1.1-2.6-1.6-4.2-1.6-5.8V100c-0.5-1.6-0.5-2.1-3.2-5.3c-2.6-3.2-3.7-5.3-4.7-7.4
	c-1.1-2.1-2.6-4.2-5.8-7.9c-4.2-4.7-11.6-10.5-15.3-13.7c-3.7,2.1-9,2.1-15.3,2.1h-2.1c-3.2,0-6.9,0-10,0.5
	c-1.6,0.5-3.2,0.5-4.2,1.1c-1.1,0-1.6,0.5-2.1,0.5c-6.9,1.6-7.9,1.6-20.6-2.6c-5.8-2.1-7.9-0.5-10,0.5c-3.2,2.1-5.8,3.2-11.6-0.5
	c-7.4-5.3-5.8-10.5-3.7-15.3v-0.5c1.1-3.2,2.6-6.3,1.6-10.5c-1.6-6.3-2.6-7.4-4.7-9.5c-2.1-1.6-4.2-3.7-6.9-7.9
	c-3.2-4.7-6.3-7.9-8.4-10c-2.1-1.6-4.2-2.6-5.8-2.6c-1.1,0-2.1,0.5-3.7,0.5c-6.9,1.1-16.3,2.6-27.4-5.3c-5.8-4.2-7.9-3.2-13.2,0
	c-6.3,3.7-17.9,9-25.8,9l0,0c-3.7,0-7.9-0.5-15.3-2.1l-7.4-1.1c-20.6-3.7-29-2.6-35.8-2.1c-12.1,1.1-12.1,1.1-22.7,8.4l-3.7,3.2
	c-10,6.9-10,8.4-9,13.7l0,0l0.5,1.1c0,0.5,0.5,0.5,0.5,0.5l0.5,0.5c0,0.5,0.5,1.6,1.1,2.1c2.1,3.7,5.8,10,3.2,17.4
	c-1.6,3.7-4.2,6.9-7.4,9.5c-1.1,1.1-2.1,2.1-2.6,3.2c0.5,0.5,2.1,1.1,3.2,1.6c3.2,1.1,5.8,2.6,9,6.3c3.2,3.2,3.2,6.9,3.7,9.5
	c0,2.6,0,4.2,3.7,6.3c10.5,6.9,4.7,17.9,0.5,26.9l-0.5,0.5c-1.1,1.6-1.6,2.6-2.1,4.2c-1.6,3.2-0.5,6.9,0.5,10.5v1.1
	c1.1,4.2,2.6,9,0.5,13.7c-3.7,10.5-21.1,6.3-32.7,3.2h-0.5c-1.1-0.5-2.6-0.5-3.7-1.1c-2.6-0.5-5.3-1.6-7.4-2.1
	c-5.3-1.6-10.5-3.7-17.4-2.6c-3.7,0.5-5.8,2.6-8.4,4.7c-3.7,3.2-8.4,7.9-17.9,8.4c-6.9,0-12.6,3.2-16.9,5.3
	c3.7,5.3,3.7,13.2,3.7,19.5c0,3.2,0,5.8,0,7.4c0.5,2.6,2.1,5.8,4.2,9c2.1,2.6,4.7,4.7,6.9,5.8c1.6,0.5,2.6,0.5,6.3-3.7
	c5.3-6.3,10-8.4,14.2-7.4c6.9,2.1,7.9,14.8,8.4,22.7c0,1.6,0,2.6,0.5,3.7c0.5,5.3,1.6,9.5,1.6,14.8v0.5c0.5,4.7,0.5,7.9,3.2,13.2
	c2.6,5.8,3.7,9,4.2,12.1v0.5c0.5,2.6,1.6,5.8,3.2,10.5c1.6,4.7,6.9,6.9,12.6,9.5l0.5,0.5c5.3,2.1,10.5,4.7,14.8,9.5
	c4.7,5.8,6.3,11.6,6.9,14.8c1.6,9-1.6,14.8-5.8,22.1c-2.6,4.7-4.7,6.3-7.4,7.9c-1.6,1.1-2.6,2.1-4.2,3.7c-1.6,2.1-2.1,3.2-2.1,3.7
	s1.1,1.6,6.3,2.6c11.6,3.2,13.2,8.4,12.6,19.5v1.6c-0.5,6.9-0.5,7.4,4.7,7.9c4.2,0.5,9,1.1,13.7,4.2c2.6,2.1,6.9,3.7,11.1,6.3
	c9.5,4.7,19.5,10,23.2,16.3c3.7,5.8,3.7,11.1,3.7,16.9v1.6c0,2.6,0,5.8,1.1,9c0.5,1.6,1.1,3.7,4.7,4.2l1.1-1.6
	c3.7-4.7,6.9-9.5,9.5-14.2c3.7-7.4,5.3-13.7,4.7-15.3c-0.5-2.1-1.1-7.9,2.1-10.5c0.5-0.5,1.6-1.1,2.6-1.1c0.5,0,1.6,0,2.1,0.5
	c4.2,2.1,4.7,5.3,5.8,10.5v1.1c0.5,2.6,0,5.3,0,7.9c0,2.1-0.5,5.8,0,6.9c1.1,0,4.2,0.5,5.3,3.7"/>
</svg>
