<?xml version="1.0" encoding="utf-8"?>
<!-- Generator: Adobe Illustrator 19.2.1, SVG Export Plug-In . SVG Version: 6.00 Build 0)  -->
<svg version="1.1" id="Layer_1" xmlns="http://www.w3.org/2000/svg" xmlns:xlink="http://www.w3.org/1999/xlink" x="0px" y="0px"
	 viewBox="0 0 465 440" style="enable-background:new 0 0 465 440;" xml:space="preserve">
<style type="text/css">
	.st0{fill:#FFFFFF;}
</style>
<path class="st0" d="M371,389.5c4.3-2.4,10-5.2,14.8-8.1c6.2-3.8,11.9-10,11-13.4c-0.5-1.9-1.9-4.3-2.9-7.2l-1-2.9
	c-3.8-8.6-7.2-17.2,2.9-24.3c2.9-1.9,1.9-6.2,0.5-11l-0.5-1.4c-1-2.4-1.4-5.2-1.9-9.1c-0.5-2.4-1-4.8-1-7.6c-1-6.7-1.9-8.6-3.8-11.9
	c-1-1.4-1.9-3.8-3.3-6.7l-1-1.4c-1.9-4.3-6.2-12.9-8.1-13.4c-1.4-0.5-2.9-0.5-4.3,0c-4.3,1-7.2-0.5-9.1-1.9
	c-2.9-2.4-4.3-6.2-3.8-10.5c0.5-2.9,1.9-5.2,4.8-8.1c1.9-1.9,3.3-3.3,3.8-5.7s0.5-5.7-0.5-10.5c-1.9-10-0.5-11.9,2.9-16.2
	c1-1,2.4-2.9,3.8-5.7c2.9-4.8,4.8-9.5,5.7-12.9c1-3.8-0.5-4.8-3.8-7.2c-3.8-2.4-8.6-6.2-8.1-15.7c0.5-6.7-1.4-9.1-3.8-11.4
	c-1.9-1.9-4.3-4.8-4.8-9.1c-1-4.8,0.5-8.6,3.8-12.9c2.4-2.9,5.2-6.7,6.2-10c0.5-1.9,0.5-3.3,0-3.8c-1-1-3.3-3.3-6.7-5.7
	c-1.9-1.4-3.8-2.9-5.7-3.8c-5.2-3.3-9.5-5.7-12.4-13.8c-1.9-4.8-2.4-8.6-1.4-11.4c1-4.3,3.8-6.7,6.7-9.1l1.4-1
	c1.4-1,2.9-1.9,3.8-3.3c0.5-0.5,1.4-1.9,1.9-9.5c0.5-4.3,0.5-9.1,0.5-13.4c-3.8,0-5.7-2.9-9.5-10c-2.9-5.7-3.3-10.5-3.3-15.3
	c-0.5-5.2-1-10-3.8-14.8c-4.3-6.7-9.5-11-13.4-11.4c-1.4,0-2.9,0.5-3.8,1.4c-3.8,4.3-9.1,5.7-14.3,7.2c-2.4,1-5.2,1.4-7.2,2.4
	c-3.3,1.9-6.2,5.7-10,11c-2.4,3.3-4.8,6.7-8.1,10c-4.8,4.8-10,7.2-14.8,5.7c-3.3-1-5.2-3.3-6.2-6.2c-0.5-1-0.5-2.9-1-4.3
	c-1-4.3-2.9-13.8-4.3-15.3c-3.3-0.5-16.2-1-22.4,1c-6.7,1.9-13.4-2.4-17.2-10.5c-0.5-1-1-1.9-1-2.9c-1.9-4.8-2.4-6.7-4.8-6.7
	c-1.4,0-3.8,3.3-5.7,5.7s-4.3,4.8-6.7,6.7c-9.1,6.7-17.6,7.2-23.8,1.4c-2.9-2.4-4.8-4.8-6.2-6.7c-2.4-3.3-2.4-3.3-4.8-2.4
	c-2.4,1.4-3.3,7.6-4.3,11.9c-1,5.2-1.4,9.5-4.3,11.4l-1,0.5c-3.3,2.4-8.6,5.7-12.9,4.8c-1,0-1.9-0.5-2.9-1.4l-2.4,1.9
	c-1.9,1.4-3.8,2.9-6.2,4.8c-7.2,4.8-14.8,10.5-14.3,17.2c0.5,5.2-1.9,8.6-4.3,12.4c-1.9,2.9-3.8,5.2-4.3,9.5
	c-2.4,10-5.7,15.3-8.6,19.5c-2.4,3.3-3.8,6.2-5.2,11c-1.4,4.3-2.9,9.1-7.6,14.8l0,0l-1.4,1c-0.5,0.5-1.9,1.4-2.4,1.9l-2.4-1
	c-6.2,6.2-9.5,9.1-8.1,19.5c1,8.1,1,16.2,1,21.5s0.5,7.6,1,10c0.5,1.9,1,3.8,1,7.2c0,2.9-0.5,5.7-1.4,9.1v0.5
	c-4.8,13.8-6.2,22.4-5.2,25.3c0.5,1.4,0.5,2.9,0.5,4.3c0,2.4-1,4.3-2.4,6.2l3.3,3.8c1.9,2.4,3.3,5.7,3.3,9.1c0,3.3-0.5,6.7-2.4,10
	l-1.4,2.4c-0.5,1-1,1.9-1,1.9c0,1,0,1.9,0.5,3.3v1c0,0.5,0,1,0.5,1.4c0.5,3.3,3.3,4.8,6.2,6.7l1.4,1c1.4,1,3.3,1.9,4.8,3.8
	s2.9,3.8,4.3,5.7c1.9,3.3,3.3,6.2,6.7,8.6c2.9,2.4,4.8,3.8,7.2,4.3c2.4,1,5.2,1,11,1c3.3,0,6.2,0.5,8.1,2.4s3.3,4.8,3.3,9.1
	c0,2.4,0,4.8-0.5,7.2v1c-0.5,1.9-0.5,3.8-0.5,5.2c0,2.4,0,4.3,0,6.2v1.4c-0.5,3.8-0.5,6.7,0,10c1,6.2-2.4,8.6-5.7,11.4
	c-2.9,2.4-5.7,4.3-8.1,8.6c-3.8,6.7,1,15.7,3.8,21.5l0.5,1.4c0.5,1,1,2.4,1.4,2.9c1,2.4,2.4,3.8,3.8,4.8c2.4,1.4,6.2,2.4,11,2.4
	c6.7,0,11.4,1.9,14.3,5.2c0.5,0.5,0.5,1,1,1.4c4.3-1.4,10.5-2.9,16.2-0.5s10,2.9,14.3,0.5c2.9-1.9,6.2-2.4,9.1-2.9
	c3.3-0.5,7.2-0.5,10.5,0s5.2,1,7.2,1.9c1.9,1,3.8,1.4,6.7,1.9c1.9,0.5,2.4,0,3.8-1.4c1.4-1.4,3.8-3.3,7.6-3.8c0.5,0,1-0.5,1.9-0.5
	c0.5,0,1,0,1.4-0.5c4.8-1,10-2.4,17.6,1c2.9,1.4,7.2,1.9,11,1.9c3.8-0.5,6.7-1.4,8.1-2.9c1.4-1.4,2.4-2.9,3.8-4.3l0.5-1
	c3.8-4.8,11.4-12.4,19.1-12.4c0.5,0,1,0,1.4,0c2.9,0.5,7.2,2.4,9.5,9.1s2.9,10,3.3,12.9c0.5,1.9,0.5,3.8,1.4,6.2
	c0.5,1.9,1.4,2.9,2.9,4.3c2.9,2.9,6.7,6.7,0,13.4c-1.4,1.9-2.9,2.9-3.8,3.3c-0.5,0-0.5,0.5-1,0.5c0,0,0.5,1.9,1,3.8l0.5,1.9
	c1.4,5.2,2.9,8.1,4.3,9.5c1,1,2.4,1.9,5.7,1.9l2.9,0.5c5.2,1,10,1.9,12.4,1c1-0.5,2.9-1.4,4.8-2.4l0.5-0.5c4.3-2.4,9.5-5.2,15.3-6.2
	c3.3-0.5,7.2-1,9.5-1.9c2.4-1,2.9-1.9,2.9-2.9c0.5-3.3,0.5-6.2,0-9.1v-1.4c0-1.4-0.5-3.3-0.5-4.8c0-3.3,1-8.6,3.8-13.4
	C363.4,394.3,366.7,391.4,371,389.5z"/>
</svg>
